M48
;Layer_Color=9474304
;FILE_FORMAT=2:5
INCH,LZ
;TYPE=PLATED
T1F00S00C0.01190
T2F00S00C0.02953
T3F00S00C0.03740
T4F00S00C0.04331
T5F00S00C0.06299
T6F00S00C0.12000
%
T01
X0177Y014
X0176Y0145
X0368739Y0140925
X0369Y0133113
X0391702
X0396702
X0397004Y0139781
X0396978Y0143803
X0391378Y0143625
X0391276Y0139883
X04175Y0141
X0424Y0144
X0415Y01605
X0414443Y0173838
X0431877Y0176453
X0432Y0170787
X043189Y0189256
X0448126Y0191462
X0447877Y0184953
X0436727Y0215135
X0429307Y0210336
X0413659Y0210868
X0413713Y0212942
Y0215017
X04135Y0220213
X0414689Y0225952
X0414594Y0229985
X0406356Y022971
X0404357Y0229899
X0400647Y022974
X0398573Y0229739
X0394819Y0229787
X0392826Y022975
X0390774Y0229728
X0388678Y0229714
X0384847Y022984
X0381297Y0229718
X0380855Y0227742
X0380847Y022574
X0380846Y0223756
X0381005Y022178
X0380833Y0219804
X0381053Y0217645
X0380462Y0215752
X0381015Y0213768
X0380611Y0211827
X0381015Y020988
Y0207897
X0380751Y0205933
X0380839Y0203952
X0386619Y0203934
X0388747Y020394
X0388263Y0207296
X039198Y0207351
X0395863Y0207323
X039947
X0403426Y0207327
X0406425Y0208001
Y0210014
Y0211996
X0406445Y0214002
X04035Y0213
X0399544Y0212996
X0395936
X0392054Y0213024
X0388336Y0212969
X03845Y0212951
X03865Y0209951
X0390336Y0209969
X0394054Y0210024
X0397936Y0209996
X0401544
X040092Y0215995
X0397936Y0215996
X0394054Y0216024
X0390336Y0215969
X03865Y0215951
X0388336Y0219469
X0392054Y0219524
X0395936Y0219496
X0399544
X04035Y02195
X0406483Y0219736
X0406447Y0221718
X0406447Y022374
X0406425Y0225919
X0407154Y0227762
X04035Y0226
X0399544Y0225996
X0395936
X0392054Y0226024
X0388336Y0225969
X03845Y0225951
X03865Y0222451
X0390336Y0222469
X0394054Y0222524
X0397936Y0222496
X0401544
X0406933Y0217737
X0406337Y0206021
X0406041Y0203865
X0398547Y020404
X0402211Y019688
X0412104Y020111
X0384426Y0207277
X03845Y0219451
X0369059Y0225546
X0368478Y0237596
X0358Y0251
X03775Y0256
X03785Y0276
X04065Y028063
X04055Y02925
X04025Y0311
X0445689
X0455826Y0297015
X0455462Y027802
X044595Y025145
X0452202Y0235462
X0461Y02175
X0433152Y0225781
X0424693Y0248489
X0416052Y0251881
X0401652Y0257781
X0405498Y0236632
X0408405Y0236589
X0355197Y0226697
X034741Y0228531
X034541Y0213531
X0346Y0203
X03635Y01975
X0371291Y0195613
X03595Y0191
X036287Y0166786
X0388Y01765
X0296989Y0178523
X0302152Y0231781
X029836Y0239021
X0298397Y0257781
X0289Y0284
X0275093Y0284248
X026379Y028621
X0263377Y0303953
X0258895Y0305895
X0275448Y0307847
X0274989Y031172
X0278897Y0309651
X0274897Y0302151
X0263685Y0265154
X0263674Y026257
X0264Y0227311
X0274Y0227
X0283652Y0226118
X0278705Y02378
X0247588Y0237998
X0243722Y0226194
X0252747Y0226687
X0207877Y0226953
X0203169Y0245325
X0205045Y02573
X0211153Y0257426
X0209096Y0259904
X0190377Y0261453
X0193377Y0283953
X0190981Y0305848
X0174Y03095
X0168263Y0309445
X017Y02975
X01575Y0262
X0166682Y0243861
X0172607Y0243877
X0184307Y0227781
X01765Y0204
X0191Y0193
X0204913Y0166725
X0232Y02
X0232728Y025521
X0156Y0293
X0162Y0326
X0174Y0342
X0211
X022Y0349
X02325Y03415
X0236Y0341378
X0238634Y0341372
X0260292Y0329537
X0274038Y0347337
X0274Y0356
X0255902Y0361031
X02425Y03895
X0220397Y0389152
X02065Y0394
X0214Y0375
X0206Y0364
X0293508Y0343992
X033Y03685
X0335Y0369
X0345Y03685
X0387867Y0374212
X03985Y038
X0408138Y0367263
X0410503Y036617
X0414089Y0365552
X0417005Y0365604
X0418431Y0357176
X0416602Y0355324
X0418462Y0353387
X041654Y0351355
X0414493Y0353231
X0412571Y0351324
X0410696Y0349386
X0410649Y0353246
X040868Y035134
X0406742Y0353246
X040868Y0355239
X0410627Y0357176
X0412618Y0355309
X0414599Y0357199
X0414618Y0349324
X041656Y0347347
X0414601Y0345405
X041259Y034733
X0410664Y0345473
X0408602Y0347381
X0406694Y0345508
X0406679Y0349355
X0406644Y0357187
X0418571Y0349402
X0418623Y034537
X0436039Y035345
X0436021Y0355816
X0445413Y0355763
X0445431Y0353468
X045354Y0353549
X0453555Y0355767
X0457Y0349
X03875Y0351
X0398314Y0334221
X0413353Y039958
T02
X0205666Y0149264
X021354
X0221414
X0229288
X0237162
X0245036
X025291
X0260784
X0268658
X0276532
X0284406
X029228
X0300154
X0308028
X0315902
X0323776
Y0157138
X0315902
X0315902Y018086
X0323776
Y0188734
X0315902
Y0196608
X0323776
Y0204482
X0315902
Y0212356
X0323776
Y022023
X0315902
Y0228104
X0323776
Y0235978
X0315902
Y0243852
X0323776
Y0251726
X0315902
Y02596
X0323776
Y0267474
X0315902
Y0275348
X0323776
Y0283222
X0315902
Y0291096
X0323776
Y029897
X0315902
Y0306844
X0323776
X0308028Y0157138
X0300154
X029228
X0284406
X0276532
X0268658
X0260784
X025291
X0245036
X0237162
X0229288
X0221414
X021354
X0205666
X01348Y018086
X0126926
Y0188734
X01348
Y0196608
X0126926
Y0204482
X01348
Y0212356
X0126926
Y022023
X01348
Y0228104
X0126926
Y0235978
X01348
Y0243852
X0126926
Y0251726
X01348
Y02596
X0126926
Y0267474
X01348
Y0275348
X0126926
Y0283222
X01348
Y0291096
X0126926
Y029897
X01348
Y0306844
X0126926
Y0314718
X01348
Y0322592
X0126926
Y0330466
Y033834
X01348
Y0330466
Y0346214
X0126926
Y0354088
X01348
X0315902
X0323776
Y0346214
X0315902
Y033834
Y0330466
X0323776
Y033834
Y0322592
X0315902
Y0314718
X0323776
T03
X01625Y04263
Y04363
Y04463
Y04563
X01725
X01825
X01925
X02025
X02125
X02225
X02325
X02425
X02525
X02625
X02725
X02825
X02925
X03025
Y04463
X02925
X02825
X02725
X02625
X02525
X02425
X02325
X02225
X02125
X02025
X01925
X01825
X01725
Y04363
X01825
X01925
X02025
X02125
X02225
X02325
X02425
X02525
X02625
X02725
X02825
X02925
X03025
Y04263
X02925
X02825
X02725
X02625
X02525
X02425
X02325
X02225
X02125
X02025
X01925
X01825
X01725
X03125
Y04363
Y04463
Y04563
X03225
X03325
X03425
X03525
X03625
X03725
X03825
X03925
X04025
X04125
Y04463
X04025
X03925
X03825
X03725
X03625
X03525
X03425
X03325
X03225
Y04363
X03325
X03425
X03525
X03625
X03725
X03825
X03925
X04025
X04125
Y04263
X04025
X03925
X03825
X03725
X03625
X03525
X03425
X03325
X03225
T04
X01146Y03697
Y03797
Y03897
Y03997
Y04097
Y04197
X01149Y04333
X01249
X01349
X01449
T05
X0442742Y03769
Y03969
X0462743
Y03769
X0452742Y03869
T06
X013Y01188
X0445
X01425Y04563
X04325
M30
