G04*
G04 #@! TF.GenerationSoftware,Altium Limited,Altium Designer,21.0.8 (223)*
G04*
G04 Layer_Physical_Order=4*
G04 Layer_Color=16711680*
%FSLAX25Y25*%
%MOIN*%
G70*
G04*
G04 #@! TF.SameCoordinates,8C76C3ED-8D82-4A5C-AC10-AB376F5EDEF7*
G04*
G04*
G04 #@! TF.FilePolarity,Positive*
G04*
G01*
G75*
%ADD13C,0.01000*%
%ADD15C,0.00800*%
%ADD16R,0.03740X0.04134*%
%ADD18R,0.04134X0.03740*%
%ADD31R,0.05472X0.06181*%
%ADD33R,0.06181X0.05472*%
%ADD60C,0.00600*%
%ADD69C,0.25000*%
%ADD70O,0.05906X0.04921*%
%ADD71O,0.04921X0.05906*%
%ADD72O,0.06299X0.07874*%
%ADD73R,0.06299X0.07874*%
%ADD74C,0.09449*%
%ADD75C,0.06496*%
%ADD76C,0.01500*%
%ADD77C,0.01575*%
%ADD78C,0.01400*%
G04:AMPARAMS|DCode=86|XSize=61.42mil|YSize=11.02mil|CornerRadius=1.38mil|HoleSize=0mil|Usage=FLASHONLY|Rotation=0.000|XOffset=0mil|YOffset=0mil|HoleType=Round|Shape=RoundedRectangle|*
%AMROUNDEDRECTD86*
21,1,0.06142,0.00827,0,0,0.0*
21,1,0.05866,0.01102,0,0,0.0*
1,1,0.00276,0.02933,-0.00413*
1,1,0.00276,-0.02933,-0.00413*
1,1,0.00276,-0.02933,0.00413*
1,1,0.00276,0.02933,0.00413*
%
%ADD86ROUNDEDRECTD86*%
G04:AMPARAMS|DCode=87|XSize=61.42mil|YSize=11.02mil|CornerRadius=1.38mil|HoleSize=0mil|Usage=FLASHONLY|Rotation=90.000|XOffset=0mil|YOffset=0mil|HoleType=Round|Shape=RoundedRectangle|*
%AMROUNDEDRECTD87*
21,1,0.06142,0.00827,0,0,90.0*
21,1,0.05866,0.01102,0,0,90.0*
1,1,0.00276,0.00413,0.02933*
1,1,0.00276,0.00413,-0.02933*
1,1,0.00276,-0.00413,-0.02933*
1,1,0.00276,-0.00413,0.02933*
%
%ADD87ROUNDEDRECTD87*%
G04:AMPARAMS|DCode=88|XSize=77.56mil|YSize=23.62mil|CornerRadius=2.95mil|HoleSize=0mil|Usage=FLASHONLY|Rotation=90.000|XOffset=0mil|YOffset=0mil|HoleType=Round|Shape=RoundedRectangle|*
%AMROUNDEDRECTD88*
21,1,0.07756,0.01772,0,0,90.0*
21,1,0.07165,0.02362,0,0,90.0*
1,1,0.00591,0.00886,0.03583*
1,1,0.00591,0.00886,-0.03583*
1,1,0.00591,-0.00886,-0.03583*
1,1,0.00591,-0.00886,0.03583*
%
%ADD88ROUNDEDRECTD88*%
%ADD89R,0.05906X0.07087*%
%ADD90C,0.00700*%
%ADD91R,0.21762X0.22000*%
D13*
X378120Y217752D02*
X378228Y217645D01*
X381053D01*
X380416Y215706D02*
X380462Y215752D01*
X345031Y215706D02*
X380416D01*
X357354Y212000D02*
X360897D01*
X331400Y229337D02*
X345031Y215706D01*
X360897Y212000D02*
X362724Y213827D01*
X371858Y211940D02*
X371971Y211827D01*
X380611D01*
X363372Y211940D02*
X371858D01*
X363923Y209940D02*
X380956D01*
X381015Y209880D01*
X380644Y206040D02*
X380751Y205933D01*
X365245Y206040D02*
X380644D01*
X365695Y204040D02*
X380752D01*
X380839Y203952D01*
X325955Y164300D02*
X365695Y204040D01*
X358921Y220433D02*
X359550Y219804D01*
X380833D01*
X324433Y173000D02*
X363372Y211940D01*
X324983Y171000D02*
X363923Y209940D01*
X363250Y221740D02*
X380965D01*
X381005Y221780D01*
X394819Y232177D02*
X405498Y242856D01*
X394819Y229787D02*
Y232177D01*
X405498Y242856D02*
X405546Y242903D01*
Y243100D01*
Y252100D01*
X388678Y229714D02*
Y234981D01*
X390176Y236478D01*
X372334Y234807D02*
X379289Y227852D01*
X380745D02*
X380855Y227742D01*
X379289Y227852D02*
X380745D01*
X379782Y229718D02*
X381297D01*
X380748Y223658D02*
X380846Y223756D01*
X363594Y223658D02*
X380748D01*
X345248Y217752D02*
X378120D01*
X407043Y217847D02*
X407847D01*
X412000Y222000D01*
X406933Y217737D02*
X407043Y217847D01*
X406447Y223740D02*
X412477D01*
X406385Y229740D02*
X410740D01*
X406356Y229710D02*
X406385Y229740D01*
X418148Y235594D02*
X419400Y236846D01*
X410740Y229740D02*
X416594Y235594D01*
X418148D01*
X430945Y170897D02*
X431890D01*
X432000Y170787D01*
X411997Y201110D02*
X412104D01*
X411943Y201057D02*
X411997Y201110D01*
X412050Y201057D02*
X415000Y198107D01*
X412477Y223740D02*
X414689Y225952D01*
X427900Y220951D02*
X433842D01*
X437293Y217500D01*
X424646Y217697D02*
X427900Y220951D01*
X201500Y123000D02*
X420061D01*
X460900Y163839D01*
X202212Y126000D02*
X420000D01*
X459300Y165300D01*
X420000Y120000D02*
X462500Y162500D01*
X201000Y120000D02*
X420000D01*
X200000Y117000D02*
X420000D01*
X464100Y161100D01*
X420000Y114000D02*
X465700Y159700D01*
X197831Y114000D02*
X420000D01*
X202402Y129000D02*
X420000D01*
X457700Y166700D01*
X311255Y131225D02*
X419225D01*
X456100Y168100D01*
X413000Y181000D02*
X416500Y177500D01*
X413000Y181000D02*
Y197686D01*
X166800Y164602D02*
X202402Y129000D01*
X166800Y164602D02*
Y234481D01*
X168858Y166326D02*
X203184Y132000D01*
X168858Y166326D02*
Y234121D01*
X203184Y132000D02*
X310480D01*
X156900Y167600D02*
X201500Y123000D01*
X156900Y167600D02*
Y249956D01*
X176000Y145000D02*
X201000Y120000D01*
X177000Y140000D02*
X200000Y117000D01*
X149000Y162831D02*
X197831Y114000D01*
X149000Y162831D02*
Y274000D01*
X158500Y169712D02*
X202212Y126000D01*
X158500Y169712D02*
Y248926D01*
X171303Y167387D02*
Y234303D01*
Y167387D02*
X203690Y135000D01*
X419700D01*
X415226Y216507D02*
X424884Y206849D01*
X417130Y218107D02*
X426789Y208449D01*
X413713Y212942D02*
X413823Y212832D01*
X414375D02*
X423559Y203649D01*
X413641Y220213D02*
X415747Y218107D01*
X414563Y214907D02*
X424221Y205249D01*
X310480Y132000D02*
X311255Y131225D01*
X415084Y216507D02*
X415226D01*
X419700Y135000D02*
X454500Y169800D01*
X414091Y217500D02*
X415084Y216507D01*
X413823Y212832D02*
X414375D01*
X413500Y220213D02*
X413641D01*
X415747Y218107D02*
X417130D01*
X424000Y144000D02*
X427260Y147260D01*
Y152500D01*
X168858Y234121D02*
X193864Y259127D01*
X166800Y234481D02*
X192264Y259945D01*
X171303Y234303D02*
X196349Y259349D01*
X326205Y167000D02*
X365245Y206040D01*
X249000Y167000D02*
X326205D01*
X278167Y164300D02*
X325955D01*
X226910Y171000D02*
X324983D01*
X221417Y173000D02*
X324433D01*
X325763Y169000D02*
X364835Y208072D01*
X232784Y169000D02*
X325763D01*
X362274Y197491D02*
X363491D01*
X327237Y159205D02*
Y162454D01*
X362274Y197491D01*
X363491D02*
X363500Y197500D01*
X357354Y211803D02*
Y212000D01*
X348354Y203000D02*
X355787Y210433D01*
X355984D02*
X357354Y211803D01*
X355787Y210433D02*
X355984D01*
X346000Y203000D02*
X348354D01*
X207877Y227123D02*
X208000Y227000D01*
X163842Y267803D02*
Y276000D01*
X180000Y262500D02*
X186000D01*
X239002Y237998D02*
X247588D01*
X273657Y238000D02*
X274000D01*
X174000Y309500D02*
Y316500D01*
X214431Y348715D02*
X214716Y349000D01*
X213803Y364146D02*
X222927D01*
X357354Y221803D02*
Y225339D01*
X287958Y278000D02*
X289000Y279043D01*
X240932Y158932D02*
X249000Y167000D01*
X237162Y149756D02*
X240932Y153525D01*
Y158932D01*
X221414Y157630D02*
X232784Y169000D01*
X213540Y157630D02*
X226910Y171000D01*
X272972Y153316D02*
X276532Y149756D01*
Y149264D02*
Y149756D01*
X272972Y159105D02*
X278167Y164300D01*
X272972Y153316D02*
Y159105D01*
X209262Y160844D02*
X221417Y173000D01*
X209262Y153351D02*
Y160844D01*
X290428Y264119D02*
X293508Y267199D01*
X286227Y264119D02*
X290428D01*
X282643Y267703D02*
X286227Y264119D01*
X293508Y267199D02*
Y343992D01*
X282643Y267703D02*
Y268097D01*
X289000Y279043D02*
Y284000D01*
X263685Y265154D02*
X263841D01*
X264438Y264557D01*
X269847D01*
X277362Y263577D02*
Y266251D01*
X273202Y270411D02*
X277362Y266251D01*
X269898Y270411D02*
X273202D01*
X269847Y311801D02*
X269888Y311760D01*
X274949D02*
X274989Y311720D01*
X269888Y311760D02*
X274949D01*
X248302Y346698D02*
X254324Y340676D01*
X242824Y346698D02*
X248302D01*
X237800Y351722D02*
X242824Y346698D01*
X248383Y344117D02*
X252406Y340094D01*
X227883Y344117D02*
X248383D01*
X222800Y349200D02*
X227883Y344117D01*
X236658Y335147D02*
Y340564D01*
X236000Y341222D02*
X236658Y340564D01*
X236000Y341222D02*
Y341378D01*
X232500Y341500D02*
X234690Y339310D01*
X238630Y335151D02*
Y341230D01*
X238681Y341281D01*
X192264Y259945D02*
Y264585D01*
X193864Y259127D02*
Y265248D01*
X196349Y259349D02*
Y269151D01*
X193069Y272431D02*
X196349Y269151D01*
X190324Y266525D02*
X192264Y264585D01*
X185753Y266525D02*
X190324D01*
X190618Y268494D02*
X193864Y265248D01*
X185753Y268494D02*
X190618D01*
X174130Y264557D02*
X185736D01*
X158500Y248926D02*
X174130Y264557D01*
X156900Y249956D02*
X177444Y270500D01*
X192481Y327549D02*
X269847D01*
X134900Y385129D02*
Y433300D01*
Y385129D02*
X192481Y327549D01*
X173854Y336000D02*
X174000Y336146D01*
X183320Y327600D02*
X183371Y327549D01*
X174000Y336146D02*
Y342000D01*
X183371Y327549D02*
X185753D01*
X175421Y334433D02*
X182369Y327486D01*
X185668D01*
X411810Y360409D02*
X417005Y365604D01*
X338091Y360409D02*
X411810D01*
X330000Y368500D02*
X338091Y360409D01*
X410882Y362500D02*
X413934Y365552D01*
X335000Y369000D02*
X341500Y362500D01*
X410882D01*
X372500Y426300D02*
Y426300D01*
X282743Y278100D02*
Y336543D01*
X372500Y426300D01*
X327337Y152824D02*
Y159105D01*
X327237Y159205D02*
X327337Y159105D01*
X323776Y149264D02*
X327337Y152824D01*
X359500Y191000D02*
X365646D01*
X320409Y255586D02*
X326833D01*
X316394Y259600D02*
X320409Y255586D01*
X326833D02*
X331400Y251019D01*
Y229337D02*
Y251019D01*
X325656Y271753D02*
X333000Y264408D01*
Y230000D02*
Y264408D01*
X319990Y271753D02*
X325656D01*
X335500Y249490D02*
Y270223D01*
X326096Y279627D02*
X335500Y270223D01*
X319990Y279627D02*
X326096D01*
X339612Y247641D02*
X363594Y223658D01*
X364146Y228803D02*
Y236094D01*
X367293Y225656D02*
X368949D01*
X364146Y228803D02*
X367293Y225656D01*
X368949D02*
X369059Y225546D01*
X339612Y247641D02*
Y280888D01*
X335500Y249490D02*
X363250Y221740D01*
X356106Y226587D02*
X357354Y225339D01*
X355307Y226587D02*
X356106D01*
X324700Y295800D02*
X339612Y280888D01*
X355197Y226697D02*
X355307Y226587D01*
X324269Y330466D02*
X372334Y282401D01*
Y234807D02*
Y282401D01*
X374500Y235000D02*
X379782Y229718D01*
X324269Y338340D02*
X374500Y288109D01*
Y235000D02*
Y288109D01*
X324269Y306844D02*
X370365Y260747D01*
Y234513D02*
X379029Y225850D01*
X380691Y225740D02*
X380847D01*
X380581Y225850D02*
X380691Y225740D01*
X370365Y234513D02*
Y260747D01*
X368484Y230370D02*
X369854Y229000D01*
X368484Y230370D02*
Y237589D01*
X368478Y237596D02*
X368484Y237589D01*
X268000Y356000D02*
X274000D01*
X268000Y350146D02*
X271229D01*
X273955Y347419D01*
Y347392D02*
Y347419D01*
X258312Y335147D02*
Y349834D01*
X258000Y350146D02*
X258312Y349834D01*
X266433Y348579D02*
Y348776D01*
X267803Y350146D02*
X268000D01*
X266433Y348776D02*
X267803Y350146D01*
X262249Y344394D02*
X266433Y348579D01*
X262249Y335147D02*
Y344394D01*
X253000Y364000D02*
X255902Y361098D01*
Y361031D02*
Y361098D01*
X258000Y356000D02*
Y358933D01*
X255902Y361031D02*
X258000Y358933D01*
X156047Y292953D02*
X160193D01*
X162276Y291067D02*
X163646Y289697D01*
X162079Y291067D02*
X162276D01*
X160193Y292953D02*
X162079Y291067D01*
X163646Y289500D02*
Y289697D01*
X156000Y293000D02*
X156047Y292953D01*
X254500Y329500D02*
X256343Y331343D01*
X193500Y329500D02*
X254500D01*
X144900Y378100D02*
X193500Y329500D01*
X215000Y335152D02*
X215005Y335147D01*
X214358Y348642D02*
X215000Y348000D01*
Y335152D02*
Y348000D01*
X214716Y349000D02*
X220000D01*
X214000Y349146D02*
X214431Y348715D01*
X210000Y355000D02*
X214000D01*
X208000Y353000D02*
X210000Y355000D01*
X208000Y345000D02*
Y353000D01*
Y345000D02*
X211000Y342000D01*
X206000Y364000D02*
X213657D01*
X213803Y364146D01*
X267854Y357000D02*
X267954Y357100D01*
X173854Y335803D02*
Y336000D01*
X175224Y334433D02*
X175421D01*
X173854Y335803D02*
X175224Y334433D01*
X162000Y329658D02*
X168146Y335803D01*
X162000Y326000D02*
Y329658D01*
X168146Y335803D02*
Y336000D01*
X162000Y326000D02*
X168146D01*
X252747Y226842D02*
X253000Y227095D01*
X252747Y226687D02*
Y226842D01*
X253000Y227095D02*
Y232146D01*
X274000Y227000D02*
Y232146D01*
X269790Y241867D02*
X272433Y239224D01*
Y239224D02*
Y239224D01*
X269790Y241867D02*
Y258600D01*
X272433Y239224D02*
X273657Y238000D01*
X269790Y258600D02*
X269842Y258651D01*
X269847D01*
Y260620D01*
X274000Y237854D02*
X274055Y237800D01*
X278705D01*
X230756Y246244D02*
Y251050D01*
Y246244D02*
X239002Y237998D01*
X242412Y227588D02*
X244000Y226000D01*
X242412Y227588D02*
Y232146D01*
X252406Y237603D02*
Y251053D01*
X232724Y251056D02*
Y255207D01*
X203194Y335147D02*
Y378292D01*
X275439Y307855D02*
X275448Y307847D01*
X260280Y335147D02*
X260286Y335141D01*
X269838Y262579D02*
X269847Y262588D01*
Y307864D02*
X269856Y307855D01*
X260286Y329543D02*
X260292Y329537D01*
X203169Y245325D02*
X203182Y245337D01*
X263674Y262570D02*
X263684Y262579D01*
X263790Y286210D02*
X269847D01*
X260286Y329543D02*
Y335141D01*
X185753Y286210D02*
X191119D01*
X209098Y251054D02*
X209099Y251053D01*
X263684Y262579D02*
X269838D01*
X211000Y342000D02*
X213036Y339964D01*
X203182Y251041D02*
X203194Y251053D01*
X263390Y303940D02*
X269834D01*
X206500Y381598D02*
Y394000D01*
X230753Y251053D02*
X230756Y251050D01*
X234690Y335147D02*
Y339310D01*
X209098Y251054D02*
Y259902D01*
X191119Y286210D02*
X193330Y284000D01*
X193500D01*
X209096Y259904D02*
X209098Y259902D01*
X205111Y251104D02*
X205162Y251053D01*
X238627Y335147D02*
X238630Y335151D01*
X203182Y245337D02*
Y251041D01*
X263377Y303953D02*
X263390Y303940D01*
X211068Y251053D02*
X211110Y251095D01*
X203194Y378292D02*
X206500Y381598D01*
X269856Y307855D02*
X275439D01*
X213036Y335147D02*
Y339964D01*
X269834Y303940D02*
X269847Y303927D01*
X211110Y251095D02*
Y257355D01*
X205045Y257300D02*
X205111Y257234D01*
Y251104D02*
Y257234D01*
X269850Y284245D02*
X275089D01*
X211110Y257355D02*
X211286Y257530D01*
X269847Y309832D02*
X278561D01*
X232721Y251053D02*
X232724Y251056D01*
X185753Y305895D02*
X191105D01*
X275089Y284245D02*
X275093Y284248D01*
X258895Y305895D02*
X269847D01*
X232724Y255207D02*
X232728Y255210D01*
X278742Y309651D02*
X278897D01*
X269847Y284242D02*
X269850Y284245D01*
X278561Y309832D02*
X278742Y309651D01*
X269847Y301958D02*
X274549D01*
X274742Y302151D01*
X274897D01*
X185753Y260620D02*
X185804Y260671D01*
X189439D02*
X190268Y261500D01*
X185804Y260671D02*
X189439D01*
X253197Y237657D02*
X264000D01*
X126926Y298970D02*
X127418D01*
X315902Y156646D02*
Y157138D01*
X172607Y243877D02*
Y250393D01*
X172500Y250500D02*
X172607Y250393D01*
X166646Y243898D02*
X166682Y243861D01*
X166646Y243898D02*
Y250500D01*
X168000Y316500D02*
X168263Y316237D01*
Y309445D02*
Y316237D01*
X172354Y254854D02*
X180000Y262500D01*
X172354Y250500D02*
Y254854D01*
X185744Y264548D02*
X185753Y264557D01*
X185736D02*
X185744Y264548D01*
X177444Y270500D02*
X185715D01*
X158149Y262110D02*
X163842Y267803D01*
X157610Y262110D02*
X158149D01*
X157500Y262000D02*
X157610Y262110D01*
X170000Y290146D02*
Y297500D01*
X169354Y289500D02*
X170000Y290146D01*
X185724Y288150D02*
X185753Y288179D01*
X178982Y288150D02*
X185724D01*
X177632Y289500D02*
X178982Y288150D01*
X169354Y289500D02*
X177632D01*
X174000Y316500D02*
X176500D01*
X179500Y313500D01*
Y309500D02*
Y313500D01*
X181136Y307864D02*
X185753D01*
X179500Y309500D02*
X181136Y307864D01*
X176500Y204000D02*
Y211240D01*
X452500Y235500D02*
X453760Y234240D01*
Y227500D02*
Y234240D01*
X394600Y368997D02*
X403300D01*
X407730Y367826D02*
X408138Y367418D01*
Y367263D02*
Y367418D01*
X403300Y368997D02*
X406667D01*
X407730Y367826D02*
Y367934D01*
X406667Y368997D02*
X407730Y367934D01*
X349000Y364500D02*
X408833D01*
X410503Y366170D01*
X345000Y368500D02*
X349000Y364500D01*
X456900Y348900D02*
X457000Y349000D01*
X412000Y217500D02*
X414091D01*
X410500Y216000D02*
X412000Y217500D01*
X415000Y184158D02*
Y198107D01*
X405498Y236632D02*
Y242856D01*
X388000Y176500D02*
Y176655D01*
X386157Y183000D02*
X387528Y181630D01*
Y177128D02*
Y181630D01*
Y177128D02*
X388000Y176655D01*
X446832Y185843D02*
X447721Y184953D01*
X443000Y185843D02*
X446832D01*
X447721Y184953D02*
X447877D01*
X443000Y179354D02*
Y185843D01*
X432158Y195000D02*
X435803Y191354D01*
X423842Y195000D02*
X432158D01*
X435803Y191354D02*
X436000D01*
X420197D02*
X423842Y195000D01*
X420000Y191354D02*
X420197D01*
X415000Y184158D02*
X419803Y179354D01*
X436000Y191354D02*
X442803D01*
X443000Y191157D01*
X429370Y189787D02*
X431204D01*
X431735Y189256D01*
X431890D01*
X432303Y189146D02*
X435803Y185646D01*
X432000Y189146D02*
X432303D01*
X431890Y189256D02*
X432000Y189146D01*
X435803Y185646D02*
X436197D01*
X432000Y176485D02*
X432142Y176343D01*
X432000Y176485D02*
Y176500D01*
X435803Y173843D02*
X436000D01*
X433303Y176343D02*
X435803Y173843D01*
X432142Y176343D02*
X433303D01*
X419740Y152854D02*
X424386Y157500D01*
X419740Y152500D02*
Y152854D01*
X435803Y160843D02*
X436000D01*
X432461Y157500D02*
X435803Y160843D01*
X424386Y157500D02*
X432461D01*
X415000Y160500D02*
X419854D01*
X420000Y160646D01*
X428000D01*
X439945Y170787D02*
X442803Y173646D01*
X443000D01*
X432000Y170787D02*
X439945D01*
X428197Y173646D02*
X430945Y170897D01*
X420000Y173646D02*
X428197D01*
X420000Y166354D02*
X428000D01*
X418433Y167724D02*
Y167921D01*
X416500Y169854D02*
X418433Y167921D01*
X419803Y166354D02*
X420000D01*
X418433Y167724D02*
X419803Y166354D01*
X416500Y169854D02*
Y177500D01*
X407922Y173838D02*
X414443D01*
X407760Y174000D02*
X407922Y173838D01*
X207877Y227123D02*
Y232219D01*
X208000Y232343D01*
X213500Y175312D02*
Y232354D01*
X204913Y166725D02*
X213500Y175312D01*
X169158Y276000D02*
X172163D01*
X173764Y274399D01*
X185753D01*
X169158Y268000D02*
X173537Y272379D01*
X185753Y272431D02*
X193069D01*
X185702Y272379D02*
X185753Y272431D01*
X420000Y191354D02*
Y195636D01*
X413823Y214907D02*
X414563D01*
X413713Y215017D02*
X413823Y214907D01*
X429307Y210336D02*
Y210492D01*
X430354Y211539D02*
Y217500D01*
X429307Y210492D02*
X430354Y211539D01*
X149000Y274000D02*
X158500Y283500D01*
X346000Y213000D02*
X347000Y212000D01*
X351646D01*
X348000Y228000D02*
X350276Y225724D01*
Y223370D02*
X351646Y222000D01*
X350276Y223370D02*
Y225724D01*
X357354Y221803D02*
X358724Y220433D01*
X358921D01*
X333000Y230000D02*
X345248Y217752D01*
X363646Y243760D02*
X364000D01*
X358110Y249295D02*
X363646Y243760D01*
X358110Y249295D02*
Y250890D01*
X358000Y251000D02*
X358110Y250890D01*
X364000Y236240D02*
X364146Y236094D01*
X377500Y252146D02*
X377546Y252100D01*
X377500Y252146D02*
Y256000D01*
X377546Y243100D02*
Y252100D01*
X378500Y270760D02*
X380400Y268860D01*
X378500Y270760D02*
Y276000D01*
X288276Y257781D02*
X298397D01*
X288158Y257900D02*
X288276Y257781D01*
X398610Y378805D02*
X403103Y374312D01*
X398500Y380000D02*
X398610Y379890D01*
Y378805D02*
Y379890D01*
X403103Y374312D02*
X403300D01*
X387867Y374212D02*
X394500D01*
X402500Y311000D02*
Y311156D01*
X397254Y252297D02*
X401542Y256584D01*
X397254Y243100D02*
Y252297D01*
X401542Y256584D02*
Y257671D01*
X401652Y257781D01*
X411254Y252100D02*
X415900D01*
X416000Y252000D01*
X436200Y242554D02*
Y245800D01*
X433511Y248489D02*
X436200Y245800D01*
X424693Y248489D02*
X433511D01*
X445950Y245210D02*
Y251450D01*
X445900Y245160D02*
X445950Y245210D01*
X420000Y224146D02*
X431516D01*
X433152Y225781D01*
X453760Y217500D02*
X461000D01*
X404854Y191000D02*
Y194236D01*
X402211Y196880D02*
X404854Y194236D01*
X436000Y173843D02*
X436197D01*
X404854Y183000D02*
Y191000D01*
X362870Y166786D02*
Y174370D01*
X362740Y174500D02*
X362870Y174370D01*
X227800Y356576D02*
Y359272D01*
X222927Y364146D02*
X227800Y359272D01*
X214000Y369854D02*
Y375000D01*
X243519Y372942D02*
X246803Y369657D01*
X237800Y373623D02*
Y376024D01*
Y373623D02*
X238481Y372942D01*
X243519D01*
X246803Y369657D02*
X247000D01*
Y364342D02*
X247342Y364000D01*
X253000D01*
X232800Y356576D02*
Y359272D01*
X237870Y364342D01*
X247000D01*
X264000Y227311D02*
Y232343D01*
X184681Y228000D02*
X191000D01*
X184307Y227781D02*
X184463D01*
X184681Y228000D01*
X418433Y228326D02*
Y228484D01*
X419803Y229854D01*
X417847Y227740D02*
X418433Y228326D01*
X419803Y229854D02*
X428000D01*
X232000Y200000D02*
Y208146D01*
X191000Y193000D02*
Y210000D01*
X413934Y365552D02*
X414089D01*
X371354Y175594D02*
Y183000D01*
X370260Y174500D02*
X371354Y175594D01*
X381000Y195500D02*
X386619Y201119D01*
Y203934D01*
X296989Y178523D02*
X298360Y179893D01*
Y239021D01*
X163984Y283500D02*
X168502Y278981D01*
Y276155D02*
X168658Y276000D01*
X168502Y276155D02*
Y278981D01*
X158500Y283500D02*
X163984D01*
X185715Y270500D02*
X185753Y270462D01*
X173537Y272379D02*
X185702D01*
X208197Y237657D02*
X213500Y232354D01*
X208000Y237657D02*
X208197D01*
X388747Y199247D02*
Y203940D01*
X375854Y195500D02*
X381000D01*
X386157Y196658D02*
X388747Y199247D01*
X386157Y191000D02*
Y196658D01*
X371354Y191000D02*
X375854Y195500D01*
X371354Y183000D02*
Y191000D01*
X323776Y149264D02*
Y149264D01*
X446240Y227146D02*
Y227500D01*
X437200Y224414D02*
X443509D01*
X446240Y227146D01*
X424646Y217500D02*
Y217697D01*
X437293Y217500D02*
X446240D01*
X420000D02*
X424646D01*
X415500Y222000D02*
X420000Y217500D01*
X324700Y295800D02*
Y298047D01*
X323776Y298970D02*
X324700Y298047D01*
X174274Y325580D02*
X185753D01*
X173854Y326000D02*
X174274Y325580D01*
X232658Y389300D02*
X242144D01*
X242344Y389500D01*
X242500D01*
X227194Y389152D02*
X227343Y389300D01*
X220397Y389152D02*
X227194D01*
X217000Y413500D02*
Y430013D01*
X222500Y435513D02*
Y436300D01*
X217000Y430013D02*
X222500Y435513D01*
X201225Y335147D02*
Y397725D01*
X217000Y413500D01*
X144900Y378100D02*
Y433300D01*
X256343Y331343D02*
Y335147D01*
X394500Y368897D02*
X394600Y368997D01*
X232658Y389300D02*
X232800Y389158D01*
Y376024D02*
Y389158D01*
X227800Y376024D02*
Y388843D01*
X227343Y389300D02*
X227800Y388843D01*
X222800Y349200D02*
Y356576D01*
X252406Y335147D02*
Y340094D01*
X254324Y335198D02*
Y340676D01*
X237800Y351722D02*
Y356576D01*
X254324Y335198D02*
X254375Y335147D01*
X269847Y270462D02*
X269898Y270411D01*
X282842Y257900D02*
Y258097D01*
X277362Y263577D02*
X282842Y258097D01*
X287958Y267900D02*
Y278000D01*
X278309Y272431D02*
X282643Y268097D01*
X269847Y272431D02*
X278309D01*
X279239Y274399D02*
X282743Y277903D01*
X269847Y274399D02*
X279239D01*
X282743Y277903D02*
Y278100D01*
X190957Y218760D02*
X191197Y219000D01*
X177854Y218760D02*
X190957D01*
X196709Y201000D02*
Y210000D01*
X196512Y210197D02*
Y219000D01*
Y210197D02*
X196709Y210000D01*
X220000Y208146D02*
X232000D01*
Y213854D02*
Y222905D01*
X231906Y223000D02*
X232000Y222905D01*
X220000Y213854D02*
Y222905D01*
X220094Y223000D01*
X220000Y223095D02*
X220094Y223000D01*
X220000Y223095D02*
Y232343D01*
X231906Y223000D02*
X232000Y223095D01*
Y232343D01*
X253000Y237854D02*
X253197Y237657D01*
X218942Y246058D02*
Y251053D01*
Y246058D02*
X221500Y243500D01*
X225961D01*
X231803Y237657D02*
X232000D01*
X225961Y243500D02*
X231803Y237657D01*
X216973Y245294D02*
Y251053D01*
X220000Y237657D02*
Y242267D01*
X216973Y245294D02*
X220000Y242267D01*
X208000Y237657D02*
Y243346D01*
X207131Y244215D02*
X208000Y243346D01*
X207131Y244215D02*
Y251053D01*
X196512Y219197D02*
X201225Y223910D01*
Y251053D01*
X196512Y219000D02*
Y219197D01*
X191000Y228000D02*
Y237000D01*
X199257Y244824D02*
Y251053D01*
X191197Y222488D02*
X195142Y226433D01*
X195339D01*
X196709Y227803D01*
Y228000D01*
X191197Y219000D02*
Y222488D01*
X196709Y242276D02*
X199257Y244824D01*
X196709Y237000D02*
Y242276D01*
Y228000D02*
Y237000D01*
X411254Y243100D02*
Y252100D01*
X391546Y252297D02*
X394400Y255151D01*
X391546Y252100D02*
Y252297D01*
X394400Y255151D02*
Y261340D01*
X391546Y243100D02*
Y252100D01*
X408400Y255151D02*
Y261340D01*
X405546Y252297D02*
X408400Y255151D01*
X405546Y252100D02*
Y252297D01*
X394400Y268860D02*
X408400D01*
X380400D02*
X394400D01*
X383254Y243100D02*
Y252100D01*
Y258840D01*
X380754Y261340D02*
X383254Y258840D01*
X380400Y261340D02*
X380754D01*
X384624Y230218D02*
Y241730D01*
Y230218D02*
X384847Y229995D01*
X383254Y243100D02*
X384624Y241730D01*
X384847Y229840D02*
Y229995D01*
X390176Y236478D02*
Y241730D01*
X391546Y243100D01*
X399146Y175094D02*
X400240Y174000D01*
X399146Y175094D02*
Y183000D01*
X365646D02*
Y191000D01*
X380842Y183000D02*
Y191000D01*
X398547Y191599D02*
Y204040D01*
Y191599D02*
X399146Y191000D01*
Y183000D02*
Y191000D01*
X419803Y179354D02*
X420000D01*
X435803Y166354D02*
X436000Y166157D01*
X428000Y166354D02*
X435803D01*
X428000Y179354D02*
X435803D01*
X436000Y179157D01*
X420000Y179354D02*
X428000D01*
X437200Y224414D02*
X437854Y223760D01*
X428000Y191157D02*
X429370Y189787D01*
X427803Y185646D02*
X428000Y185843D01*
X420000Y185646D02*
X427803D01*
X436995Y237640D02*
X445900D01*
X436200Y236846D02*
X436995Y237640D01*
X428000Y229854D02*
X428125Y229729D01*
X437200D01*
X419400Y236846D02*
X427900D01*
X411254Y243100D02*
X418854D01*
X419400Y242554D01*
X427900D02*
X436200D01*
X419400D02*
X427900D01*
Y236846D02*
X436200D01*
X237162Y149264D02*
Y149756D01*
X221414Y157138D02*
Y157630D01*
X213540Y157138D02*
Y157630D01*
X205666Y149756D02*
X209262Y153351D01*
X205666Y149264D02*
Y149756D01*
X315902Y259600D02*
X316394D01*
Y275348D02*
X319990Y271753D01*
X315902Y275348D02*
X316394D01*
Y283222D02*
X319990Y279627D01*
X315902Y283222D02*
X316394D01*
X323776Y306844D02*
X324269D01*
X323776Y330466D02*
X324269D01*
X323776Y338340D02*
X324269D01*
D15*
X367332Y213768D02*
X381015D01*
X362724Y213827D02*
X367273D01*
X367332Y213768D01*
X378628Y208072D02*
X378802Y207897D01*
X381015D01*
X364835Y208072D02*
X378628D01*
X406041Y203865D02*
X406042D01*
X410048Y199858D01*
X406428Y205930D02*
X411099Y201258D01*
X406428Y205930D02*
X407070D01*
X406337Y206021D02*
X406428Y205930D01*
X406381D02*
X406428D01*
X411099Y201258D02*
X411956D01*
X406573Y207853D02*
X407889D01*
X406425Y208001D02*
X406573Y207853D01*
X407889D02*
X413925Y201817D01*
X406573Y209865D02*
X407892D01*
X420757Y197000D01*
X406425Y210014D02*
X406573Y209865D01*
Y211848D02*
X408031D01*
X406425Y211996D02*
X406573Y211848D01*
X408031D02*
X421379Y198500D01*
X407154Y227762D02*
X407177Y227740D01*
X417847D01*
X411956Y201258D02*
X412104Y201110D01*
X410048Y199858D02*
X410828D01*
X413000Y197686D01*
X422000Y200000D02*
X455657D01*
X406445Y214002D02*
X406593Y213854D01*
X408146D01*
X422000Y200000D01*
X413925Y201711D02*
Y201817D01*
X412000Y222000D02*
X415500D01*
X460900Y163839D02*
Y201277D01*
X459300Y165300D02*
Y200614D01*
X462500Y162500D02*
Y201940D01*
X464100Y161100D02*
Y202602D01*
X465700Y159700D02*
Y203265D01*
X457700Y166700D02*
Y199214D01*
X456100Y168100D02*
Y197814D01*
X413925Y201711D02*
X420000Y195636D01*
X455414Y198500D02*
X456100Y197814D01*
X424884Y206849D02*
X459854D01*
X426789Y208449D02*
X460517D01*
X465700Y203265D01*
X458414Y201500D02*
X459300Y200614D01*
X458528Y203649D02*
X460900Y201277D01*
X423559Y203649D02*
X458528D01*
X456914Y200000D02*
X457700Y199214D01*
X459854Y206849D02*
X464100Y202602D01*
X454500Y169800D02*
Y196414D01*
X459191Y205249D02*
X462500Y201940D01*
X424221Y205249D02*
X459191D01*
X453914Y197000D02*
X454500Y196414D01*
X420757Y197000D02*
X453914D01*
X379029Y225850D02*
X380581D01*
X423028Y201500D02*
X458414D01*
X421379Y198500D02*
X455414D01*
X455657Y200000D02*
X456914D01*
X413659Y210868D02*
X423028Y201500D01*
D16*
X166646Y250500D02*
D03*
X172354D02*
D03*
X163646Y289500D02*
D03*
X169354D02*
D03*
X168000Y316500D02*
D03*
X173709D02*
D03*
X288158Y257900D02*
D03*
X282842D02*
D03*
X282643Y267900D02*
D03*
X287958D02*
D03*
X282743Y278100D02*
D03*
X288057D02*
D03*
X168146Y336000D02*
D03*
X173854D02*
D03*
X227343Y389300D02*
D03*
X232658D02*
D03*
X357354Y222000D02*
D03*
X351646D02*
D03*
X357354Y212000D02*
D03*
X351646D02*
D03*
X163842Y276000D02*
D03*
X169158D02*
D03*
X163842Y268000D02*
D03*
X169158D02*
D03*
X196709Y201000D02*
D03*
X191000D02*
D03*
X196709Y210000D02*
D03*
X191000D02*
D03*
Y228000D02*
D03*
X196709D02*
D03*
X191000Y237000D02*
D03*
X196709D02*
D03*
X191197Y219000D02*
D03*
X196512D02*
D03*
X168146Y326000D02*
D03*
X173854D02*
D03*
X386157Y191000D02*
D03*
X380842D02*
D03*
Y183000D02*
D03*
X386157D02*
D03*
X364146Y229000D02*
D03*
X369854D02*
D03*
X405546Y252100D02*
D03*
X411254D02*
D03*
X405546Y243100D02*
D03*
X411254D02*
D03*
X391546Y252100D02*
D03*
X397254D02*
D03*
X391546Y243100D02*
D03*
X397254D02*
D03*
X383254D02*
D03*
X377546D02*
D03*
X383254Y252100D02*
D03*
X377546D02*
D03*
X424646Y217500D02*
D03*
X430354D02*
D03*
X399146Y191000D02*
D03*
X404854D02*
D03*
X399146Y183000D02*
D03*
X404854D02*
D03*
X371354D02*
D03*
X365646D02*
D03*
X371354Y191000D02*
D03*
X365646D02*
D03*
D18*
X242412Y232146D02*
D03*
Y237854D02*
D03*
X268000Y350146D02*
D03*
Y355854D02*
D03*
X264000Y237657D02*
D03*
Y232343D02*
D03*
X253000Y237854D02*
D03*
Y232146D02*
D03*
X274000D02*
D03*
Y237854D02*
D03*
X214000Y354854D02*
D03*
Y349146D02*
D03*
X247000Y364342D02*
D03*
Y369657D02*
D03*
X258000Y355854D02*
D03*
Y350146D02*
D03*
X419400Y242554D02*
D03*
Y236846D02*
D03*
X427900Y242554D02*
D03*
Y236846D02*
D03*
X436200Y242554D02*
D03*
Y236846D02*
D03*
X208000Y232343D02*
D03*
Y237657D02*
D03*
X214000Y369854D02*
D03*
Y364146D02*
D03*
X232000Y232343D02*
D03*
Y237657D02*
D03*
Y208146D02*
D03*
Y213854D02*
D03*
X220000Y208146D02*
D03*
Y213854D02*
D03*
Y232343D02*
D03*
Y237657D02*
D03*
X437200Y229729D02*
D03*
Y224414D02*
D03*
X428000Y224146D02*
D03*
Y229854D02*
D03*
X420000Y224146D02*
D03*
Y229854D02*
D03*
X428000Y173646D02*
D03*
Y179354D02*
D03*
X436000Y173843D02*
D03*
Y179157D02*
D03*
X420000Y173646D02*
D03*
Y179354D02*
D03*
Y191354D02*
D03*
Y185646D02*
D03*
X436000Y191354D02*
D03*
Y185646D02*
D03*
X443000Y185843D02*
D03*
Y191157D02*
D03*
Y179354D02*
D03*
Y173646D02*
D03*
X428000Y191157D02*
D03*
Y185843D02*
D03*
X420000Y166354D02*
D03*
Y160646D02*
D03*
X428000Y166354D02*
D03*
Y160646D02*
D03*
X436000Y160843D02*
D03*
Y166157D02*
D03*
X394500Y374212D02*
D03*
Y368897D02*
D03*
X403300Y368997D02*
D03*
Y374312D02*
D03*
D31*
X446240Y227500D02*
D03*
X453760D02*
D03*
Y217500D02*
D03*
X446240D02*
D03*
X400240Y174000D02*
D03*
X407760D02*
D03*
X427260Y152500D02*
D03*
X419740D02*
D03*
X362740Y174500D02*
D03*
X370260D02*
D03*
D33*
X408400Y268860D02*
D03*
Y261340D02*
D03*
X176500Y218760D02*
D03*
Y211240D02*
D03*
X364000Y236240D02*
D03*
Y243760D02*
D03*
X445900Y245160D02*
D03*
Y237640D02*
D03*
X394400Y261340D02*
D03*
Y268860D02*
D03*
X380400Y261340D02*
D03*
Y268860D02*
D03*
D60*
X405246Y216410D02*
Y218499D01*
X406483Y219736D01*
X406356Y229447D02*
Y229710D01*
X405504Y228595D02*
X406356Y229447D01*
X406425Y225919D02*
Y226110D01*
X405504Y227030D02*
X406425Y226110D01*
X405504Y227030D02*
Y228595D01*
D69*
X445000Y118800D02*
D03*
X130000D02*
D03*
X432500Y456300D02*
D03*
X142500D02*
D03*
D70*
X134800Y267474D02*
D03*
X323776Y354088D02*
D03*
X315902D02*
D03*
X323776Y330466D02*
D03*
Y322592D02*
D03*
Y314718D02*
D03*
Y306844D02*
D03*
Y298970D02*
D03*
Y291096D02*
D03*
Y283222D02*
D03*
Y275348D02*
D03*
Y259600D02*
D03*
Y251726D02*
D03*
Y243852D02*
D03*
Y235978D02*
D03*
Y228104D02*
D03*
Y220230D02*
D03*
Y212356D02*
D03*
Y204482D02*
D03*
Y196608D02*
D03*
Y188734D02*
D03*
X315902D02*
D03*
Y196608D02*
D03*
Y204482D02*
D03*
Y212356D02*
D03*
Y220230D02*
D03*
Y228104D02*
D03*
Y235978D02*
D03*
Y243852D02*
D03*
Y251726D02*
D03*
Y259600D02*
D03*
Y267474D02*
D03*
Y275348D02*
D03*
Y283222D02*
D03*
Y291096D02*
D03*
Y298970D02*
D03*
Y306844D02*
D03*
Y314718D02*
D03*
Y322592D02*
D03*
Y330466D02*
D03*
Y346214D02*
D03*
Y338340D02*
D03*
X323776D02*
D03*
Y346214D02*
D03*
X134800D02*
D03*
Y338340D02*
D03*
X126926D02*
D03*
Y346214D02*
D03*
Y330466D02*
D03*
Y322592D02*
D03*
Y314718D02*
D03*
Y306844D02*
D03*
Y298970D02*
D03*
Y291096D02*
D03*
Y283222D02*
D03*
Y275348D02*
D03*
Y259600D02*
D03*
Y251726D02*
D03*
Y243852D02*
D03*
Y235978D02*
D03*
Y228104D02*
D03*
Y220230D02*
D03*
Y212356D02*
D03*
Y204482D02*
D03*
Y196608D02*
D03*
Y188734D02*
D03*
X134800D02*
D03*
Y196608D02*
D03*
Y204482D02*
D03*
Y212356D02*
D03*
Y220230D02*
D03*
Y228104D02*
D03*
Y235978D02*
D03*
Y243852D02*
D03*
Y251726D02*
D03*
Y259600D02*
D03*
Y275348D02*
D03*
Y283222D02*
D03*
Y291096D02*
D03*
Y298970D02*
D03*
Y306844D02*
D03*
Y314718D02*
D03*
Y322592D02*
D03*
Y330466D02*
D03*
X126926Y354088D02*
D03*
X134800D02*
D03*
X323776Y267474D02*
D03*
Y180860D02*
D03*
X315902D02*
D03*
X126926Y267474D02*
D03*
Y180860D02*
D03*
X134800D02*
D03*
D71*
X323776Y149264D02*
D03*
X315902D02*
D03*
X308028D02*
D03*
X300154D02*
D03*
X292280D02*
D03*
X284406D02*
D03*
X276532D02*
D03*
X268658D02*
D03*
X260784D02*
D03*
X252910D02*
D03*
X245036D02*
D03*
X237162D02*
D03*
X229288D02*
D03*
X221414D02*
D03*
X213540D02*
D03*
X205666D02*
D03*
Y157138D02*
D03*
X213540D02*
D03*
X221414D02*
D03*
X229288D02*
D03*
X237162D02*
D03*
X245036D02*
D03*
X252910D02*
D03*
X260784D02*
D03*
X268658D02*
D03*
X276532D02*
D03*
X284406D02*
D03*
X292280D02*
D03*
X300154D02*
D03*
X308028D02*
D03*
X315902D02*
D03*
X323776D02*
D03*
D72*
X412500Y456300D02*
D03*
X402500D02*
D03*
X392500D02*
D03*
X382500D02*
D03*
X372500D02*
D03*
X362500D02*
D03*
X352500D02*
D03*
X342500D02*
D03*
X332500D02*
D03*
X322500D02*
D03*
X312500D02*
D03*
X302500D02*
D03*
X292500D02*
D03*
X282500D02*
D03*
X272500D02*
D03*
X262500D02*
D03*
X252500D02*
D03*
X242500D02*
D03*
X232500D02*
D03*
X222500D02*
D03*
X212500D02*
D03*
X202500D02*
D03*
X192500D02*
D03*
X182500D02*
D03*
X172500D02*
D03*
X162500D02*
D03*
X412500Y446300D02*
D03*
X402500D02*
D03*
X392500D02*
D03*
X382500D02*
D03*
X372500D02*
D03*
X362500D02*
D03*
X352500D02*
D03*
X342500D02*
D03*
X332500D02*
D03*
X322500D02*
D03*
X312500D02*
D03*
X302500D02*
D03*
X292500D02*
D03*
X282500D02*
D03*
X272500D02*
D03*
X262500D02*
D03*
X252500D02*
D03*
X242500D02*
D03*
X232500D02*
D03*
X222500D02*
D03*
X212500D02*
D03*
X202500D02*
D03*
X192500D02*
D03*
X182500D02*
D03*
X172500D02*
D03*
X162500D02*
D03*
X412500Y436300D02*
D03*
X402500D02*
D03*
X392500D02*
D03*
X382500D02*
D03*
X372500D02*
D03*
X362500D02*
D03*
X352500D02*
D03*
X342500D02*
D03*
X332500D02*
D03*
X322500D02*
D03*
X312500D02*
D03*
X302500D02*
D03*
X292500D02*
D03*
X282500D02*
D03*
X272500D02*
D03*
X262500D02*
D03*
X252500D02*
D03*
X242500D02*
D03*
X232500D02*
D03*
X222500D02*
D03*
X212500D02*
D03*
X202500D02*
D03*
X192500D02*
D03*
X182500D02*
D03*
X172500D02*
D03*
X162500D02*
D03*
X412500Y426300D02*
D03*
X402500D02*
D03*
X392500D02*
D03*
X382500D02*
D03*
X372500D02*
D03*
X362500D02*
D03*
X352500D02*
D03*
X342500D02*
D03*
X332500D02*
D03*
X322500D02*
D03*
X312500D02*
D03*
X302500D02*
D03*
X292500D02*
D03*
X282500D02*
D03*
X272500D02*
D03*
X262500D02*
D03*
X252500D02*
D03*
X242500D02*
D03*
X232500D02*
D03*
X222500D02*
D03*
X212500D02*
D03*
X202500D02*
D03*
X192500D02*
D03*
X182500D02*
D03*
X172500D02*
D03*
D73*
X162500D02*
D03*
D74*
X462743Y396900D02*
D03*
X442742D02*
D03*
Y376900D02*
D03*
X462743D02*
D03*
X452742Y386900D02*
D03*
D75*
X114600Y419700D02*
D03*
Y409700D02*
D03*
Y389700D02*
D03*
Y379700D02*
D03*
Y369700D02*
D03*
Y399700D02*
D03*
X114900Y433300D02*
D03*
X144900D02*
D03*
X134900D02*
D03*
X124900D02*
D03*
D76*
X381053Y217645D02*
D03*
X407154Y227762D02*
D03*
D77*
X380462Y215752D02*
D03*
X381015Y213768D02*
D03*
X380611Y211827D02*
D03*
X381015Y209880D02*
D03*
Y207897D02*
D03*
X380751Y205933D02*
D03*
X380839Y203952D02*
D03*
X380833Y219804D02*
D03*
X381005Y221780D02*
D03*
X406425Y208001D02*
D03*
Y210014D02*
D03*
Y211996D02*
D03*
X406483Y219736D02*
D03*
X406447Y221718D02*
D03*
X394819Y229787D02*
D03*
X392826Y229750D02*
D03*
X390774Y229728D02*
D03*
X388678Y229714D02*
D03*
X396978Y143803D02*
D03*
X397004Y139781D02*
D03*
X391276Y139883D02*
D03*
X391378Y143625D02*
D03*
X398547Y204040D02*
D03*
X380855Y227742D02*
D03*
X381297Y229718D02*
D03*
X380846Y223756D02*
D03*
X406445Y214002D02*
D03*
X406933Y217737D02*
D03*
X406425Y225919D02*
D03*
X406447Y223740D02*
D03*
X404357Y229899D02*
D03*
X406356Y229710D02*
D03*
X384500Y219451D02*
D03*
X432000Y170787D02*
D03*
X448126Y191462D02*
D03*
X412104Y201110D02*
D03*
X371291Y195613D02*
D03*
X414689Y225952D02*
D03*
X176000Y145000D02*
D03*
X177000Y140000D02*
D03*
X396702Y133113D02*
D03*
X391702D02*
D03*
X369000D02*
D03*
X424000Y144000D02*
D03*
X346000Y203000D02*
D03*
X289000Y284000D02*
D03*
X263685Y265154D02*
D03*
X274989Y311720D02*
D03*
X232500Y341500D02*
D03*
X236000Y341378D02*
D03*
X238634Y341372D02*
D03*
X174000Y342000D02*
D03*
X359500Y191000D02*
D03*
X369059Y225546D02*
D03*
X355197Y226697D02*
D03*
X368478Y237596D02*
D03*
X156000Y293000D02*
D03*
X211000Y342000D02*
D03*
X220000Y349000D02*
D03*
X206000Y364000D02*
D03*
X274038Y347337D02*
D03*
X274000Y356000D02*
D03*
X162000Y326000D02*
D03*
X252747Y226687D02*
D03*
X274000Y227000D02*
D03*
X278705Y237800D02*
D03*
X243722Y226194D02*
D03*
X247588Y237998D02*
D03*
X263790Y286210D02*
D03*
X275448Y307847D02*
D03*
X260292Y329537D02*
D03*
X275093Y284248D02*
D03*
X263674Y262570D02*
D03*
X190377Y261453D02*
D03*
X278897Y309651D02*
D03*
X193377Y283953D02*
D03*
X274897Y302151D02*
D03*
X190981Y305848D02*
D03*
X206500Y394000D02*
D03*
X203169Y245325D02*
D03*
X205045Y257300D02*
D03*
X209096Y259904D02*
D03*
X211153Y257426D02*
D03*
X232728Y255210D02*
D03*
X258895Y305895D02*
D03*
X263377Y303953D02*
D03*
X172607Y243877D02*
D03*
X166682Y243861D02*
D03*
X168263Y309445D02*
D03*
X157500Y262000D02*
D03*
X170000Y297500D02*
D03*
X174000Y309500D02*
D03*
X176500Y204000D02*
D03*
X417500Y141000D02*
D03*
X452202Y235462D02*
D03*
X368739Y140925D02*
D03*
X413353Y399580D02*
D03*
X408138Y367263D02*
D03*
X410503Y366170D02*
D03*
X335000Y369000D02*
D03*
X330000Y368500D02*
D03*
X345000D02*
D03*
X457000Y349000D02*
D03*
X453540Y353549D02*
D03*
X453555Y355767D02*
D03*
X445431Y353468D02*
D03*
X445413Y355763D02*
D03*
X436039Y353450D02*
D03*
X436021Y355816D02*
D03*
X400647Y229740D02*
D03*
X408405Y236589D02*
D03*
X405498Y236632D02*
D03*
X398573Y229739D02*
D03*
X384500Y225951D02*
D03*
X400920Y215995D02*
D03*
X403500Y219500D02*
D03*
X403426Y207327D02*
D03*
X388263Y207296D02*
D03*
X391980Y207351D02*
D03*
X395863Y207323D02*
D03*
X399470D02*
D03*
X386500Y209951D02*
D03*
X390336Y209969D02*
D03*
X394054Y210024D02*
D03*
X397936Y209996D02*
D03*
X401544D02*
D03*
X403500Y213000D02*
D03*
X388336Y212969D02*
D03*
X392054Y213024D02*
D03*
X395936Y212996D02*
D03*
X399544D02*
D03*
X386500Y215951D02*
D03*
X390336Y215969D02*
D03*
X394054Y216024D02*
D03*
X397936Y215996D02*
D03*
X388336Y219469D02*
D03*
X392054Y219524D02*
D03*
X395936Y219496D02*
D03*
X399544D02*
D03*
X386500Y222451D02*
D03*
X390336Y222469D02*
D03*
X394054Y222524D02*
D03*
X397936Y222496D02*
D03*
X401544D02*
D03*
X399544Y225996D02*
D03*
X395936D02*
D03*
X392054Y226024D02*
D03*
X388336Y225969D02*
D03*
X403500Y226000D02*
D03*
X384500Y212951D02*
D03*
X384426Y207277D02*
D03*
X418623Y345370D02*
D03*
X414601Y345405D02*
D03*
X410664Y345473D02*
D03*
X406694Y345508D02*
D03*
X408602Y347381D02*
D03*
X412590Y347330D02*
D03*
X416560Y347347D02*
D03*
X418571Y349402D02*
D03*
X414618Y349324D02*
D03*
X410696Y349386D02*
D03*
X406679Y349355D02*
D03*
X408680Y351340D02*
D03*
X412571Y351324D02*
D03*
X416540Y351355D02*
D03*
X418462Y353387D02*
D03*
X414493Y353231D02*
D03*
X410649Y353246D02*
D03*
X406742D02*
D03*
X416602Y355324D02*
D03*
X412618Y355309D02*
D03*
X408680Y355239D02*
D03*
X418431Y357176D02*
D03*
X414599Y357199D02*
D03*
X410627Y357176D02*
D03*
X406644Y357187D02*
D03*
X447877Y184953D02*
D03*
X431890Y189256D02*
D03*
X431877Y176453D02*
D03*
X415000Y160500D02*
D03*
X414443Y173838D02*
D03*
X207877Y226953D02*
D03*
X204913Y166725D02*
D03*
X413713Y215017D02*
D03*
X429307Y210336D02*
D03*
X413713Y212942D02*
D03*
X413659Y210868D02*
D03*
X413500Y220213D02*
D03*
X345410Y213531D02*
D03*
X347410Y228531D02*
D03*
X358000Y251000D02*
D03*
X377500Y256000D02*
D03*
X384847Y229840D02*
D03*
X380847Y225740D02*
D03*
X388747Y203940D02*
D03*
X386619Y203934D02*
D03*
X363500Y197500D02*
D03*
X455826Y297015D02*
D03*
X405500Y292500D02*
D03*
X378500Y276000D02*
D03*
X232000Y200000D02*
D03*
X298397Y257781D02*
D03*
X283652Y226118D02*
D03*
X302152Y231781D02*
D03*
X398314Y334221D02*
D03*
X387500Y351000D02*
D03*
X398500Y380000D02*
D03*
X387867Y374212D02*
D03*
X401652Y257781D02*
D03*
X416052Y251881D02*
D03*
X445950Y251450D02*
D03*
X433152Y225781D02*
D03*
X461000Y217500D02*
D03*
X362870Y166786D02*
D03*
X214000Y375000D02*
D03*
X255902Y361031D02*
D03*
X264000Y227311D02*
D03*
X184307Y227781D02*
D03*
X402500Y311000D02*
D03*
X406500Y280630D02*
D03*
X445689Y311000D02*
D03*
X455462Y278020D02*
D03*
X402211Y196880D02*
D03*
X424693Y248489D02*
D03*
X414594Y229985D02*
D03*
X436727Y215135D02*
D03*
X388000Y176500D02*
D03*
X191000Y193000D02*
D03*
X414089Y365552D02*
D03*
X293508Y343992D02*
D03*
X417005Y365604D02*
D03*
X296989Y178523D02*
D03*
X298360Y239021D02*
D03*
X242500Y389500D02*
D03*
X220397Y389152D02*
D03*
D78*
X406041Y203865D02*
D03*
X406337Y206021D02*
D03*
D86*
X185753Y258651D02*
D03*
Y260620D02*
D03*
Y262588D02*
D03*
Y264557D02*
D03*
Y266525D02*
D03*
Y268494D02*
D03*
Y270462D02*
D03*
Y272431D02*
D03*
Y274399D02*
D03*
Y276368D02*
D03*
Y278336D02*
D03*
Y280305D02*
D03*
Y282273D02*
D03*
Y284242D02*
D03*
Y286210D02*
D03*
Y288179D02*
D03*
Y290147D02*
D03*
Y292116D02*
D03*
Y294084D02*
D03*
Y296053D02*
D03*
Y298021D02*
D03*
Y299990D02*
D03*
Y301958D02*
D03*
Y303927D02*
D03*
Y305895D02*
D03*
Y307864D02*
D03*
Y309832D02*
D03*
Y311801D02*
D03*
Y313769D02*
D03*
Y315738D02*
D03*
Y317706D02*
D03*
Y319675D02*
D03*
Y321643D02*
D03*
Y323612D02*
D03*
Y325580D02*
D03*
Y327549D02*
D03*
X269847D02*
D03*
Y325580D02*
D03*
Y323612D02*
D03*
Y321643D02*
D03*
Y319675D02*
D03*
Y317706D02*
D03*
Y315738D02*
D03*
Y313769D02*
D03*
Y311801D02*
D03*
Y309832D02*
D03*
Y307864D02*
D03*
Y305895D02*
D03*
Y303927D02*
D03*
Y301958D02*
D03*
Y299990D02*
D03*
Y298021D02*
D03*
Y296053D02*
D03*
Y294084D02*
D03*
Y292116D02*
D03*
Y290147D02*
D03*
Y288179D02*
D03*
Y286210D02*
D03*
Y284242D02*
D03*
Y282273D02*
D03*
Y280305D02*
D03*
Y278336D02*
D03*
Y276368D02*
D03*
Y274399D02*
D03*
Y272431D02*
D03*
Y270462D02*
D03*
Y268494D02*
D03*
Y266525D02*
D03*
Y264557D02*
D03*
Y262588D02*
D03*
Y260620D02*
D03*
Y258651D02*
D03*
D87*
X262249Y251053D02*
D03*
X260280D02*
D03*
X258312D02*
D03*
X256343D02*
D03*
X254375D02*
D03*
X252406D02*
D03*
X250438D02*
D03*
X248469D02*
D03*
X246501D02*
D03*
X244532D02*
D03*
X242564D02*
D03*
X240595D02*
D03*
X238627D02*
D03*
X236658D02*
D03*
X234690D02*
D03*
X232721D02*
D03*
X230753D02*
D03*
X228784D02*
D03*
X226816D02*
D03*
X224847D02*
D03*
X222879D02*
D03*
X220910D02*
D03*
X218942D02*
D03*
X216973D02*
D03*
X215005D02*
D03*
X213036D02*
D03*
X211068D02*
D03*
X209099D02*
D03*
X207131D02*
D03*
X205162D02*
D03*
X203194D02*
D03*
X201225D02*
D03*
X199257D02*
D03*
X197288D02*
D03*
X195320D02*
D03*
X193351D02*
D03*
Y335147D02*
D03*
X195320D02*
D03*
X197288D02*
D03*
X199257D02*
D03*
X201225D02*
D03*
X203194D02*
D03*
X205162D02*
D03*
X207131D02*
D03*
X209099D02*
D03*
X211068D02*
D03*
X213036D02*
D03*
X215005D02*
D03*
X216973D02*
D03*
X218942D02*
D03*
X220910D02*
D03*
X222879D02*
D03*
X224847D02*
D03*
X226816D02*
D03*
X228784D02*
D03*
X230753D02*
D03*
X232721D02*
D03*
X234690D02*
D03*
X236658D02*
D03*
X238627D02*
D03*
X240595D02*
D03*
X242564D02*
D03*
X244532D02*
D03*
X246501D02*
D03*
X248469D02*
D03*
X250438D02*
D03*
X252406D02*
D03*
X254375D02*
D03*
X256343D02*
D03*
X258312D02*
D03*
X260280D02*
D03*
X262249D02*
D03*
D88*
X237800Y376024D02*
D03*
X232800D02*
D03*
X227800D02*
D03*
X222800D02*
D03*
Y356576D02*
D03*
X227800D02*
D03*
X232800D02*
D03*
X237800D02*
D03*
D89*
X220094Y223000D02*
D03*
X231906D02*
D03*
D90*
X405246Y216410D02*
X405656Y216000D01*
X410500D01*
D91*
X393381Y217000D02*
D03*
M02*
