G04*
G04 #@! TF.GenerationSoftware,Altium Limited,Altium Designer,21.0.8 (223)*
G04*
G04 Layer_Color=32768*
%FSLAX25Y25*%
%MOIN*%
G70*
G04*
G04 #@! TF.SameCoordinates,8C76C3ED-8D82-4A5C-AC10-AB376F5EDEF7*
G04*
G04*
G04 #@! TF.FilePolarity,Positive*
G04*
G01*
G75*
%ADD99C,0.00394*%
%ADD101C,0.00197*%
D99*
X195083Y257000D02*
X198626D01*
X196854Y255228D02*
Y258772D01*
X247228Y303386D02*
X250771D01*
X248999Y301614D02*
Y305158D01*
X167728Y250500D02*
X171272D01*
X169500Y248728D02*
Y252272D01*
X242412Y233228D02*
Y236772D01*
X240640Y235000D02*
X244184D01*
X225000Y325228D02*
Y328772D01*
X223228Y327000D02*
X226772D01*
X266228Y353000D02*
X269772D01*
X268000Y351228D02*
Y354772D01*
X268228Y294000D02*
X271772D01*
X270000Y292228D02*
Y295772D01*
X264000Y233130D02*
Y236870D01*
X262130Y235000D02*
X265870D01*
X251228D02*
X254772D01*
X253000Y233228D02*
Y236772D01*
X164728Y289500D02*
X168272D01*
X166500Y287728D02*
Y291272D01*
X169083Y316500D02*
X172626D01*
X170854Y314728D02*
Y318272D01*
X274000Y233228D02*
Y236772D01*
X272228Y235000D02*
X275772D01*
X408400Y263131D02*
Y267069D01*
X406431Y265100D02*
X410368D01*
X283630Y257900D02*
X287370D01*
X285500Y256030D02*
Y259770D01*
X283430Y267900D02*
X287170D01*
X285300Y266030D02*
Y269770D01*
X283530Y278100D02*
X287270D01*
X285400Y276230D02*
Y279970D01*
X214000Y350228D02*
Y353772D01*
X212228Y352000D02*
X215772D01*
X169228Y336000D02*
X172772D01*
X171000Y334228D02*
Y337772D01*
X228130Y389300D02*
X231870D01*
X230000Y387430D02*
Y391170D01*
X247000Y365130D02*
Y368870D01*
X245130Y367000D02*
X248870D01*
X174531Y215000D02*
X178469D01*
X176500Y213032D02*
Y216968D01*
X411228Y138000D02*
X414772D01*
X413000Y136228D02*
Y139772D01*
X373828Y138100D02*
X377372D01*
X375600Y136328D02*
Y139872D01*
X433000Y317228D02*
Y320772D01*
X431228Y319000D02*
X434772D01*
X390000Y317228D02*
Y320772D01*
X388228Y319000D02*
X391772D01*
X449800Y349983D02*
Y353526D01*
X448028Y351754D02*
X451572D01*
X290630Y234500D02*
X294370D01*
X292500Y232630D02*
Y236370D01*
X282130Y261500D02*
X285870D01*
X284000Y259630D02*
Y263370D01*
X290130Y261500D02*
X293870D01*
X292000Y259630D02*
Y263370D01*
X440900Y349983D02*
Y353526D01*
X439128Y351754D02*
X442672D01*
X431500Y349883D02*
Y353426D01*
X429728Y351654D02*
X433272D01*
X354500Y220228D02*
Y223772D01*
X352728Y222000D02*
X356272D01*
X354500Y210228D02*
Y213772D01*
X352728Y212000D02*
X356272D01*
X369228Y193000D02*
X372772D01*
X371000Y191228D02*
Y194772D01*
X364728Y243500D02*
X368272D01*
X366500Y241728D02*
Y245272D01*
X390254Y343230D02*
Y346970D01*
X388384Y345100D02*
X392124D01*
X388383Y336400D02*
X391926D01*
X390154Y334628D02*
Y338172D01*
X388483Y327600D02*
X392026D01*
X390254Y325828D02*
Y329372D01*
X258000Y351228D02*
Y354772D01*
X256228Y353000D02*
X259772D01*
X364000Y238032D02*
Y241968D01*
X362032Y240000D02*
X365968D01*
X419400Y237928D02*
Y241472D01*
X417628Y239700D02*
X421172D01*
X427900Y237928D02*
Y241472D01*
X426128Y239700D02*
X429672D01*
X436200Y237928D02*
Y241472D01*
X434428Y239700D02*
X437972D01*
X445900Y239432D02*
Y243369D01*
X443931Y241400D02*
X447868D01*
X427000Y196228D02*
Y199772D01*
X425228Y198000D02*
X428772D01*
X166500Y274130D02*
Y277870D01*
X164630Y276000D02*
X168370D01*
X206130Y235000D02*
X209870D01*
X208000Y233130D02*
Y236870D01*
X166500Y266130D02*
Y269870D01*
X164630Y268000D02*
X168370D01*
X214000Y365228D02*
Y368772D01*
X212228Y367000D02*
X215772D01*
X192083Y201000D02*
X195626D01*
X193854Y199228D02*
Y202772D01*
X192083Y210000D02*
X195626D01*
X193854Y208228D02*
Y211772D01*
X192083Y228000D02*
X195626D01*
X193854Y226228D02*
Y229772D01*
X192083Y237000D02*
X195626D01*
X193854Y235228D02*
Y238772D01*
Y217130D02*
Y220870D01*
X191984Y219000D02*
X195724D01*
X169228Y326000D02*
X172772D01*
X171000Y324228D02*
Y327772D01*
X230130Y235000D02*
X233870D01*
X232000Y233130D02*
Y236870D01*
Y209228D02*
Y212772D01*
X230228Y211000D02*
X233772D01*
X220000Y209228D02*
Y212772D01*
X218228Y211000D02*
X221772D01*
X218130Y235000D02*
X221870D01*
X220000Y233130D02*
Y236870D01*
X448032Y227500D02*
X451968D01*
X450000Y225532D02*
Y229468D01*
X435330Y227072D02*
X439070D01*
X437200Y225202D02*
Y228942D01*
X428000Y225228D02*
Y228772D01*
X426228Y227000D02*
X429772D01*
X420000Y225228D02*
Y228772D01*
X418228Y227000D02*
X421772D01*
X381630Y191000D02*
X385370D01*
X383500Y189130D02*
Y192870D01*
X381630Y183000D02*
X385370D01*
X383500Y181130D02*
Y184870D01*
X419031Y184000D02*
X422968D01*
X421000Y182032D02*
Y185968D01*
X403228Y183000D02*
X406772D01*
X405000Y181228D02*
Y184772D01*
X403228Y191000D02*
X406772D01*
X405000Y189228D02*
Y192772D01*
X368032Y185500D02*
X371969D01*
X370000Y183531D02*
Y187469D01*
X381000Y185228D02*
Y188772D01*
X379228Y187000D02*
X382772D01*
X437032Y197000D02*
X440969D01*
X439000Y195031D02*
Y198969D01*
X419000Y196228D02*
Y199772D01*
X417228Y198000D02*
X420772D01*
X428000Y174728D02*
Y178272D01*
X426228Y176500D02*
X429772D01*
X434130D02*
X437870D01*
X436000Y174630D02*
Y178370D01*
X420000Y174728D02*
Y178272D01*
X418228Y176500D02*
X421772D01*
X418228Y188500D02*
X421772D01*
X420000Y186728D02*
Y190272D01*
X434228Y188500D02*
X437772D01*
X436000Y186728D02*
Y190272D01*
X443000Y186630D02*
Y190370D01*
X441130Y188500D02*
X444870D01*
X441228Y176500D02*
X444772D01*
X443000Y174728D02*
Y178272D01*
X428000Y186630D02*
Y190370D01*
X426130Y188500D02*
X429870D01*
X420228Y209000D02*
X423772D01*
X422000Y207228D02*
Y210772D01*
X437032Y209000D02*
X440969D01*
X439000Y207031D02*
Y210968D01*
X437032Y221000D02*
X440969D01*
X439000Y219032D02*
Y222969D01*
X419000Y218228D02*
Y221772D01*
X417228Y220000D02*
X420772D01*
X426000Y218228D02*
Y221772D01*
X424228Y220000D02*
X427772D01*
X437000Y241130D02*
Y244870D01*
X435130Y243000D02*
X438870D01*
X440000Y231228D02*
Y234772D01*
X438228Y233000D02*
X441772D01*
X424130D02*
X427870D01*
X426000Y231130D02*
Y234870D01*
X433000Y231228D02*
Y234772D01*
X431228Y233000D02*
X434772D01*
X281728Y234500D02*
X285272D01*
X283500Y232728D02*
Y236272D01*
X367000Y227228D02*
Y230772D01*
X365228Y229000D02*
X368772D01*
X408400Y250328D02*
Y253872D01*
X406628Y252100D02*
X410172D01*
X408400Y241328D02*
Y244872D01*
X406628Y243100D02*
X410172D01*
X392431Y265100D02*
X396369D01*
X394400Y263131D02*
Y267069D01*
Y250328D02*
Y253872D01*
X392628Y252100D02*
X396172D01*
X394400Y241328D02*
Y244872D01*
X392628Y243100D02*
X396172D01*
X380400Y241328D02*
Y244872D01*
X378628Y243100D02*
X382172D01*
X380400Y250328D02*
Y253872D01*
X378628Y252100D02*
X382172D01*
X378432Y265100D02*
X382368D01*
X380400Y263131D02*
Y267069D01*
X427500Y215728D02*
Y219272D01*
X425728Y217500D02*
X429272D01*
X450000Y215531D02*
Y219468D01*
X448032Y217500D02*
X451968D01*
X418228Y163500D02*
X421772D01*
X420000Y161728D02*
Y165272D01*
X426228Y163500D02*
X429772D01*
X428000Y161728D02*
Y165272D01*
X436000Y161630D02*
Y165370D01*
X434130Y163500D02*
X437870D01*
X402000Y189228D02*
Y192772D01*
X400228Y191000D02*
X403772D01*
X404000Y172031D02*
Y175969D01*
X402032Y174000D02*
X405969D01*
X402000Y181228D02*
Y184772D01*
X400228Y183000D02*
X403772D01*
X423500Y150531D02*
Y154469D01*
X421531Y152500D02*
X425468D01*
X366500Y172531D02*
Y176469D01*
X364531Y174500D02*
X368468D01*
X368500Y181228D02*
Y184772D01*
X366728Y183000D02*
X370272D01*
X368500Y189228D02*
Y192772D01*
X366728Y191000D02*
X370272D01*
X420130Y243000D02*
X423870D01*
X422000Y241130D02*
Y244870D01*
X417228Y233000D02*
X420772D01*
X419000Y231228D02*
Y234772D01*
X394500Y369684D02*
Y373424D01*
X392630Y371554D02*
X396370D01*
X403300Y369784D02*
Y373524D01*
X401430Y371654D02*
X405170D01*
X416500Y383974D02*
Y387517D01*
X414728Y385746D02*
X418272D01*
X416300Y392328D02*
Y395872D01*
X414528Y394100D02*
X418072D01*
X402128Y388346D02*
X405672D01*
X403900Y386574D02*
Y390117D01*
X416458Y373077D02*
Y377014D01*
X414489Y375046D02*
X418426D01*
X392228Y290000D02*
X395772D01*
X394000Y288228D02*
Y291772D01*
X445031Y285500D02*
X448969D01*
X447000Y283531D02*
Y287469D01*
X412228Y286500D02*
X415772D01*
X414000Y284728D02*
Y288272D01*
X428228Y291000D02*
X431772D01*
X430000Y289228D02*
Y292772D01*
X455500Y284728D02*
Y288272D01*
X453728Y286500D02*
X457272D01*
X422000Y283531D02*
Y287469D01*
X420031Y285500D02*
X423969D01*
X386000Y288228D02*
Y291772D01*
X384228Y290000D02*
X387772D01*
X438000Y289228D02*
Y292772D01*
X436228Y291000D02*
X439772D01*
X432228Y281000D02*
X435772D01*
X434000Y279228D02*
Y282772D01*
X388000Y185228D02*
Y188772D01*
X386228Y187000D02*
X389772D01*
D101*
X190161Y252866D02*
Y261134D01*
X203547Y252866D02*
Y261134D01*
X190161D02*
X203547D01*
X190161Y252866D02*
X203547D01*
X242306Y299252D02*
Y307520D01*
X255692Y299252D02*
Y307520D01*
X242306D02*
X255692D01*
X242306Y299252D02*
X255692D01*
X162807Y246366D02*
Y254634D01*
X176193Y246366D02*
Y254634D01*
X162807Y246366D02*
X176193D01*
X162807Y254634D02*
X176193D01*
X238278Y228307D02*
X246546D01*
X238278Y241693D02*
X246546D01*
Y228307D02*
Y241693D01*
X238278Y228307D02*
Y241693D01*
X218307Y322866D02*
X231693D01*
X218307Y331134D02*
X231693D01*
Y322866D02*
Y331134D01*
X218307Y322866D02*
Y331134D01*
X272134Y346307D02*
Y359693D01*
X263866Y346307D02*
Y359693D01*
Y346307D02*
X272134D01*
X263866Y359693D02*
X272134D01*
X263307Y289866D02*
Y298134D01*
X276693Y289866D02*
Y298134D01*
X263307D02*
X276693D01*
X263307Y289866D02*
X276693D01*
X181698Y246998D02*
Y339202D01*
X273902Y246998D02*
Y339202D01*
X181698Y246998D02*
X273902D01*
X181698Y339202D02*
X273902D01*
X259866Y241496D02*
X268134D01*
X259866Y228504D02*
X268134D01*
X259866D02*
Y241496D01*
X268134Y228504D02*
Y241496D01*
X248866Y228307D02*
Y241693D01*
X257134Y228307D02*
Y241693D01*
X248866D02*
X257134D01*
X248866Y228307D02*
X257134D01*
X159807Y285366D02*
Y293634D01*
X173193Y285366D02*
Y293634D01*
X159807Y285366D02*
X173193D01*
X159807Y293634D02*
X173193D01*
X164161Y312366D02*
Y320634D01*
X177547Y312366D02*
Y320634D01*
X164161Y312366D02*
X177547D01*
X164161Y320634D02*
X177547D01*
X269866Y228307D02*
X278134D01*
X269866Y241693D02*
X278134D01*
Y228307D02*
Y241693D01*
X269866Y228307D02*
Y241693D01*
X403282Y273565D02*
X413518D01*
X403282Y256635D02*
X413518D01*
X403282D02*
Y273565D01*
X413518Y256635D02*
Y273565D01*
X291996Y253766D02*
Y262034D01*
X279004Y253766D02*
Y262034D01*
X291996D01*
X279004Y253766D02*
X291996D01*
X278804Y263766D02*
Y272034D01*
X291796Y263766D02*
Y272034D01*
X278804Y263766D02*
X291796D01*
X278804Y272034D02*
X291796D01*
X278904Y273966D02*
Y282234D01*
X291896Y273966D02*
Y282234D01*
X278904Y273966D02*
X291896D01*
X278904Y282234D02*
X291896D01*
X209866Y358693D02*
X218134D01*
X209866Y345307D02*
X218134D01*
X209866D02*
Y358693D01*
X218134Y345307D02*
Y358693D01*
X164307Y331866D02*
Y340134D01*
X177693Y331866D02*
Y340134D01*
X164307Y331866D02*
X177693D01*
X164307Y340134D02*
X177693D01*
X219660Y380887D02*
X240940D01*
X219660Y351713D02*
X240940D01*
X219660D02*
Y380887D01*
X240940Y351713D02*
Y380887D01*
X223504Y385166D02*
Y393434D01*
X236496Y385166D02*
Y393434D01*
X223504Y385166D02*
X236496D01*
X223504Y393434D02*
X236496D01*
X242866Y360504D02*
X251134D01*
X242866Y373496D02*
X251134D01*
Y360504D02*
Y373496D01*
X242866Y360504D02*
Y373496D01*
X171382Y206535D02*
Y223465D01*
X181618Y206535D02*
Y223465D01*
X171382D02*
X181618D01*
X171382Y206535D02*
X181618D01*
X408866Y131307D02*
Y144693D01*
X417134Y131307D02*
Y144693D01*
X408866Y131307D02*
X417134D01*
X408866Y144693D02*
X417134D01*
X371466Y131407D02*
Y144793D01*
X379734Y131407D02*
Y144793D01*
X371466Y131407D02*
X379734D01*
X371466Y144793D02*
X379734D01*
X386818Y122466D02*
X401582D01*
X386818D02*
Y131226D01*
X380420D02*
X386818D01*
X380420D02*
Y146974D01*
X382291D01*
Y155734D01*
X406110D01*
Y146974D02*
Y155734D01*
Y146974D02*
X407980D01*
Y131226D02*
Y146974D01*
X401582Y131226D02*
X407980D01*
X401582Y122466D02*
Y131226D01*
X422508Y297516D02*
X443492D01*
Y314484D01*
X422508D02*
X443492D01*
X422508Y297516D02*
Y314484D01*
X426307Y314866D02*
X439693D01*
X426307Y323134D02*
X439693D01*
Y314866D02*
Y323134D01*
X426307Y314866D02*
Y323134D01*
X383307Y314866D02*
X396693D01*
X383307Y323134D02*
X396693D01*
Y314866D02*
Y323134D01*
X383307Y314866D02*
Y323134D01*
X379508Y297516D02*
X400492D01*
Y314484D01*
X379508D02*
X400492D01*
X379508Y297516D02*
Y314484D01*
X445666Y345061D02*
X453934D01*
X445666Y358447D02*
X453934D01*
X445666Y345061D02*
Y358447D01*
X453934Y345061D02*
Y358447D01*
X288366Y228004D02*
Y240996D01*
X296634Y228004D02*
Y240996D01*
X288366Y228004D02*
X296634D01*
X288366Y240996D02*
X296634D01*
X288134Y255004D02*
Y267996D01*
X279866Y255004D02*
Y267996D01*
X288134D01*
X279866Y255004D02*
X288134D01*
X296134D02*
Y267996D01*
X287866Y255004D02*
Y267996D01*
X296134D01*
X287866Y255004D02*
X296134D01*
X436766Y345061D02*
X445034D01*
X436766Y358447D02*
X445034D01*
X436766Y345061D02*
Y358447D01*
X445034Y345061D02*
Y358447D01*
X427366Y344961D02*
X435634D01*
X427366Y358347D02*
X435634D01*
X427366Y344961D02*
Y358347D01*
X435634Y344961D02*
Y358347D01*
X347807Y226134D02*
X361193D01*
X347807Y217866D02*
X361193D01*
Y226134D01*
X347807Y217866D02*
Y226134D01*
Y216134D02*
X361193D01*
X347807Y207866D02*
X361193D01*
Y216134D01*
X347807Y207866D02*
Y216134D01*
X364307Y188866D02*
Y197134D01*
X377693Y188866D02*
Y197134D01*
X364307D02*
X377693D01*
X364307Y188866D02*
X377693D01*
X373193Y239366D02*
Y247634D01*
X359807Y239366D02*
Y247634D01*
Y239366D02*
X373193D01*
X359807Y247634D02*
X373193D01*
X383758Y340966D02*
X396750D01*
X383758Y349234D02*
X396750D01*
Y340966D02*
Y349234D01*
X383758Y340966D02*
Y349234D01*
X383461Y332266D02*
Y340534D01*
X396847Y332266D02*
Y340534D01*
X383461D02*
X396847D01*
X383461Y332266D02*
X396847D01*
X383561Y323466D02*
Y331734D01*
X396947Y323466D02*
Y331734D01*
X383561D02*
X396947D01*
X383561Y323466D02*
X396947D01*
X253866Y359693D02*
X262134D01*
X253866Y346307D02*
X262134D01*
X253866D02*
Y359693D01*
X262134Y346307D02*
Y359693D01*
X358882Y231535D02*
X369118D01*
X358882Y248465D02*
X369118D01*
Y231535D02*
Y248465D01*
X358882Y231535D02*
Y248465D01*
X415266Y246393D02*
X423534D01*
X415266Y233007D02*
X423534D01*
X415266D02*
Y246393D01*
X423534Y233007D02*
Y246393D01*
X423766D02*
X432034D01*
X423766Y233007D02*
X432034D01*
X423766D02*
Y246393D01*
X432034Y233007D02*
Y246393D01*
X432066D02*
X440334D01*
X432066Y233007D02*
X440334D01*
X432066D02*
Y246393D01*
X440334Y233007D02*
Y246393D01*
X440782Y249865D02*
X451018D01*
X440782Y232935D02*
X451018D01*
X440782D02*
Y249865D01*
X451018Y232935D02*
Y249865D01*
X422866Y191307D02*
X431134D01*
X422866Y204693D02*
X431134D01*
X422866Y191307D02*
Y204693D01*
X431134Y191307D02*
Y204693D01*
X160004Y271866D02*
X172996D01*
X160004Y280134D02*
X172996D01*
X160004Y271866D02*
Y280134D01*
X172996Y271866D02*
Y280134D01*
X212134Y228504D02*
Y241496D01*
X203866Y228504D02*
Y241496D01*
Y228504D02*
X212134D01*
X203866Y241496D02*
X212134D01*
X160004Y263866D02*
X172996D01*
X160004Y272134D02*
X172996D01*
X160004Y263866D02*
Y272134D01*
X172996Y263866D02*
Y272134D01*
X209866Y373693D02*
X218134D01*
X209866Y360307D02*
X218134D01*
X209866D02*
Y373693D01*
X218134Y360307D02*
Y373693D01*
X200547Y196866D02*
Y205134D01*
X187161Y196866D02*
Y205134D01*
X200547D01*
X187161Y196866D02*
X200547D01*
Y205866D02*
Y214134D01*
X187161Y205866D02*
Y214134D01*
X200547D01*
X187161Y205866D02*
X200547D01*
X187161Y223866D02*
Y232134D01*
X200547Y223866D02*
Y232134D01*
X187161Y223866D02*
X200547D01*
X187161Y232134D02*
X200547D01*
X187161Y232866D02*
Y241134D01*
X200547Y232866D02*
Y241134D01*
X187161Y232866D02*
X200547D01*
X187161Y241134D02*
X200547D01*
X187358Y214866D02*
X200350D01*
X187358Y223134D02*
X200350D01*
X187358Y214866D02*
Y223134D01*
X200350Y214866D02*
Y223134D01*
X164307Y321866D02*
Y330134D01*
X177693Y321866D02*
Y330134D01*
X164307Y321866D02*
X177693D01*
X164307Y330134D02*
X177693D01*
X236134Y228504D02*
Y241496D01*
X227866Y228504D02*
Y241496D01*
Y228504D02*
X236134D01*
X227866Y241496D02*
X236134D01*
X227866Y204307D02*
X236134D01*
X227866Y217693D02*
X236134D01*
Y204307D02*
Y217693D01*
X227866Y204307D02*
Y217693D01*
X215866Y204307D02*
X224134D01*
X215866Y217693D02*
X224134D01*
Y204307D02*
Y217693D01*
X215866Y204307D02*
Y217693D01*
X224134Y228504D02*
Y241496D01*
X215866Y228504D02*
Y241496D01*
Y228504D02*
X224134D01*
X215866Y241496D02*
X224134D01*
X441535Y222382D02*
Y232618D01*
X458465Y222382D02*
Y232618D01*
X441535Y222382D02*
X458465D01*
X441535Y232618D02*
X458465D01*
X433066Y220576D02*
Y233568D01*
X441334Y220576D02*
Y233568D01*
X433066D02*
X441334D01*
X433066Y220576D02*
X441334D01*
X423866Y220307D02*
X432134D01*
X423866Y233693D02*
X432134D01*
Y220307D02*
Y233693D01*
X423866Y220307D02*
Y233693D01*
X415866Y220307D02*
X424134D01*
X415866Y233693D02*
X424134D01*
Y220307D02*
Y233693D01*
X415866Y220307D02*
Y233693D01*
X389996Y186866D02*
Y195134D01*
X377004Y186866D02*
Y195134D01*
X389996D01*
X377004Y186866D02*
X389996D01*
X377004Y178866D02*
Y187134D01*
X389996Y178866D02*
Y187134D01*
X377004Y178866D02*
X389996D01*
X377004Y187134D02*
X389996D01*
X429465Y178882D02*
Y189118D01*
X412535Y178882D02*
Y189118D01*
Y178882D02*
X429465D01*
X412535Y189118D02*
X429465D01*
X398307Y178866D02*
Y187134D01*
X411693Y178866D02*
Y187134D01*
X398307D02*
X411693D01*
X398307Y178866D02*
X411693D01*
X398307Y186866D02*
Y195134D01*
X411693Y186866D02*
Y195134D01*
X398307D02*
X411693D01*
X398307Y186866D02*
X411693D01*
X378465Y180382D02*
Y190618D01*
X361535Y180382D02*
Y190618D01*
Y180382D02*
X378465D01*
X361535Y190618D02*
X378465D01*
X376866Y180307D02*
X385134D01*
X376866Y193693D02*
X385134D01*
X376866Y180307D02*
Y193693D01*
X385134Y180307D02*
Y193693D01*
X430535Y191882D02*
Y202118D01*
X447465Y191882D02*
Y202118D01*
X430535D02*
X447465D01*
X430535Y191882D02*
X447465D01*
X414866Y191307D02*
X423134D01*
X414866Y204693D02*
X423134D01*
X414866Y191307D02*
Y204693D01*
X423134Y191307D02*
Y204693D01*
X423866Y169807D02*
X432134D01*
X423866Y183193D02*
X432134D01*
Y169807D02*
Y183193D01*
X423866Y169807D02*
Y183193D01*
X431866Y170004D02*
X440134D01*
X431866Y182996D02*
X440134D01*
Y170004D02*
Y182996D01*
X431866Y170004D02*
Y182996D01*
X415866Y169807D02*
X424134D01*
X415866Y183193D02*
X424134D01*
Y169807D02*
Y183193D01*
X415866Y169807D02*
Y183193D01*
Y181807D02*
Y195193D01*
X424134Y181807D02*
Y195193D01*
X415866D02*
X424134D01*
X415866Y181807D02*
X424134D01*
X431866D02*
Y195193D01*
X440134Y181807D02*
Y195193D01*
X431866D02*
X440134D01*
X431866Y181807D02*
X440134D01*
X438866Y182004D02*
X447134D01*
X438866Y194996D02*
X447134D01*
Y182004D02*
Y194996D01*
X438866Y182004D02*
Y194996D01*
Y169807D02*
Y183193D01*
X447134Y169807D02*
Y183193D01*
X438866D02*
X447134D01*
X438866Y169807D02*
X447134D01*
X423866Y194996D02*
X432134D01*
X423866Y182004D02*
X432134D01*
X423866D02*
Y194996D01*
X432134Y182004D02*
Y194996D01*
X428693Y204866D02*
Y213134D01*
X415307Y204866D02*
Y213134D01*
Y204866D02*
X428693D01*
X415307Y213134D02*
X428693D01*
X430535Y203882D02*
Y214118D01*
X447465Y203882D02*
Y214118D01*
X430535D02*
X447465D01*
X430535Y203882D02*
X447465D01*
X430535Y215882D02*
Y226118D01*
X447465Y215882D02*
Y226118D01*
X430535D02*
X447465D01*
X430535Y215882D02*
X447465D01*
X414866Y213307D02*
X423134D01*
X414866Y226693D02*
X423134D01*
X414866Y213307D02*
Y226693D01*
X423134Y213307D02*
Y226693D01*
X421866Y213307D02*
X430134D01*
X421866Y226693D02*
X430134D01*
X421866Y213307D02*
Y226693D01*
X430134Y213307D02*
Y226693D01*
X430504Y238866D02*
X443496D01*
X430504Y247134D02*
X443496D01*
Y238866D02*
Y247134D01*
X430504Y238866D02*
Y247134D01*
X435866Y239693D02*
X444134D01*
X435866Y226307D02*
X444134D01*
Y239693D01*
X435866Y226307D02*
Y239693D01*
X421866Y226504D02*
Y239496D01*
X430134Y226504D02*
Y239496D01*
X421866Y226504D02*
X430134D01*
X421866Y239496D02*
X430134D01*
X428866Y239693D02*
X437134D01*
X428866Y226307D02*
X437134D01*
Y239693D01*
X428866Y226307D02*
Y239693D01*
X271626Y241110D02*
Y254890D01*
X302374Y241110D02*
Y254890D01*
X271626D02*
X302374D01*
X271626Y241110D02*
X302374D01*
X287634Y227807D02*
Y241193D01*
X279366Y227807D02*
Y241193D01*
X287634D01*
X279366Y227807D02*
X287634D01*
X360307Y224866D02*
X373693D01*
X360307Y233134D02*
X373693D01*
X360307Y224866D02*
Y233134D01*
X373693Y224866D02*
Y233134D01*
X401707Y247966D02*
X415093D01*
X401707Y256234D02*
X415093D01*
X401707Y247966D02*
Y256234D01*
X415093Y247966D02*
Y256234D01*
X401707Y238966D02*
X415093D01*
X401707Y247234D02*
X415093D01*
X401707Y238966D02*
Y247234D01*
X415093Y238966D02*
Y247234D01*
X399518Y256635D02*
Y273565D01*
X389282Y256635D02*
Y273565D01*
Y256635D02*
X399518D01*
X389282Y273565D02*
X399518D01*
X387707Y247966D02*
X401093D01*
X387707Y256234D02*
X401093D01*
X387707Y247966D02*
Y256234D01*
X401093Y247966D02*
Y256234D01*
X387707Y238966D02*
X401093D01*
X387707Y247234D02*
X401093D01*
X387707Y238966D02*
Y247234D01*
X401093Y238966D02*
Y247234D01*
X373707D02*
X387093D01*
X373707Y238966D02*
X387093D01*
Y247234D01*
X373707Y238966D02*
Y247234D01*
Y256234D02*
X387093D01*
X373707Y247966D02*
X387093D01*
Y256234D01*
X373707Y247966D02*
Y256234D01*
X385518Y256635D02*
Y273565D01*
X375282Y256635D02*
Y273565D01*
Y256635D02*
X385518D01*
X375282Y273565D02*
X385518D01*
X420807Y213366D02*
X434193D01*
X420807Y221634D02*
X434193D01*
X420807Y213366D02*
Y221634D01*
X434193Y213366D02*
Y221634D01*
X441535Y222618D02*
X458465D01*
X441535Y212382D02*
X458465D01*
Y222618D01*
X441535Y212382D02*
Y222618D01*
X415866Y156807D02*
Y170193D01*
X424134Y156807D02*
Y170193D01*
X415866D02*
X424134D01*
X415866Y156807D02*
X424134D01*
X423866D02*
Y170193D01*
X432134Y156807D02*
Y170193D01*
X423866D02*
X432134D01*
X423866Y156807D02*
X432134D01*
X431866Y157004D02*
X440134D01*
X431866Y169996D02*
X440134D01*
Y157004D02*
Y169996D01*
X431866Y157004D02*
Y169996D01*
X395307Y186866D02*
X408693D01*
X395307Y195134D02*
X408693D01*
X395307Y186866D02*
Y195134D01*
X408693Y186866D02*
Y195134D01*
X395535Y168882D02*
X412465D01*
X395535Y179118D02*
X412465D01*
X395535Y168882D02*
Y179118D01*
X412465Y168882D02*
Y179118D01*
X395307Y178866D02*
X408693D01*
X395307Y187134D02*
X408693D01*
X395307Y178866D02*
Y187134D01*
X408693Y178866D02*
Y187134D01*
X415035Y157618D02*
X431965D01*
X415035Y147382D02*
X431965D01*
Y157618D01*
X415035Y147382D02*
Y157618D01*
X358035Y169382D02*
X374965D01*
X358035Y179618D02*
X374965D01*
X358035Y169382D02*
Y179618D01*
X374965Y169382D02*
Y179618D01*
X361807Y187134D02*
X375193D01*
X361807Y178866D02*
X375193D01*
Y187134D01*
X361807Y178866D02*
Y187134D01*
Y195134D02*
X375193D01*
X361807Y186866D02*
X375193D01*
Y195134D01*
X361807Y186866D02*
Y195134D01*
X415504Y238866D02*
Y247134D01*
X428496Y238866D02*
Y247134D01*
X415504D02*
X428496D01*
X415504Y238866D02*
X428496D01*
X423134Y226307D02*
Y239693D01*
X414866Y226307D02*
Y239693D01*
X423134D01*
X414866Y226307D02*
X423134D01*
X390366Y378050D02*
X398634D01*
X390366Y365058D02*
X398634D01*
X390366D02*
Y378050D01*
X398634Y365058D02*
Y378050D01*
X399166Y365158D02*
X407434D01*
X399166Y378150D02*
X407434D01*
Y365158D02*
Y378150D01*
X399166Y365158D02*
Y378150D01*
X409807Y381612D02*
X423193D01*
X409807Y389879D02*
X423193D01*
Y381612D02*
Y389879D01*
X409807Y381612D02*
Y389879D01*
X409607Y389966D02*
X422993D01*
X409607Y398234D02*
X422993D01*
Y389966D02*
Y398234D01*
X409607Y389966D02*
Y398234D01*
X399766Y381653D02*
Y395039D01*
X408034Y381653D02*
Y395039D01*
X399766Y381653D02*
X408034D01*
X399766Y395039D02*
X408034D01*
X407993Y380164D02*
X424922D01*
X407993Y369928D02*
X424922D01*
X407993D02*
Y380164D01*
X424922Y369928D02*
Y380164D01*
X467506Y400345D02*
Y402609D01*
Y400345D02*
X499396D01*
Y373455D02*
Y400345D01*
X467506Y373455D02*
X499396D01*
X467506Y371191D02*
Y373455D01*
X437034Y402609D02*
X467506D01*
X437034Y371191D02*
Y402609D01*
Y371191D02*
X467506D01*
X389866Y283307D02*
Y296693D01*
X398134Y283307D02*
Y296693D01*
X389866Y283307D02*
X398134D01*
X389866Y296693D02*
X398134D01*
X452118Y277035D02*
Y293965D01*
X441882Y277035D02*
Y293965D01*
X452118D01*
X441882Y277035D02*
X452118D01*
X418134Y279807D02*
Y293193D01*
X409866Y279807D02*
Y293193D01*
X418134D01*
X409866Y279807D02*
X418134D01*
X434134Y284307D02*
Y297693D01*
X425866Y284307D02*
Y297693D01*
X434134D01*
X425866Y284307D02*
X434134D01*
X451366Y279807D02*
X459634D01*
X451366Y293193D02*
X459634D01*
X451366Y279807D02*
Y293193D01*
X459634Y279807D02*
Y293193D01*
X416882Y277035D02*
X427118D01*
X416882Y293965D02*
X427118D01*
X416882Y277035D02*
Y293965D01*
X427118Y277035D02*
Y293965D01*
X381866Y296693D02*
X390134D01*
X381866Y283307D02*
X390134D01*
Y296693D01*
X381866Y283307D02*
Y296693D01*
X433866Y284307D02*
X442134D01*
X433866Y297693D02*
X442134D01*
X433866Y284307D02*
Y297693D01*
X442134Y284307D02*
Y297693D01*
X427307Y276866D02*
Y285134D01*
X440693Y276866D02*
Y285134D01*
X427307D02*
X440693D01*
X427307Y276866D02*
X440693D01*
X383866Y180307D02*
X392134D01*
X383866Y193693D02*
X392134D01*
X383866Y180307D02*
Y193693D01*
X392134Y180307D02*
Y193693D01*
M02*
