G04*
G04 #@! TF.GenerationSoftware,Altium Limited,Altium Designer,21.0.8 (223)*
G04*
G04 Layer_Physical_Order=1*
G04 Layer_Color=255*
%FSLAX25Y25*%
%MOIN*%
G70*
G04*
G04 #@! TF.SameCoordinates,8C76C3ED-8D82-4A5C-AC10-AB376F5EDEF7*
G04*
G04*
G04 #@! TF.FilePolarity,Positive*
G04*
G01*
G75*
%ADD10C,0.00787*%
%ADD13C,0.01000*%
%ADD15C,0.00800*%
%ADD16R,0.03740X0.04134*%
%ADD17R,0.12795X0.08465*%
%ADD18R,0.04134X0.03740*%
%ADD19R,0.03740X0.08465*%
%ADD20R,0.06496X0.02992*%
%ADD21R,0.01575X0.03150*%
%ADD22R,0.02953X0.03150*%
%ADD23R,0.03150X0.01575*%
%ADD24R,0.03445X0.03445*%
%ADD25R,0.01170X0.01170*%
%ADD26R,0.01170X0.01770*%
%ADD27R,0.01770X0.01170*%
%ADD28R,0.01170X0.01170*%
%ADD29R,0.01170X0.01770*%
%ADD30R,0.22835X0.22835*%
%ADD31R,0.05472X0.06181*%
G04:AMPARAMS|DCode=32|XSize=61.81mil|YSize=16.14mil|CornerRadius=2.02mil|HoleSize=0mil|Usage=FLASHONLY|Rotation=180.000|XOffset=0mil|YOffset=0mil|HoleType=Round|Shape=RoundedRectangle|*
%AMROUNDEDRECTD32*
21,1,0.06181,0.01211,0,0,180.0*
21,1,0.05778,0.01614,0,0,180.0*
1,1,0.00404,-0.02889,0.00605*
1,1,0.00404,0.02889,0.00605*
1,1,0.00404,0.02889,-0.00605*
1,1,0.00404,-0.02889,-0.00605*
%
%ADD32ROUNDEDRECTD32*%
%ADD33R,0.06181X0.05472*%
%ADD60C,0.00600*%
%ADD61C,0.01200*%
%ADD62C,0.00591*%
%ADD63C,0.01500*%
%ADD64R,0.29000X0.14000*%
%ADD65R,0.09500X0.32500*%
%ADD66R,0.04500X0.11000*%
%ADD67R,0.33000X0.05000*%
%ADD68R,0.16000X0.16000*%
%ADD69C,0.25000*%
%ADD70O,0.05906X0.04921*%
%ADD71O,0.04921X0.05906*%
%ADD72O,0.06299X0.07874*%
%ADD73R,0.06299X0.07874*%
%ADD74C,0.09449*%
%ADD75C,0.06496*%
%ADD76C,0.01500*%
%ADD77C,0.01575*%
%ADD78C,0.01400*%
G36*
X471167Y473846D02*
X471895Y473545D01*
X472550Y473107D01*
X473107Y472550D01*
X473545Y471895D01*
X473846Y471167D01*
X474000Y470394D01*
Y470000D01*
Y347500D01*
X474000Y347500D01*
X474000Y347106D01*
X473846Y346333D01*
X473545Y345605D01*
X473107Y344950D01*
X472550Y344393D01*
X471895Y343955D01*
X471167Y343654D01*
X470394Y343500D01*
X470000Y343500D01*
Y343500D01*
X469412Y343471D01*
X468258Y343242D01*
X467171Y342792D01*
X466193Y342138D01*
X465362Y341306D01*
X464708Y340328D01*
X464258Y339242D01*
X464029Y338088D01*
X464000Y337500D01*
X464000Y237500D01*
Y237500D01*
X464029Y236912D01*
X464258Y235758D01*
X464708Y234671D01*
X465362Y233693D01*
X466193Y232862D01*
X467171Y232208D01*
X468258Y231758D01*
X469412Y231529D01*
X470000Y231500D01*
Y231500D01*
X470394Y231500D01*
X471167Y231346D01*
X471895Y231045D01*
X472550Y230607D01*
X473107Y230050D01*
X473545Y229395D01*
X473846Y228667D01*
X474000Y227894D01*
X474000Y227500D01*
X474000Y105000D01*
Y104606D01*
X473846Y103833D01*
X473545Y103105D01*
X473107Y102450D01*
X472550Y101893D01*
X471895Y101455D01*
X471167Y101154D01*
X470394Y101000D01*
X470000D01*
X468000Y101000D01*
Y101000D01*
X106000Y101000D01*
Y105000D01*
X468000Y105000D01*
X469000D01*
X469195Y105019D01*
X469556Y105168D01*
X469832Y105444D01*
X469981Y105805D01*
X470000Y106000D01*
X470000Y226500D01*
X469981Y226695D01*
X469832Y227056D01*
X469556Y227331D01*
X469195Y227481D01*
X469000Y227500D01*
X468114Y227500D01*
X466375Y227846D01*
X464737Y228524D01*
X463263Y229509D01*
X462009Y230763D01*
X461024Y232237D01*
X460346Y233875D01*
X460000Y235613D01*
X460000Y236500D01*
X460000Y337500D01*
X460000Y337500D01*
X459951Y338436D01*
X460219Y340290D01*
X460844Y342057D01*
X461802Y343667D01*
X463056Y345060D01*
X464557Y346182D01*
X466248Y346989D01*
X468064Y347450D01*
X469000Y347500D01*
X469195Y347519D01*
X469556Y347668D01*
X469831Y347944D01*
X469981Y348305D01*
X470000Y348500D01*
X470000Y469000D01*
X470000Y469000D01*
X469981Y469195D01*
X469831Y469556D01*
X469556Y469831D01*
X469195Y469981D01*
X469000Y470000D01*
Y470000D01*
X446000D01*
X445805Y469981D01*
X445444Y469832D01*
X445168Y469556D01*
X445019Y469195D01*
X445000Y469000D01*
Y456000D01*
X420000D01*
Y469000D01*
X419981Y469195D01*
X419832Y469556D01*
X419556Y469832D01*
X419195Y469981D01*
X419000Y470000D01*
X156000D01*
X155805Y469981D01*
X155444Y469832D01*
X155168Y469556D01*
X155019Y469195D01*
X155000Y469000D01*
Y456000D01*
X130000D01*
Y469000D01*
X129981Y469195D01*
X129832Y469556D01*
X129556Y469832D01*
X129195Y469981D01*
X129000Y470000D01*
X106000D01*
X106000Y470000D01*
X105805Y469981D01*
X105444Y469831D01*
X105168Y469556D01*
X105019Y469195D01*
X105000Y469000D01*
Y348500D01*
Y348500D01*
X105019Y348305D01*
X105168Y347944D01*
X105444Y347668D01*
X105805Y347519D01*
X106000Y347500D01*
X106000Y347500D01*
X106936Y347451D01*
X108752Y346989D01*
X110443Y346182D01*
X111944Y345060D01*
X113198Y343668D01*
X114156Y342057D01*
X114781Y340290D01*
X115049Y338436D01*
X115000Y337500D01*
X115000Y236500D01*
X115000Y236500D01*
X115000Y235614D01*
X114654Y233875D01*
X113976Y232237D01*
X112991Y230763D01*
X111737Y229509D01*
X110263Y228524D01*
X108625Y227846D01*
X106886Y227500D01*
X106000D01*
X105805Y227481D01*
X105444Y227331D01*
X105168Y227056D01*
X105019Y226695D01*
X105000Y226500D01*
X105000Y106000D01*
X105019Y105805D01*
X105168Y105444D01*
X105444Y105168D01*
X105805Y105019D01*
X106000Y105000D01*
X106000Y101000D01*
X105000Y101000D01*
X104606D01*
X103833Y101154D01*
X103105Y101455D01*
X102450Y101893D01*
X101893Y102450D01*
X101455Y103105D01*
X101154Y103833D01*
X101000Y104606D01*
Y105000D01*
Y227500D01*
X101000Y227894D01*
X101154Y228667D01*
X101455Y229395D01*
X101893Y230050D01*
X102450Y230607D01*
X103105Y231045D01*
X103833Y231346D01*
X104606Y231500D01*
X105000Y231500D01*
X105588Y231529D01*
X106742Y231758D01*
X107828Y232208D01*
X108807Y232862D01*
X109638Y233693D01*
X110292Y234671D01*
X110742Y235758D01*
X110971Y236912D01*
X111000Y237500D01*
X111000Y337500D01*
X111000Y337500D01*
X110971Y338088D01*
X110742Y339242D01*
X110292Y340328D01*
X109638Y341306D01*
X108807Y342138D01*
X107828Y342792D01*
X106742Y343242D01*
X105588Y343471D01*
X105000Y343500D01*
X104606Y343500D01*
X103833Y343654D01*
X103105Y343955D01*
X102450Y344393D01*
X101893Y344950D01*
X101455Y345605D01*
X101154Y346333D01*
X101000Y347106D01*
X101000Y347500D01*
Y470000D01*
Y470394D01*
X101154Y471167D01*
X101455Y471895D01*
X101893Y472550D01*
X102450Y473107D01*
X103105Y473545D01*
X103833Y473846D01*
X104606Y474000D01*
X470394D01*
X471167Y473846D01*
D02*
G37*
G36*
X457500Y106000D02*
X457519Y105805D01*
X457668Y105444D01*
X457944Y105168D01*
X458305Y105019D01*
X458500Y105000D01*
X431500D01*
X431695Y105019D01*
X432056Y105168D01*
X432332Y105444D01*
X432481Y105805D01*
X432500Y106000D01*
Y119000D01*
X457500D01*
Y106000D01*
D02*
G37*
G36*
X142500D02*
X142519Y105805D01*
X142668Y105444D01*
X142944Y105168D01*
X143305Y105019D01*
X143500Y105000D01*
X116500D01*
X116695Y105019D01*
X117056Y105168D01*
X117332Y105444D01*
X117481Y105805D01*
X117500Y106000D01*
Y119000D01*
X142500D01*
Y106000D01*
D02*
G37*
D10*
X408360Y221730D02*
X408471Y221776D01*
X410739Y206964D02*
X410758Y206972D01*
D13*
X380970Y217727D02*
X381053Y217645D01*
X378970Y217810D02*
X379053Y217727D01*
X380970D01*
X378970Y215840D02*
X379014Y215796D01*
X380418D02*
X380462Y215752D01*
X379014Y215796D02*
X380418D01*
X380964Y213819D02*
X381015Y213768D01*
X379021Y213819D02*
X380964D01*
X378970Y213870D02*
X379021Y213819D01*
X380570Y211869D02*
X380611Y211827D01*
X379012Y211869D02*
X380570D01*
X378970Y211910D02*
X379012Y211869D01*
X379000Y209910D02*
X380985D01*
X381015Y209880D01*
X378970Y209940D02*
X379000Y209910D01*
X380979Y207934D02*
X381015Y207897D01*
X379006Y207934D02*
X380979D01*
X378970Y207970D02*
X379006Y207934D01*
X378970Y206000D02*
X379004Y205966D01*
X380717D01*
X380751Y205933D01*
X379009Y203991D02*
X380800D01*
X378970Y204030D02*
X379009Y203991D01*
X380800D02*
X380839Y203952D01*
X378970Y219780D02*
X378982Y219792D01*
X380821D02*
X380833Y219804D01*
X378982Y219792D02*
X380821D01*
X378970Y221750D02*
X378985Y221765D01*
X380990D02*
X381005Y221780D01*
X378985Y221765D02*
X380990D01*
X406337Y206021D02*
X406358Y206000D01*
X408470D01*
X406041Y203865D02*
X406114Y203938D01*
X408418D01*
X408470Y206000D02*
X408490Y205980D01*
X406425Y208001D02*
X406450Y207976D01*
X408464D01*
X408490Y207950D01*
X408438Y209962D02*
X408490Y209910D01*
X406425Y210014D02*
X406477Y209962D01*
X408438D01*
X408442Y211948D02*
X408490Y211900D01*
X406425Y211996D02*
X406473Y211948D01*
X408442D01*
X406453Y221724D02*
X408405D01*
Y221730D01*
X406447Y221718D02*
X406453Y221724D01*
X406483Y219736D02*
X406495Y219748D01*
X408478D01*
X408490Y219760D01*
X407220Y227696D02*
X408424D01*
X407154Y227762D02*
X407220Y227696D01*
X408424D02*
X408490Y227630D01*
X394770Y229836D02*
X394819Y229787D01*
X394770Y229836D02*
Y231540D01*
X394720Y231590D02*
X394770Y231540D01*
X392793Y229783D02*
Y231557D01*
X392760Y231590D02*
X392793Y231557D01*
Y229783D02*
X392826Y229750D01*
X390774Y229728D02*
X390782Y229736D01*
Y231582D02*
X390790Y231590D01*
X390782Y229736D02*
Y231582D01*
X388778Y229814D02*
Y231558D01*
X388678Y229714D02*
X388778Y229814D01*
Y231558D02*
X388810Y231590D01*
X380809Y227696D02*
X380855Y227742D01*
X379016Y227696D02*
X380809D01*
X378970Y227650D02*
X379016Y227696D01*
X381209Y229630D02*
X381297Y229718D01*
X379055Y229630D02*
X381209D01*
X378970Y229620D02*
X379045D01*
X379055Y229630D01*
X378970Y223720D02*
X378988Y223738D01*
X380828D01*
X380846Y223756D01*
X408418Y203938D02*
X408490Y204010D01*
X408419Y213931D02*
X408490Y213860D01*
X406445Y214002D02*
X406516Y213931D01*
X408419D01*
X406964Y217769D02*
X408459D01*
X406933Y217737D02*
X406964Y217769D01*
X406425Y225919D02*
X406580D01*
X406734Y225765D01*
X408405D01*
X408490Y225680D01*
X406500Y223912D02*
Y224000D01*
Y223912D02*
X406712Y223700D01*
X408490D01*
X406356Y229710D02*
X406411Y229655D01*
X404357Y230054D02*
X404485Y230182D01*
Y231505D01*
X408435Y229655D02*
X408490Y229600D01*
X404357Y229899D02*
Y230054D01*
X406411Y229655D02*
X408435D01*
X404485Y231505D02*
X404570Y231590D01*
X408459Y217769D02*
X408490Y217800D01*
X410440Y228610D02*
X410740D01*
Y222710D02*
Y224680D01*
X382860Y202080D02*
X384810D01*
X388441Y311946D02*
Y317704D01*
Y311946D02*
X393512Y306875D01*
X387146Y319000D02*
X388441Y317704D01*
X393512Y301996D02*
Y306875D01*
X127418Y298970D02*
X131393Y302945D01*
X169055D01*
X197500Y274500D01*
X177743Y164182D02*
X260562Y247000D01*
X275421D01*
X177743Y148890D02*
Y164182D01*
X406744Y168256D02*
X439256D01*
X395640Y179360D02*
X406744Y168256D01*
X439256D02*
X450013Y179013D01*
X455534Y178533D02*
Y253467D01*
X442500Y165500D02*
X455534Y178533D01*
X436854Y272146D02*
X455534Y253467D01*
X448016Y191572D02*
X448126Y191462D01*
X450013Y179013D02*
Y251987D01*
X431146Y270854D02*
X450013Y251987D01*
X447833Y191572D02*
X448016D01*
X406625Y231675D02*
X408708D01*
X414000Y236966D02*
Y241500D01*
X408708Y231675D02*
X414000Y236966D01*
X412725Y225247D02*
Y225967D01*
X410825Y226565D02*
X412127D01*
X412725Y225967D01*
Y225247D02*
X415118Y222854D01*
X412371Y204925D02*
X416019Y201278D01*
X410825Y204925D02*
X412371D01*
X416019Y201278D02*
X418577D01*
X419000Y200854D01*
X413000Y193500D02*
Y197334D01*
X406555Y201995D02*
X408339D01*
X413000Y197334D01*
X411040Y203130D02*
X411994Y202176D01*
Y201220D02*
X412104Y201110D01*
X411994Y201220D02*
Y202176D01*
X371291Y195613D02*
X371439D01*
X373854Y193197D01*
X315902Y149756D02*
X319848Y153702D01*
Y159585D02*
X361263Y201000D01*
X319848Y153702D02*
Y159585D01*
X305479Y171000D02*
X328044D01*
X360104Y203060D02*
X376720D01*
X328044Y171000D02*
X360104Y203060D01*
X361263Y201000D02*
X377544D01*
X296370Y153845D02*
Y161890D01*
X292280Y149756D02*
X296370Y153845D01*
Y161890D02*
X305479Y171000D01*
X333000Y150500D02*
Y169669D01*
X362718Y199387D01*
X378194D01*
X378252Y199445D02*
X379805D01*
X379890Y199530D02*
Y199830D01*
X378194Y199387D02*
X378252Y199445D01*
X379805D02*
X379890Y199530D01*
X260784Y149756D02*
X264482Y153453D01*
Y160799D02*
X296183Y192500D01*
X264482Y153453D02*
Y160799D01*
X296183Y192500D02*
X326731D01*
X225180Y153521D02*
Y161681D01*
X271978Y208480D01*
X221414Y149756D02*
X225180Y153521D01*
X271978Y208480D02*
X325287D01*
X339261Y205030D02*
X376720D01*
X326731Y192500D02*
X339261Y205030D01*
X272435Y200777D02*
X327777D01*
X333980Y206980D01*
X229288Y157630D02*
X272435Y200777D01*
X333980Y206980D02*
X376720D01*
X331080Y210920D02*
X376720D01*
X326000Y216000D02*
X331080Y210920D01*
X264036Y216000D02*
X326000D01*
X205666Y157630D02*
X264036Y216000D01*
X309500Y244020D02*
Y254500D01*
Y244020D02*
X313561Y239959D01*
X330041D01*
X355140Y214860D01*
X344500Y244000D02*
Y269500D01*
X326499Y287501D02*
X344500Y269500D01*
X319990Y287501D02*
X326499D01*
X348000Y243935D02*
Y273000D01*
X325625Y295375D02*
X348000Y273000D01*
X319990Y295375D02*
X325625D01*
X323776Y322592D02*
X325019Y321350D01*
X352000Y246237D02*
Y293000D01*
X325019Y319981D02*
Y321350D01*
Y319981D02*
X352000Y293000D01*
Y246237D02*
X371112Y227125D01*
X327129Y326871D02*
X355000Y299000D01*
X319990Y326871D02*
X327129D01*
X371130Y227125D02*
X371585Y226670D01*
X355000Y245500D02*
Y299000D01*
X371112Y227125D02*
X371130D01*
X307500Y293879D02*
Y356500D01*
X316500Y365500D02*
X342000D01*
X307500Y356500D02*
X316500Y365500D01*
X305600Y296100D02*
Y358600D01*
X315500Y368500D02*
X330000D01*
X305600Y358600D02*
X315500Y368500D01*
X314500Y370500D02*
X333500D01*
X304000Y360000D02*
X314500Y370500D01*
X304000Y348000D02*
Y360000D01*
X269404Y259904D02*
X305600Y296100D01*
X414737Y226000D02*
X421461D01*
X414689Y225952D02*
X414737Y226000D01*
X176000Y145000D02*
Y145031D01*
X177602Y146633D01*
Y148748D01*
X177743Y148890D01*
X204803Y166615D02*
X204913Y166725D01*
X177000Y140000D02*
X203615Y166615D01*
X204803D01*
X369000Y133113D02*
Y133268D01*
X369926Y134194D02*
Y134539D01*
X369000Y133268D02*
X369926Y134194D01*
Y134539D02*
X370633Y135246D01*
X273000Y286341D02*
Y294000D01*
X454906Y289260D02*
X455500Y289854D01*
X197500Y274500D02*
X254340D01*
X263685Y265154D01*
X274889Y311620D02*
X274989Y311720D01*
X114600Y399700D02*
X129563D01*
X219263Y310000D02*
X273294D01*
X129563Y399700D02*
X219263Y310000D01*
X223436Y311620D02*
X274889D01*
X273294Y310000D02*
X275448Y307847D01*
X125356Y409700D02*
X223436Y311620D01*
X236000Y335343D02*
Y341000D01*
X297373Y341372D02*
X304000Y348000D01*
X238634Y341372D02*
X297373D01*
X222000Y331000D02*
X232500Y341500D01*
X359500Y191000D02*
X361500Y193000D01*
X369169Y225436D02*
X370556D01*
X369205Y222730D02*
X376720D01*
X370556Y225436D02*
X371292Y224700D01*
X369059Y225546D02*
X369169Y225436D01*
X348000Y243935D02*
X369205Y222730D01*
X371292Y224700D02*
X376720D01*
X339000Y240225D02*
Y260617D01*
Y240225D02*
X362395Y216830D01*
X376720D01*
X363646Y239759D02*
Y243500D01*
X368478Y237596D02*
Y242624D01*
X372709Y230695D02*
X376635D01*
X363646Y239759D02*
X372709Y230695D01*
X368478Y242624D02*
X369354Y243500D01*
X375600Y135246D02*
X380246D01*
X370633D02*
X375600D01*
X114600Y419700D02*
X119300D01*
X218500Y320500D02*
X272000D01*
X119300Y419700D02*
X218500Y320500D01*
X222000Y327000D02*
Y331000D01*
X227854Y327197D02*
X236000Y335343D01*
X227854Y327000D02*
Y327197D01*
X114600Y409700D02*
X125356D01*
X114600Y389700D02*
X137300D01*
X228000Y299000D01*
X271746D01*
X247295Y307295D02*
X248000Y308000D01*
X256791D02*
X258895Y305895D01*
X248000Y308000D02*
X256791D01*
X247295Y304733D02*
Y307295D01*
X246000Y303438D02*
X247295Y304733D01*
X252000Y304000D02*
X252047Y303953D01*
X263377D01*
X271746Y299000D02*
X274897Y302151D01*
X264000Y290657D02*
X267146Y293803D01*
Y294000D01*
X264000Y287000D02*
Y290657D01*
X273000Y286341D02*
X275093Y284248D01*
X194000Y257000D02*
Y257197D01*
X190487Y260710D02*
X194000Y257197D01*
X190487Y260710D02*
Y261343D01*
X190377Y261453D02*
X190487Y261343D01*
X199709Y257000D02*
X205000D01*
X279379Y237281D02*
X283427D01*
X278705Y237800D02*
X278860D01*
X279379Y237281D01*
X283427D02*
X283500Y237354D01*
X341073Y243490D02*
Y266418D01*
Y243490D02*
X357127Y227436D01*
Y227373D02*
X365700Y218800D01*
X357127Y227373D02*
Y227436D01*
X365700Y218800D02*
X376720D01*
X413146Y141000D02*
X417500D01*
X413000Y140854D02*
X413146Y141000D01*
X442760Y196646D02*
Y209000D01*
X394200Y150517D02*
Y158800D01*
X389500Y163500D02*
X394200Y158800D01*
X380500Y163500D02*
X389500D01*
X366240Y177760D02*
X380500Y163500D01*
X366240Y177760D02*
Y185500D01*
X375571Y140925D02*
X375600Y140954D01*
X368739Y140925D02*
X375571D01*
X403255Y143745D02*
X406146Y140854D01*
X413000D01*
X403255Y143745D02*
Y150517D01*
X385000Y140000D02*
Y150372D01*
X385145Y150517D01*
X380246Y135246D02*
X385000Y140000D01*
X442760Y196646D02*
X447833Y191572D01*
X413353Y394193D02*
X413446Y394100D01*
X207500Y430513D02*
X212500Y435513D01*
X206500Y394000D02*
X207500Y395000D01*
Y430513D01*
X449800Y348900D02*
X449900Y349000D01*
X457000D01*
X440900Y348900D02*
X449800D01*
X431500Y348800D02*
X440800D01*
X440900Y348900D01*
X408155Y362180D02*
X408172Y362163D01*
X408138Y367263D02*
X408155Y367246D01*
Y362180D02*
Y367246D01*
X410503Y366014D02*
Y366170D01*
X411165Y362203D02*
Y365353D01*
X410503Y366014D02*
X411165Y365353D01*
X333500Y370500D02*
X335000Y369000D01*
X342000Y365500D02*
X345000Y368500D01*
X402570Y231570D02*
X402590Y231590D01*
X400600Y229600D02*
X400633Y229633D01*
Y231577D01*
X400620Y231590D02*
X400633Y231577D01*
X373854Y193000D02*
Y193197D01*
X363500Y197500D02*
X381199D01*
X381785Y198086D02*
Y199745D01*
X381870Y199830D01*
X381199Y197500D02*
X381785Y198086D01*
X431780Y189366D02*
Y190562D01*
Y189366D02*
X431890Y189256D01*
X427000Y195146D02*
X427197D01*
X431780Y190562D01*
X410740Y203130D02*
X411040D01*
X407510Y235693D02*
X408405Y236589D01*
X407510Y233830D02*
Y235693D01*
X405519Y233851D02*
X405540Y233830D01*
X405498Y236632D02*
X405519Y236611D01*
Y233851D02*
Y236611D01*
X398616Y229782D02*
Y231546D01*
X398660Y231590D01*
X398573Y229739D02*
X398616Y229782D01*
X209096Y259904D02*
X269404D01*
X405056Y355604D02*
X406689Y357237D01*
X401768Y355604D02*
X405056D01*
X401768Y347041D02*
X405031D01*
X406646Y345426D01*
X406156Y349896D02*
X406689Y349363D01*
X401768Y349896D02*
X406156D01*
X401768Y358459D02*
X405000D01*
X405219Y358678D01*
Y358707D01*
Y362163D01*
Y358707D02*
X406689Y357237D01*
X419722Y358458D02*
X419979Y358716D01*
X418500Y357237D02*
X419722Y358458D01*
X419979Y358716D02*
Y362161D01*
X423420Y358458D02*
X423520Y358559D01*
Y362161D01*
X419722Y358458D02*
X423420D01*
X418500Y345426D02*
X419735Y344191D01*
X423418D01*
X423521Y344088D01*
Y340489D02*
Y344088D01*
X417027Y343953D02*
X418500Y345426D01*
X417027Y340489D02*
Y343953D01*
X405220Y344000D02*
X406646Y345426D01*
X405220Y340491D02*
Y344000D01*
X358000Y251000D02*
X363646Y245354D01*
X414000Y289354D02*
X421906D01*
X408646D02*
X414000D01*
X363646Y243500D02*
Y245354D01*
X432047Y184953D02*
X447877D01*
X428000Y189000D02*
X432047Y184953D01*
X417500Y189000D02*
X428000D01*
X413000Y193500D02*
X417500Y189000D01*
X406470Y202080D02*
X406555Y201995D01*
X415062Y173948D02*
X424760Y183646D01*
X414553Y173948D02*
X415062D01*
X414443Y173838D02*
X414553Y173948D01*
X211153Y257426D02*
X271047D01*
X413629Y214934D02*
X413713Y215017D01*
X410824Y214934D02*
X413629D01*
X410740Y214850D02*
X410824Y214934D01*
X414690Y216810D02*
X415500Y216000D01*
X435240Y209000D02*
Y209354D01*
Y208646D02*
Y209000D01*
X432094Y205500D02*
X435240Y208646D01*
X422449Y205500D02*
X432094D01*
X419146Y208803D02*
X422449Y205500D01*
X419146Y208803D02*
Y209000D01*
X424854D02*
X426190Y210336D01*
X429084D01*
X429208Y210212D01*
X413671Y212901D02*
X413713Y212942D01*
X410740Y212860D02*
X410781Y212901D01*
X413671D01*
X410740Y210910D02*
X410761Y210889D01*
X413639D02*
X413659Y210868D01*
X410761Y210889D02*
X413639D01*
X419146Y209000D02*
Y209197D01*
X413344Y220213D02*
X413500D01*
X411997Y218865D02*
X413344Y220213D01*
X410805Y218865D02*
X411997D01*
X410720Y218780D02*
X410805Y218865D01*
X410740Y205010D02*
X410825Y204925D01*
X419000Y200854D02*
X427000D01*
X361500Y193000D02*
X368146D01*
X388000Y176500D02*
Y184146D01*
X373760Y185500D02*
Y185854D01*
X375996Y188091D01*
X379039D01*
X380803Y189854D01*
X381000D01*
Y184146D02*
X388000D01*
X387770Y190084D02*
X388000Y189854D01*
X387770Y190084D02*
Y199830D01*
X385810Y194664D02*
Y199830D01*
X381000Y189854D02*
X381197D01*
X382567Y191224D01*
Y191421D01*
X385810Y194664D01*
X379500Y193000D02*
X383840Y197340D01*
Y199830D01*
X373854Y193000D02*
X379500D01*
X402540Y202080D02*
X404510D01*
X402540D02*
Y205960D01*
X402500Y206000D02*
X402540Y205960D01*
X403222Y226000D02*
X403500D01*
X430000Y281740D02*
X430406D01*
X422000D02*
X430000D01*
X386840Y231590D02*
X388810D01*
X378970Y225690D02*
X378995Y225715D01*
X388753Y202087D02*
X388760Y202080D01*
X398401Y204034D02*
X398568Y203867D01*
X394670Y202080D02*
X396640D01*
X388700Y203800D02*
X388753Y203747D01*
X386619Y203934D02*
X386705Y203848D01*
X388753Y202087D02*
Y203747D01*
X392690Y202080D02*
X394670D01*
X380785Y225715D02*
X380800Y225700D01*
X396640Y202080D02*
X398590D01*
X378995Y225715D02*
X380785D01*
X384858Y230058D02*
Y231578D01*
X396690Y231590D02*
X398660D01*
X386705Y202165D02*
Y203848D01*
X384800Y230000D02*
X384858Y230058D01*
Y231578D02*
X384870Y231590D01*
X386705Y202165D02*
X386790Y202080D01*
X398568Y202102D02*
X398590Y202080D01*
X392668Y202102D02*
X392690Y202080D01*
X398568Y202102D02*
Y203867D01*
X455826Y289680D02*
Y297015D01*
X455500Y289354D02*
X455826Y289680D01*
X424760Y183646D02*
Y184000D01*
X405500Y292500D02*
X408646Y289354D01*
X376635Y230695D02*
X376720Y230610D01*
X371585Y226670D02*
X376720D01*
X355000Y245500D02*
X371775Y228725D01*
X376635D01*
X298397Y251936D02*
Y257781D01*
X298299Y251839D02*
X298397Y251936D01*
X283652Y226118D02*
Y231494D01*
X283500Y231646D02*
X283652Y231494D01*
X292500Y231842D02*
X292561Y231781D01*
X302152D01*
X393009Y336400D02*
X396100D01*
X398000Y334500D01*
X387500Y345197D02*
X387597Y345100D01*
X387500Y345197D02*
Y351000D01*
X387300Y336400D02*
X387400Y336300D01*
Y327600D02*
Y336300D01*
X387300Y336400D02*
X387597Y336697D01*
Y345100D01*
X408173Y340491D02*
X411126D01*
Y335126D02*
Y340491D01*
X403600Y327600D02*
X411126Y335126D01*
X393109Y327600D02*
X403600D01*
X393109D02*
Y336300D01*
X393009Y336400D02*
X393109Y336300D01*
X392912Y344903D02*
X397322Y340493D01*
X401671D01*
X392912Y344903D02*
Y345100D01*
X401671Y339670D02*
Y340493D01*
X399586Y352463D02*
X401480D01*
Y344474D02*
X401768Y344187D01*
X399000Y345060D02*
X399586Y344474D01*
X401480D01*
X399000Y351877D02*
X399586Y352463D01*
X399000Y345060D02*
Y351877D01*
X401480Y352463D02*
X401768Y352750D01*
X396260Y311000D02*
X402500D01*
X406500Y280630D02*
X409516Y283646D01*
X414000D01*
X439260Y311000D02*
X445689D01*
X455500Y278000D02*
Y283646D01*
X414500Y230000D02*
X414646Y230146D01*
X419000D01*
X424657Y243000D02*
Y248342D01*
X434000Y242657D02*
X434342Y243000D01*
X434000Y236854D02*
Y242657D01*
X433000Y235854D02*
X434000Y236854D01*
X433026Y215212D02*
X436708D01*
X426000Y217146D02*
X431093D01*
X433026Y215212D01*
X402208Y191062D02*
Y196712D01*
X402146Y191000D02*
X402208Y191062D01*
X411125Y362163D02*
X411165Y362203D01*
X414083Y365546D02*
X414089Y365552D01*
X414083Y362169D02*
Y365546D01*
X414077Y362163D02*
X414083Y362169D01*
X417016Y365585D02*
X417138Y365708D01*
X293508Y343992D02*
Y357308D01*
X271047Y257426D02*
X307500Y293879D01*
X202430Y262570D02*
X263674D01*
X293508Y357308D02*
X362500Y426300D01*
Y426300D01*
X278897Y309651D02*
Y313603D01*
X272000Y320500D02*
X278897Y313603D01*
X417016Y362171D02*
X417026Y362161D01*
X417016Y362171D02*
Y365585D01*
X326000Y143500D02*
X333000Y150500D01*
X292280Y173814D02*
X296989Y178523D01*
X292280Y157138D02*
Y173814D01*
X298299Y244161D02*
X298360Y244101D01*
Y239021D02*
Y244101D01*
X292500Y235972D02*
Y245000D01*
X292000Y264158D02*
X299843D01*
X309500Y254500D01*
X283500Y237354D02*
Y245000D01*
X276008Y248972D02*
X279528D01*
X283500Y245000D01*
X275701Y249279D02*
X276008Y248972D01*
X284197Y264158D02*
X288000Y260354D01*
Y229000D02*
Y260354D01*
X284000Y264158D02*
X284197D01*
X288000Y229000D02*
X293000Y224000D01*
X292500Y245000D02*
X294220Y246721D01*
X294500Y249500D02*
X298079D01*
X298299Y249279D01*
X292000Y252000D02*
X294500Y249500D01*
X292000Y252000D02*
Y258842D01*
X325757Y208950D02*
X376720D01*
X325287Y208480D02*
X325757Y208950D01*
X170000Y295000D02*
X202430Y262570D01*
X120000Y295000D02*
X170000D01*
X126926Y298970D02*
X127418D01*
X117500Y297500D02*
X120000Y295000D01*
X117500Y297500D02*
Y303000D01*
X121344Y306844D01*
X126926D01*
X355140Y214860D02*
X376720D01*
X354212Y212890D02*
X376720D01*
X293000Y224000D02*
X343102D01*
X354212Y212890D01*
X275421Y247000D02*
X275701Y246721D01*
X415118Y222854D02*
X419000D01*
X410740Y226650D02*
X410825Y226565D01*
X421461Y226000D02*
X425803Y230343D01*
X294220Y246721D02*
X298299D01*
X275701Y251839D02*
X282339D01*
X284343Y253842D02*
Y259000D01*
X282339Y251839D02*
X284343Y253842D01*
X308028Y148772D02*
X313300Y143500D01*
X308028Y148772D02*
Y149264D01*
X313300Y143500D02*
X326000D01*
X315902Y149264D02*
Y149756D01*
X239000Y382000D02*
X242500Y385500D01*
Y389500D01*
X195000Y382000D02*
X239000D01*
X172500Y416000D02*
X199348Y389152D01*
X220397D01*
X172500Y416000D02*
Y426300D01*
X162500Y414500D02*
X195000Y382000D01*
X162500Y414500D02*
Y426300D01*
X212500Y435513D02*
Y436300D01*
X393760Y277646D02*
X399640Y271765D01*
Y233830D02*
Y271765D01*
X393760Y277646D02*
Y278000D01*
X397670Y233830D02*
Y266216D01*
X386240Y277646D02*
Y278000D01*
Y277646D02*
X397670Y266216D01*
X436854Y272146D02*
Y281000D01*
X431146Y270854D02*
Y281000D01*
X395640Y179360D02*
Y199830D01*
X438224Y281000D02*
X446260D01*
X438000Y281224D02*
Y288146D01*
X446260Y281000D02*
X447000Y281740D01*
X438000Y281224D02*
X438224Y281000D01*
X405500Y165500D02*
X442500D01*
X393670Y177330D02*
X405500Y165500D01*
X393670Y177330D02*
Y199830D01*
X407440Y191414D02*
X407854Y191000D01*
Y183000D02*
Y191000D01*
Y183000D02*
X416240D01*
X407440Y191414D02*
Y199830D01*
X424657Y243000D02*
X434342D01*
X430000Y282146D02*
X430406Y281740D01*
X430573Y281573D01*
X447000Y289260D02*
X454906D01*
X421906Y289354D02*
X422000Y289260D01*
X430000Y282146D02*
Y288146D01*
X435854Y318803D02*
Y319000D01*
X434000Y304508D02*
Y316949D01*
Y304508D02*
X437508Y301000D01*
X434000Y316949D02*
X435854Y318803D01*
X437508Y301000D02*
X439260D01*
X431488Y300169D02*
X437803Y293854D01*
X426740Y301000D02*
X427571Y300169D01*
X431488D01*
X437803Y293854D02*
X438000D01*
X417500Y309500D02*
X419000Y311000D01*
X426740D01*
X417500Y298500D02*
Y309500D01*
Y298500D02*
X422146Y293854D01*
X430000D01*
X393760Y278000D02*
X394000Y278240D01*
Y287146D01*
X386000Y278240D02*
X386240Y278000D01*
X386000Y278240D02*
Y287146D01*
X390500Y296354D02*
Y305992D01*
X383740Y311000D02*
X385492D01*
X390500Y305992D01*
X392433Y294224D02*
Y294421D01*
X390500Y296354D02*
X392433Y294421D01*
X393803Y292854D02*
X394000D01*
X392433Y294224D02*
X393803Y292854D01*
X384433Y294224D02*
Y294421D01*
X383740Y295114D02*
X384433Y294421D01*
X385803Y292854D02*
X386000D01*
X384433Y294224D02*
X385803Y292854D01*
X383740Y295114D02*
Y301000D01*
X419980Y323520D02*
Y340489D01*
X424500Y319000D02*
X430146D01*
X419980Y323520D02*
X424500Y319000D01*
X392854D02*
X406000D01*
X414079Y327079D02*
Y340491D01*
X406000Y319000D02*
X414079Y327079D01*
X394508Y301000D02*
X396260D01*
X393512Y301996D02*
X394508Y301000D01*
X401671Y383460D02*
X403703Y385491D01*
X403900D01*
X419354Y385746D02*
X420509Y386900D01*
X419154Y385946D02*
X419354Y385746D01*
X403900Y391200D02*
X404097D01*
X412698Y384798D02*
X413391Y385491D01*
X413646Y385746D01*
X419354D02*
X420217Y384883D01*
X442760Y209000D02*
Y221000D01*
X425803Y230343D02*
X426000D01*
X416240Y183000D02*
X417240Y184000D01*
X402146Y183000D02*
Y191000D01*
X419000Y195146D02*
X427000D01*
X428567Y199437D02*
X431004Y197000D01*
X428567Y199437D02*
Y199484D01*
X427197Y200854D02*
X428567Y199484D01*
X427000Y200854D02*
X427197D01*
X431004Y197000D02*
X435240D01*
X419000Y217146D02*
X426000D01*
X433386Y222854D02*
X435240Y221000D01*
X426000Y222854D02*
X433386D01*
X433004Y211591D02*
X435240Y209354D01*
X419000Y222854D02*
X426000D01*
X440000Y235854D02*
Y242657D01*
X439657Y243000D02*
X440000Y242657D01*
X433000Y230146D02*
X440000D01*
X432803Y230343D02*
X433000Y230146D01*
X426000Y230343D02*
X432803D01*
X419000Y235854D02*
X419197Y235658D01*
X426000D01*
X411125Y230685D02*
Y230985D01*
X411040Y230600D02*
X411125Y230685D01*
X415994Y235854D02*
X419000D01*
X411125Y230985D02*
X415994Y235854D01*
X410740Y230600D02*
X411040D01*
X415500Y243000D02*
X419343D01*
X414000Y241500D02*
X415500Y243000D01*
X406540Y231590D02*
X406625Y231675D01*
X292280Y149264D02*
Y149756D01*
X260784Y149264D02*
Y149756D01*
X229288Y157138D02*
Y157630D01*
X221414Y149264D02*
Y149756D01*
X205666Y157138D02*
Y157630D01*
X323776Y275348D02*
X324269D01*
X339000Y260617D01*
X324269Y283222D02*
X341073Y266418D01*
X323776Y283222D02*
X324269D01*
X344500Y244000D02*
X367740Y220760D01*
X376720D01*
X316394Y291096D02*
X319990Y287501D01*
X315902Y291096D02*
X316394D01*
X315902Y298970D02*
X316394D01*
X319990Y295375D01*
X315902Y330466D02*
X316394D01*
X319990Y326871D01*
X376635Y228725D02*
X376720Y228640D01*
D15*
X402570Y227630D02*
Y231570D01*
X377544Y201000D02*
X378624Y202080D01*
X415500Y212842D02*
Y216000D01*
X410740Y216810D02*
X414690D01*
X415500Y212842D02*
X419146Y209197D01*
X378624Y202080D02*
X380890D01*
D16*
X194000Y257000D02*
D03*
X199709D02*
D03*
X246145Y303386D02*
D03*
X251853D02*
D03*
X227854Y327000D02*
D03*
X222146D02*
D03*
X267146Y294000D02*
D03*
X272854D02*
D03*
X435854Y319000D02*
D03*
X430146D02*
D03*
X392854D02*
D03*
X387146D02*
D03*
X368146Y193000D02*
D03*
X373854D02*
D03*
X369354Y243500D02*
D03*
X363646D02*
D03*
X392912Y345100D02*
D03*
X387597D02*
D03*
X387300Y336400D02*
D03*
X393009D02*
D03*
X387400Y327600D02*
D03*
X393109D02*
D03*
X402146Y183000D02*
D03*
X407854D02*
D03*
X402146Y191000D02*
D03*
X407854D02*
D03*
X424854Y209000D02*
D03*
X419146D02*
D03*
X439657Y243000D02*
D03*
X434342D02*
D03*
X419343D02*
D03*
X424657D02*
D03*
X419354Y385746D02*
D03*
X413646D02*
D03*
X419154Y394100D02*
D03*
X413446D02*
D03*
X431146Y281000D02*
D03*
X436854D02*
D03*
D17*
X394200Y127683D02*
D03*
D18*
X413000Y135146D02*
D03*
Y140854D02*
D03*
X375600Y135246D02*
D03*
Y140954D02*
D03*
X449800Y348900D02*
D03*
Y354609D02*
D03*
X292500Y231842D02*
D03*
Y237158D02*
D03*
X284000Y264158D02*
D03*
Y258842D02*
D03*
X292000Y264158D02*
D03*
Y258842D02*
D03*
X440900Y348900D02*
D03*
Y354609D02*
D03*
X431500Y348800D02*
D03*
Y354509D02*
D03*
X427000Y195146D02*
D03*
Y200854D02*
D03*
X381000Y184146D02*
D03*
Y189854D02*
D03*
X419000Y195146D02*
D03*
Y200854D02*
D03*
Y217146D02*
D03*
Y222854D02*
D03*
X426000Y217146D02*
D03*
Y222854D02*
D03*
X440000Y235854D02*
D03*
Y230146D02*
D03*
X426000Y230343D02*
D03*
Y235658D02*
D03*
X433000Y235854D02*
D03*
Y230146D02*
D03*
X283500Y237354D02*
D03*
Y231646D02*
D03*
X419000Y235854D02*
D03*
Y230146D02*
D03*
X403900Y385491D02*
D03*
Y391200D02*
D03*
X394000Y287146D02*
D03*
Y292854D02*
D03*
X414000Y289354D02*
D03*
Y283646D02*
D03*
X430000Y293854D02*
D03*
Y288146D02*
D03*
X455500Y283646D02*
D03*
Y289354D02*
D03*
X386000Y292854D02*
D03*
Y287146D02*
D03*
X438000Y288146D02*
D03*
Y293854D02*
D03*
X388000Y184146D02*
D03*
Y189854D02*
D03*
D19*
X385145Y150517D02*
D03*
X394200D02*
D03*
X403255D02*
D03*
D20*
X439260Y311000D02*
D03*
Y301000D02*
D03*
X426740D02*
D03*
Y306000D02*
D03*
Y311000D02*
D03*
X396260D02*
D03*
Y301000D02*
D03*
X383740D02*
D03*
Y306000D02*
D03*
Y311000D02*
D03*
D21*
X405219Y362163D02*
D03*
X408172D02*
D03*
X411125D02*
D03*
X414077D02*
D03*
X417026Y362161D02*
D03*
X419979D02*
D03*
X405220Y340491D02*
D03*
X408173D02*
D03*
X411126D02*
D03*
X414079D02*
D03*
X417027Y340489D02*
D03*
X419980D02*
D03*
D22*
X401671Y340493D02*
D03*
X401671Y362161D02*
D03*
X423520Y362161D02*
D03*
X423521Y340489D02*
D03*
D23*
X401768Y358459D02*
D03*
Y344187D02*
D03*
Y355604D02*
D03*
Y352750D02*
D03*
Y349896D02*
D03*
Y347041D02*
D03*
X423418Y349900D02*
D03*
Y352754D02*
D03*
Y355609D02*
D03*
Y344191D02*
D03*
X423420Y358458D02*
D03*
X423418Y347046D02*
D03*
D24*
X418500Y345426D02*
D03*
Y349363D02*
D03*
Y353300D02*
D03*
Y357237D02*
D03*
X406689Y345426D02*
D03*
Y349363D02*
D03*
Y353300D02*
D03*
Y357237D02*
D03*
X410626Y345426D02*
D03*
Y349363D02*
D03*
Y353300D02*
D03*
Y357237D02*
D03*
X414563Y349363D02*
D03*
Y353300D02*
D03*
Y357237D02*
D03*
Y345426D02*
D03*
D25*
X404570Y231590D02*
D03*
X406540D02*
D03*
X402590D02*
D03*
X400620D02*
D03*
X398660D02*
D03*
X396690D02*
D03*
X394720D02*
D03*
X392760D02*
D03*
X390790D02*
D03*
X388810D02*
D03*
X386840D02*
D03*
X384870D02*
D03*
X382920D02*
D03*
X380940D02*
D03*
X404510Y202080D02*
D03*
X406470D02*
D03*
X402540D02*
D03*
X400570D02*
D03*
X398590D02*
D03*
X396640D02*
D03*
X394670D02*
D03*
X392690D02*
D03*
X390720D02*
D03*
X388760D02*
D03*
X386790D02*
D03*
X384810D02*
D03*
X382860D02*
D03*
X380890D02*
D03*
D26*
X407510Y233830D02*
D03*
X405540D02*
D03*
X403590D02*
D03*
X401620D02*
D03*
X399640D02*
D03*
X397670D02*
D03*
X395710D02*
D03*
X393740D02*
D03*
X391770D02*
D03*
X389810D02*
D03*
X387840D02*
D03*
X385870D02*
D03*
X383890D02*
D03*
X381920D02*
D03*
X407440Y199830D02*
D03*
X405470D02*
D03*
X403520D02*
D03*
X401560D02*
D03*
X399590D02*
D03*
X397620D02*
D03*
X395640D02*
D03*
X393670D02*
D03*
X391710Y199840D02*
D03*
X389740Y199830D02*
D03*
X387770D02*
D03*
X385810D02*
D03*
X383840D02*
D03*
X381870D02*
D03*
X379890D02*
D03*
D27*
X410740Y230600D02*
D03*
Y228610D02*
D03*
Y226650D02*
D03*
Y224680D02*
D03*
Y222710D02*
D03*
Y220750D02*
D03*
X410720Y218780D02*
D03*
X410740Y216810D02*
D03*
Y214850D02*
D03*
Y212860D02*
D03*
Y210910D02*
D03*
Y208930D02*
D03*
Y206960D02*
D03*
Y205010D02*
D03*
Y203130D02*
D03*
X376720Y230610D02*
D03*
Y228640D02*
D03*
Y226670D02*
D03*
Y224700D02*
D03*
Y222730D02*
D03*
Y220760D02*
D03*
Y218800D02*
D03*
Y216830D02*
D03*
Y214860D02*
D03*
Y212890D02*
D03*
Y210920D02*
D03*
Y208950D02*
D03*
Y206980D02*
D03*
Y205030D02*
D03*
Y203060D02*
D03*
D28*
X408490Y229600D02*
D03*
Y227630D02*
D03*
Y225680D02*
D03*
Y223700D02*
D03*
Y221730D02*
D03*
Y219760D02*
D03*
Y217800D02*
D03*
Y215810D02*
D03*
Y213860D02*
D03*
Y211900D02*
D03*
Y209910D02*
D03*
Y207950D02*
D03*
Y204010D02*
D03*
Y205980D02*
D03*
X378970Y229620D02*
D03*
Y227650D02*
D03*
Y225690D02*
D03*
Y223720D02*
D03*
Y221750D02*
D03*
Y219780D02*
D03*
Y217810D02*
D03*
Y215840D02*
D03*
Y213870D02*
D03*
Y211910D02*
D03*
Y209940D02*
D03*
Y207970D02*
D03*
Y204030D02*
D03*
Y206000D02*
D03*
D29*
X379950Y233830D02*
D03*
D30*
X393720Y216830D02*
D03*
D31*
X424760Y184000D02*
D03*
X417240D02*
D03*
X373760Y185500D02*
D03*
X366240D02*
D03*
X435240Y197000D02*
D03*
X442760D02*
D03*
X435240Y209000D02*
D03*
X442760D02*
D03*
X435240Y221000D02*
D03*
X442760D02*
D03*
X412698Y375046D02*
D03*
X420217D02*
D03*
D32*
X275701Y244161D02*
D03*
Y246721D02*
D03*
Y249279D02*
D03*
Y251839D02*
D03*
X298299D02*
D03*
Y249279D02*
D03*
Y246721D02*
D03*
Y244161D02*
D03*
D33*
X447000Y289260D02*
D03*
Y281740D02*
D03*
X422000D02*
D03*
Y289260D02*
D03*
D60*
X389810Y233830D02*
X389943Y233245D01*
Y233139D02*
X390110Y232733D01*
X390537Y231695D02*
X390767Y231600D01*
X390790Y231590D01*
X389943Y233139D02*
Y233245D01*
X390110Y232733D02*
X390295Y232548D01*
Y232284D02*
Y232548D01*
Y232284D02*
X390537Y231695D01*
X392255Y232572D02*
X392782Y232045D01*
X391770Y233530D02*
X392255Y233045D01*
X391770Y233530D02*
Y233830D01*
X392255Y232572D02*
Y233045D01*
X408659Y229386D02*
X410316Y228704D01*
X409105Y225368D02*
X410155Y224936D01*
X408490Y225680D02*
X408775Y225473D01*
X408851D01*
X409105Y225368D01*
X410155Y224936D02*
X410740Y224680D01*
X409965Y216335D02*
X410440Y216810D01*
X409242Y216095D02*
X409482Y216335D01*
X408490Y215810D02*
X408775Y216095D01*
X410440Y216810D02*
X410740D01*
X408775Y216095D02*
X409242D01*
X409482Y216335D02*
X409965D01*
X385525Y200115D02*
Y200902D01*
X385305Y201122D02*
Y201585D01*
X384810Y202080D02*
X385305Y201585D01*
Y201122D02*
X385525Y200902D01*
Y200115D02*
X385810Y199830D01*
X408471Y221776D02*
X410740Y222710D01*
X408490Y206038D02*
X410739Y206964D01*
X403589Y233865D02*
X404523Y231596D01*
X383984Y233653D02*
X384919Y231384D01*
X400704Y231684D02*
X401386Y233341D01*
D61*
X413353Y394193D02*
Y399580D01*
X401671Y362161D02*
Y383460D01*
X420509Y386900D02*
X452742D01*
X419154Y385946D02*
Y394100D01*
X404097Y391200D02*
X406997Y394100D01*
X413446D01*
X403900Y385491D02*
X413391D01*
X420217Y375046D02*
Y384883D01*
X412698Y375046D02*
Y384798D01*
D62*
X383936Y233484D02*
X384180Y233240D01*
X383910Y233484D02*
X383936D01*
D63*
X432500Y465300D02*
Y470000D01*
Y456300D02*
Y465300D01*
X445000Y109800D02*
Y118800D01*
Y105000D02*
Y109800D01*
X130000D02*
Y118800D01*
Y105000D02*
Y109800D01*
D64*
X402000Y130500D02*
D03*
D65*
X394250Y140250D02*
D03*
D66*
X423750Y351500D02*
D03*
D67*
X438000Y354500D02*
D03*
D68*
X412500Y351500D02*
D03*
D69*
X445000Y118800D02*
D03*
X130000D02*
D03*
X432500Y456300D02*
D03*
X142500D02*
D03*
D70*
X134800Y267474D02*
D03*
X323776Y354088D02*
D03*
X315902D02*
D03*
X323776Y330466D02*
D03*
Y322592D02*
D03*
Y314718D02*
D03*
Y306844D02*
D03*
Y298970D02*
D03*
Y291096D02*
D03*
Y283222D02*
D03*
Y275348D02*
D03*
Y259600D02*
D03*
Y251726D02*
D03*
Y243852D02*
D03*
Y235978D02*
D03*
Y228104D02*
D03*
Y220230D02*
D03*
Y212356D02*
D03*
Y204482D02*
D03*
Y196608D02*
D03*
Y188734D02*
D03*
X315902D02*
D03*
Y196608D02*
D03*
Y204482D02*
D03*
Y212356D02*
D03*
Y220230D02*
D03*
Y228104D02*
D03*
Y235978D02*
D03*
Y243852D02*
D03*
Y251726D02*
D03*
Y259600D02*
D03*
Y267474D02*
D03*
Y275348D02*
D03*
Y283222D02*
D03*
Y291096D02*
D03*
Y298970D02*
D03*
Y306844D02*
D03*
Y314718D02*
D03*
Y322592D02*
D03*
Y330466D02*
D03*
Y346214D02*
D03*
Y338340D02*
D03*
X323776D02*
D03*
Y346214D02*
D03*
X134800D02*
D03*
Y338340D02*
D03*
X126926D02*
D03*
Y346214D02*
D03*
Y330466D02*
D03*
Y322592D02*
D03*
Y314718D02*
D03*
Y306844D02*
D03*
Y298970D02*
D03*
Y291096D02*
D03*
Y283222D02*
D03*
Y275348D02*
D03*
Y259600D02*
D03*
Y251726D02*
D03*
Y243852D02*
D03*
Y235978D02*
D03*
Y228104D02*
D03*
Y220230D02*
D03*
Y212356D02*
D03*
Y204482D02*
D03*
Y196608D02*
D03*
Y188734D02*
D03*
X134800D02*
D03*
Y196608D02*
D03*
Y204482D02*
D03*
Y212356D02*
D03*
Y220230D02*
D03*
Y228104D02*
D03*
Y235978D02*
D03*
Y243852D02*
D03*
Y251726D02*
D03*
Y259600D02*
D03*
Y275348D02*
D03*
Y283222D02*
D03*
Y291096D02*
D03*
Y298970D02*
D03*
Y306844D02*
D03*
Y314718D02*
D03*
Y322592D02*
D03*
Y330466D02*
D03*
X126926Y354088D02*
D03*
X134800D02*
D03*
X323776Y267474D02*
D03*
Y180860D02*
D03*
X315902D02*
D03*
X126926Y267474D02*
D03*
Y180860D02*
D03*
X134800D02*
D03*
D71*
X323776Y149264D02*
D03*
X315902D02*
D03*
X308028D02*
D03*
X300154D02*
D03*
X292280D02*
D03*
X284406D02*
D03*
X276532D02*
D03*
X268658D02*
D03*
X260784D02*
D03*
X252910D02*
D03*
X245036D02*
D03*
X237162D02*
D03*
X229288D02*
D03*
X221414D02*
D03*
X213540D02*
D03*
X205666D02*
D03*
Y157138D02*
D03*
X213540D02*
D03*
X221414D02*
D03*
X229288D02*
D03*
X237162D02*
D03*
X245036D02*
D03*
X252910D02*
D03*
X260784D02*
D03*
X268658D02*
D03*
X276532D02*
D03*
X284406D02*
D03*
X292280D02*
D03*
X300154D02*
D03*
X308028D02*
D03*
X315902D02*
D03*
X323776D02*
D03*
D72*
X412500Y456300D02*
D03*
X402500D02*
D03*
X392500D02*
D03*
X382500D02*
D03*
X372500D02*
D03*
X362500D02*
D03*
X352500D02*
D03*
X342500D02*
D03*
X332500D02*
D03*
X322500D02*
D03*
X312500D02*
D03*
X302500D02*
D03*
X292500D02*
D03*
X282500D02*
D03*
X272500D02*
D03*
X262500D02*
D03*
X252500D02*
D03*
X242500D02*
D03*
X232500D02*
D03*
X222500D02*
D03*
X212500D02*
D03*
X202500D02*
D03*
X192500D02*
D03*
X182500D02*
D03*
X172500D02*
D03*
X162500D02*
D03*
X412500Y446300D02*
D03*
X402500D02*
D03*
X392500D02*
D03*
X382500D02*
D03*
X372500D02*
D03*
X362500D02*
D03*
X352500D02*
D03*
X342500D02*
D03*
X332500D02*
D03*
X322500D02*
D03*
X312500D02*
D03*
X302500D02*
D03*
X292500D02*
D03*
X282500D02*
D03*
X272500D02*
D03*
X262500D02*
D03*
X252500D02*
D03*
X242500D02*
D03*
X232500D02*
D03*
X222500D02*
D03*
X212500D02*
D03*
X202500D02*
D03*
X192500D02*
D03*
X182500D02*
D03*
X172500D02*
D03*
X162500D02*
D03*
X412500Y436300D02*
D03*
X402500D02*
D03*
X392500D02*
D03*
X382500D02*
D03*
X372500D02*
D03*
X362500D02*
D03*
X352500D02*
D03*
X342500D02*
D03*
X332500D02*
D03*
X322500D02*
D03*
X312500D02*
D03*
X302500D02*
D03*
X292500D02*
D03*
X282500D02*
D03*
X272500D02*
D03*
X262500D02*
D03*
X252500D02*
D03*
X242500D02*
D03*
X232500D02*
D03*
X222500D02*
D03*
X212500D02*
D03*
X202500D02*
D03*
X192500D02*
D03*
X182500D02*
D03*
X172500D02*
D03*
X162500D02*
D03*
X412500Y426300D02*
D03*
X402500D02*
D03*
X392500D02*
D03*
X382500D02*
D03*
X372500D02*
D03*
X362500D02*
D03*
X352500D02*
D03*
X342500D02*
D03*
X332500D02*
D03*
X322500D02*
D03*
X312500D02*
D03*
X302500D02*
D03*
X292500D02*
D03*
X282500D02*
D03*
X272500D02*
D03*
X262500D02*
D03*
X252500D02*
D03*
X242500D02*
D03*
X232500D02*
D03*
X222500D02*
D03*
X212500D02*
D03*
X202500D02*
D03*
X192500D02*
D03*
X182500D02*
D03*
X172500D02*
D03*
D73*
X162500D02*
D03*
D74*
X462743Y396900D02*
D03*
X442742D02*
D03*
Y376900D02*
D03*
X462743D02*
D03*
X452742Y386900D02*
D03*
D75*
X114600Y419700D02*
D03*
Y409700D02*
D03*
Y389700D02*
D03*
Y379700D02*
D03*
Y369700D02*
D03*
Y399700D02*
D03*
X114900Y433300D02*
D03*
X144900D02*
D03*
X134900D02*
D03*
X124900D02*
D03*
D76*
X381053Y217645D02*
D03*
X407154Y227762D02*
D03*
D77*
X380462Y215752D02*
D03*
X381015Y213768D02*
D03*
X380611Y211827D02*
D03*
X381015Y209880D02*
D03*
Y207897D02*
D03*
X380751Y205933D02*
D03*
X380839Y203952D02*
D03*
X380833Y219804D02*
D03*
X381005Y221780D02*
D03*
X406425Y208001D02*
D03*
Y210014D02*
D03*
Y211996D02*
D03*
X406483Y219736D02*
D03*
X406447Y221718D02*
D03*
X394819Y229787D02*
D03*
X392826Y229750D02*
D03*
X390774Y229728D02*
D03*
X388678Y229714D02*
D03*
X396978Y143803D02*
D03*
X397004Y139781D02*
D03*
X391276Y139883D02*
D03*
X391378Y143625D02*
D03*
X398547Y204040D02*
D03*
X380855Y227742D02*
D03*
X381297Y229718D02*
D03*
X380846Y223756D02*
D03*
X406445Y214002D02*
D03*
X406933Y217737D02*
D03*
X406425Y225919D02*
D03*
X406447Y223740D02*
D03*
X404357Y229899D02*
D03*
X406356Y229710D02*
D03*
X384500Y219451D02*
D03*
X432000Y170787D02*
D03*
X448126Y191462D02*
D03*
X412104Y201110D02*
D03*
X371291Y195613D02*
D03*
X414689Y225952D02*
D03*
X176000Y145000D02*
D03*
X177000Y140000D02*
D03*
X396702Y133113D02*
D03*
X391702D02*
D03*
X369000D02*
D03*
X424000Y144000D02*
D03*
X346000Y203000D02*
D03*
X289000Y284000D02*
D03*
X263685Y265154D02*
D03*
X274989Y311720D02*
D03*
X232500Y341500D02*
D03*
X236000Y341378D02*
D03*
X238634Y341372D02*
D03*
X174000Y342000D02*
D03*
X359500Y191000D02*
D03*
X369059Y225546D02*
D03*
X355197Y226697D02*
D03*
X368478Y237596D02*
D03*
X156000Y293000D02*
D03*
X211000Y342000D02*
D03*
X220000Y349000D02*
D03*
X206000Y364000D02*
D03*
X274038Y347337D02*
D03*
X274000Y356000D02*
D03*
X162000Y326000D02*
D03*
X252747Y226687D02*
D03*
X274000Y227000D02*
D03*
X278705Y237800D02*
D03*
X243722Y226194D02*
D03*
X247588Y237998D02*
D03*
X263790Y286210D02*
D03*
X275448Y307847D02*
D03*
X260292Y329537D02*
D03*
X275093Y284248D02*
D03*
X263674Y262570D02*
D03*
X190377Y261453D02*
D03*
X278897Y309651D02*
D03*
X193377Y283953D02*
D03*
X274897Y302151D02*
D03*
X190981Y305848D02*
D03*
X206500Y394000D02*
D03*
X203169Y245325D02*
D03*
X205045Y257300D02*
D03*
X209096Y259904D02*
D03*
X211153Y257426D02*
D03*
X232728Y255210D02*
D03*
X258895Y305895D02*
D03*
X263377Y303953D02*
D03*
X172607Y243877D02*
D03*
X166682Y243861D02*
D03*
X168263Y309445D02*
D03*
X157500Y262000D02*
D03*
X170000Y297500D02*
D03*
X174000Y309500D02*
D03*
X176500Y204000D02*
D03*
X417500Y141000D02*
D03*
X452202Y235462D02*
D03*
X368739Y140925D02*
D03*
X413353Y399580D02*
D03*
X408138Y367263D02*
D03*
X410503Y366170D02*
D03*
X335000Y369000D02*
D03*
X330000Y368500D02*
D03*
X345000D02*
D03*
X457000Y349000D02*
D03*
X453540Y353549D02*
D03*
X453555Y355767D02*
D03*
X445431Y353468D02*
D03*
X445413Y355763D02*
D03*
X436039Y353450D02*
D03*
X436021Y355816D02*
D03*
X400647Y229740D02*
D03*
X408405Y236589D02*
D03*
X405498Y236632D02*
D03*
X398573Y229739D02*
D03*
X384500Y225951D02*
D03*
X400920Y215995D02*
D03*
X403500Y219500D02*
D03*
X403426Y207327D02*
D03*
X388263Y207296D02*
D03*
X391980Y207351D02*
D03*
X395863Y207323D02*
D03*
X399470D02*
D03*
X386500Y209951D02*
D03*
X390336Y209969D02*
D03*
X394054Y210024D02*
D03*
X397936Y209996D02*
D03*
X401544D02*
D03*
X403500Y213000D02*
D03*
X388336Y212969D02*
D03*
X392054Y213024D02*
D03*
X395936Y212996D02*
D03*
X399544D02*
D03*
X386500Y215951D02*
D03*
X390336Y215969D02*
D03*
X394054Y216024D02*
D03*
X397936Y215996D02*
D03*
X388336Y219469D02*
D03*
X392054Y219524D02*
D03*
X395936Y219496D02*
D03*
X399544D02*
D03*
X386500Y222451D02*
D03*
X390336Y222469D02*
D03*
X394054Y222524D02*
D03*
X397936Y222496D02*
D03*
X401544D02*
D03*
X399544Y225996D02*
D03*
X395936D02*
D03*
X392054Y226024D02*
D03*
X388336Y225969D02*
D03*
X403500Y226000D02*
D03*
X384500Y212951D02*
D03*
X384426Y207277D02*
D03*
X418623Y345370D02*
D03*
X414601Y345405D02*
D03*
X410664Y345473D02*
D03*
X406694Y345508D02*
D03*
X408602Y347381D02*
D03*
X412590Y347330D02*
D03*
X416560Y347347D02*
D03*
X418571Y349402D02*
D03*
X414618Y349324D02*
D03*
X410696Y349386D02*
D03*
X406679Y349355D02*
D03*
X408680Y351340D02*
D03*
X412571Y351324D02*
D03*
X416540Y351355D02*
D03*
X418462Y353387D02*
D03*
X414493Y353231D02*
D03*
X410649Y353246D02*
D03*
X406742D02*
D03*
X416602Y355324D02*
D03*
X412618Y355309D02*
D03*
X408680Y355239D02*
D03*
X418431Y357176D02*
D03*
X414599Y357199D02*
D03*
X410627Y357176D02*
D03*
X406644Y357187D02*
D03*
X447877Y184953D02*
D03*
X431890Y189256D02*
D03*
X431877Y176453D02*
D03*
X415000Y160500D02*
D03*
X414443Y173838D02*
D03*
X207877Y226953D02*
D03*
X204913Y166725D02*
D03*
X413713Y215017D02*
D03*
X429307Y210336D02*
D03*
X413713Y212942D02*
D03*
X413659Y210868D02*
D03*
X413500Y220213D02*
D03*
X345410Y213531D02*
D03*
X347410Y228531D02*
D03*
X358000Y251000D02*
D03*
X377500Y256000D02*
D03*
X384847Y229840D02*
D03*
X380847Y225740D02*
D03*
X388747Y203940D02*
D03*
X386619Y203934D02*
D03*
X363500Y197500D02*
D03*
X455826Y297015D02*
D03*
X405500Y292500D02*
D03*
X378500Y276000D02*
D03*
X232000Y200000D02*
D03*
X298397Y257781D02*
D03*
X283652Y226118D02*
D03*
X302152Y231781D02*
D03*
X398314Y334221D02*
D03*
X387500Y351000D02*
D03*
X398500Y380000D02*
D03*
X387867Y374212D02*
D03*
X401652Y257781D02*
D03*
X416052Y251881D02*
D03*
X445950Y251450D02*
D03*
X433152Y225781D02*
D03*
X461000Y217500D02*
D03*
X362870Y166786D02*
D03*
X214000Y375000D02*
D03*
X255902Y361031D02*
D03*
X264000Y227311D02*
D03*
X184307Y227781D02*
D03*
X402500Y311000D02*
D03*
X406500Y280630D02*
D03*
X445689Y311000D02*
D03*
X455462Y278020D02*
D03*
X402211Y196880D02*
D03*
X424693Y248489D02*
D03*
X414594Y229985D02*
D03*
X436727Y215135D02*
D03*
X388000Y176500D02*
D03*
X191000Y193000D02*
D03*
X414089Y365552D02*
D03*
X293508Y343992D02*
D03*
X417005Y365604D02*
D03*
X296989Y178523D02*
D03*
X298360Y239021D02*
D03*
X242500Y389500D02*
D03*
X220397Y389152D02*
D03*
D78*
X406041Y203865D02*
D03*
X406337Y206021D02*
D03*
M02*
