G04*
G04 #@! TF.GenerationSoftware,Altium Limited,Altium Designer,21.0.8 (223)*
G04*
G04 Layer_Color=128*
%FSLAX25Y25*%
%MOIN*%
G70*
G04*
G04 #@! TF.SameCoordinates,8C76C3ED-8D82-4A5C-AC10-AB376F5EDEF7*
G04*
G04*
G04 #@! TF.FilePolarity,Positive*
G04*
G01*
G75*
%ADD16R,0.03740X0.04134*%
%ADD18R,0.04134X0.03740*%
%ADD31R,0.05472X0.06181*%
%ADD33R,0.06181X0.05472*%
G04:AMPARAMS|DCode=86|XSize=61.42mil|YSize=11.02mil|CornerRadius=1.38mil|HoleSize=0mil|Usage=FLASHONLY|Rotation=0.000|XOffset=0mil|YOffset=0mil|HoleType=Round|Shape=RoundedRectangle|*
%AMROUNDEDRECTD86*
21,1,0.06142,0.00827,0,0,0.0*
21,1,0.05866,0.01102,0,0,0.0*
1,1,0.00276,0.02933,-0.00413*
1,1,0.00276,-0.02933,-0.00413*
1,1,0.00276,-0.02933,0.00413*
1,1,0.00276,0.02933,0.00413*
%
%ADD86ROUNDEDRECTD86*%
G04:AMPARAMS|DCode=87|XSize=61.42mil|YSize=11.02mil|CornerRadius=1.38mil|HoleSize=0mil|Usage=FLASHONLY|Rotation=90.000|XOffset=0mil|YOffset=0mil|HoleType=Round|Shape=RoundedRectangle|*
%AMROUNDEDRECTD87*
21,1,0.06142,0.00827,0,0,90.0*
21,1,0.05866,0.01102,0,0,90.0*
1,1,0.00276,0.00413,0.02933*
1,1,0.00276,0.00413,-0.02933*
1,1,0.00276,-0.00413,-0.02933*
1,1,0.00276,-0.00413,0.02933*
%
%ADD87ROUNDEDRECTD87*%
G04:AMPARAMS|DCode=88|XSize=77.56mil|YSize=23.62mil|CornerRadius=2.95mil|HoleSize=0mil|Usage=FLASHONLY|Rotation=90.000|XOffset=0mil|YOffset=0mil|HoleType=Round|Shape=RoundedRectangle|*
%AMROUNDEDRECTD88*
21,1,0.07756,0.01772,0,0,90.0*
21,1,0.07165,0.02362,0,0,90.0*
1,1,0.00591,0.00886,0.03583*
1,1,0.00591,0.00886,-0.03583*
1,1,0.00591,-0.00886,-0.03583*
1,1,0.00591,-0.00886,0.03583*
%
%ADD88ROUNDEDRECTD88*%
%ADD89R,0.05906X0.07087*%
D16*
X166646Y250500D02*
D03*
X172354D02*
D03*
X163646Y289500D02*
D03*
X169354D02*
D03*
X168000Y316500D02*
D03*
X173709D02*
D03*
X288158Y257900D02*
D03*
X282842D02*
D03*
X282643Y267900D02*
D03*
X287958D02*
D03*
X282743Y278100D02*
D03*
X288057D02*
D03*
X168146Y336000D02*
D03*
X173854D02*
D03*
X227343Y389300D02*
D03*
X232658D02*
D03*
X357354Y222000D02*
D03*
X351646D02*
D03*
X357354Y212000D02*
D03*
X351646D02*
D03*
X163842Y276000D02*
D03*
X169158D02*
D03*
X163842Y268000D02*
D03*
X169158D02*
D03*
X196709Y201000D02*
D03*
X191000D02*
D03*
X196709Y210000D02*
D03*
X191000D02*
D03*
Y228000D02*
D03*
X196709D02*
D03*
X191000Y237000D02*
D03*
X196709D02*
D03*
X191197Y219000D02*
D03*
X196512D02*
D03*
X168146Y326000D02*
D03*
X173854D02*
D03*
X386157Y191000D02*
D03*
X380842D02*
D03*
Y183000D02*
D03*
X386157D02*
D03*
X364146Y229000D02*
D03*
X369854D02*
D03*
X405546Y252100D02*
D03*
X411254D02*
D03*
X405546Y243100D02*
D03*
X411254D02*
D03*
X391546Y252100D02*
D03*
X397254D02*
D03*
X391546Y243100D02*
D03*
X397254D02*
D03*
X383254D02*
D03*
X377546D02*
D03*
X383254Y252100D02*
D03*
X377546D02*
D03*
X424646Y217500D02*
D03*
X430354D02*
D03*
X399146Y191000D02*
D03*
X404854D02*
D03*
X399146Y183000D02*
D03*
X404854D02*
D03*
X371354D02*
D03*
X365646D02*
D03*
X371354Y191000D02*
D03*
X365646D02*
D03*
D18*
X242412Y232146D02*
D03*
Y237854D02*
D03*
X268000Y350146D02*
D03*
Y355854D02*
D03*
X264000Y237657D02*
D03*
Y232343D02*
D03*
X253000Y237854D02*
D03*
Y232146D02*
D03*
X274000D02*
D03*
Y237854D02*
D03*
X214000Y354854D02*
D03*
Y349146D02*
D03*
X247000Y364342D02*
D03*
Y369657D02*
D03*
X258000Y355854D02*
D03*
Y350146D02*
D03*
X419400Y242554D02*
D03*
Y236846D02*
D03*
X427900Y242554D02*
D03*
Y236846D02*
D03*
X436200Y242554D02*
D03*
Y236846D02*
D03*
X208000Y232343D02*
D03*
Y237657D02*
D03*
X214000Y369854D02*
D03*
Y364146D02*
D03*
X232000Y232343D02*
D03*
Y237657D02*
D03*
Y208146D02*
D03*
Y213854D02*
D03*
X220000Y208146D02*
D03*
Y213854D02*
D03*
Y232343D02*
D03*
Y237657D02*
D03*
X437200Y229729D02*
D03*
Y224414D02*
D03*
X428000Y224146D02*
D03*
Y229854D02*
D03*
X420000Y224146D02*
D03*
Y229854D02*
D03*
X428000Y173646D02*
D03*
Y179354D02*
D03*
X436000Y173843D02*
D03*
Y179157D02*
D03*
X420000Y173646D02*
D03*
Y179354D02*
D03*
Y191354D02*
D03*
Y185646D02*
D03*
X436000Y191354D02*
D03*
Y185646D02*
D03*
X443000Y185843D02*
D03*
Y191157D02*
D03*
Y179354D02*
D03*
Y173646D02*
D03*
X428000Y191157D02*
D03*
Y185843D02*
D03*
X420000Y166354D02*
D03*
Y160646D02*
D03*
X428000Y166354D02*
D03*
Y160646D02*
D03*
X436000Y160843D02*
D03*
Y166157D02*
D03*
X394500Y374212D02*
D03*
Y368897D02*
D03*
X403300Y368997D02*
D03*
Y374312D02*
D03*
D31*
X446240Y227500D02*
D03*
X453760D02*
D03*
Y217500D02*
D03*
X446240D02*
D03*
X400240Y174000D02*
D03*
X407760D02*
D03*
X427260Y152500D02*
D03*
X419740D02*
D03*
X362740Y174500D02*
D03*
X370260D02*
D03*
D33*
X408400Y268860D02*
D03*
Y261340D02*
D03*
X176500Y218760D02*
D03*
Y211240D02*
D03*
X364000Y236240D02*
D03*
Y243760D02*
D03*
X445900Y245160D02*
D03*
Y237640D02*
D03*
X394400Y261340D02*
D03*
Y268860D02*
D03*
X380400Y261340D02*
D03*
Y268860D02*
D03*
D86*
X185753Y258651D02*
D03*
Y260620D02*
D03*
Y262588D02*
D03*
Y264557D02*
D03*
Y266525D02*
D03*
Y268494D02*
D03*
Y270462D02*
D03*
Y272431D02*
D03*
Y274399D02*
D03*
Y276368D02*
D03*
Y278336D02*
D03*
Y280305D02*
D03*
Y282273D02*
D03*
Y284242D02*
D03*
Y286210D02*
D03*
Y288179D02*
D03*
Y290147D02*
D03*
Y292116D02*
D03*
Y294084D02*
D03*
Y296053D02*
D03*
Y298021D02*
D03*
Y299990D02*
D03*
Y301958D02*
D03*
Y303927D02*
D03*
Y305895D02*
D03*
Y307864D02*
D03*
Y309832D02*
D03*
Y311801D02*
D03*
Y313769D02*
D03*
Y315738D02*
D03*
Y317706D02*
D03*
Y319675D02*
D03*
Y321643D02*
D03*
Y323612D02*
D03*
Y325580D02*
D03*
Y327549D02*
D03*
X269847D02*
D03*
Y325580D02*
D03*
Y323612D02*
D03*
Y321643D02*
D03*
Y319675D02*
D03*
Y317706D02*
D03*
Y315738D02*
D03*
Y313769D02*
D03*
Y311801D02*
D03*
Y309832D02*
D03*
Y307864D02*
D03*
Y305895D02*
D03*
Y303927D02*
D03*
Y301958D02*
D03*
Y299990D02*
D03*
Y298021D02*
D03*
Y296053D02*
D03*
Y294084D02*
D03*
Y292116D02*
D03*
Y290147D02*
D03*
Y288179D02*
D03*
Y286210D02*
D03*
Y284242D02*
D03*
Y282273D02*
D03*
Y280305D02*
D03*
Y278336D02*
D03*
Y276368D02*
D03*
Y274399D02*
D03*
Y272431D02*
D03*
Y270462D02*
D03*
Y268494D02*
D03*
Y266525D02*
D03*
Y264557D02*
D03*
Y262588D02*
D03*
Y260620D02*
D03*
Y258651D02*
D03*
D87*
X262249Y251053D02*
D03*
X260280D02*
D03*
X258312D02*
D03*
X256343D02*
D03*
X254375D02*
D03*
X252406D02*
D03*
X250438D02*
D03*
X248469D02*
D03*
X246501D02*
D03*
X244532D02*
D03*
X242564D02*
D03*
X240595D02*
D03*
X238627D02*
D03*
X236658D02*
D03*
X234690D02*
D03*
X232721D02*
D03*
X230753D02*
D03*
X228784D02*
D03*
X226816D02*
D03*
X224847D02*
D03*
X222879D02*
D03*
X220910D02*
D03*
X218942D02*
D03*
X216973D02*
D03*
X215005D02*
D03*
X213036D02*
D03*
X211068D02*
D03*
X209099D02*
D03*
X207131D02*
D03*
X205162D02*
D03*
X203194D02*
D03*
X201225D02*
D03*
X199257D02*
D03*
X197288D02*
D03*
X195320D02*
D03*
X193351D02*
D03*
Y335147D02*
D03*
X195320D02*
D03*
X197288D02*
D03*
X199257D02*
D03*
X201225D02*
D03*
X203194D02*
D03*
X205162D02*
D03*
X207131D02*
D03*
X209099D02*
D03*
X211068D02*
D03*
X213036D02*
D03*
X215005D02*
D03*
X216973D02*
D03*
X218942D02*
D03*
X220910D02*
D03*
X222879D02*
D03*
X224847D02*
D03*
X226816D02*
D03*
X228784D02*
D03*
X230753D02*
D03*
X232721D02*
D03*
X234690D02*
D03*
X236658D02*
D03*
X238627D02*
D03*
X240595D02*
D03*
X242564D02*
D03*
X244532D02*
D03*
X246501D02*
D03*
X248469D02*
D03*
X250438D02*
D03*
X252406D02*
D03*
X254375D02*
D03*
X256343D02*
D03*
X258312D02*
D03*
X260280D02*
D03*
X262249D02*
D03*
D88*
X237800Y376024D02*
D03*
X232800D02*
D03*
X227800D02*
D03*
X222800D02*
D03*
Y356576D02*
D03*
X227800D02*
D03*
X232800D02*
D03*
X237800D02*
D03*
D89*
X220094Y223000D02*
D03*
X231906D02*
D03*
M02*
