G04*
G04 #@! TF.GenerationSoftware,Altium Limited,Altium Designer,21.0.8 (223)*
G04*
G04 Layer_Physical_Order=2*
G04 Layer_Color=32768*
%FSLAX25Y25*%
%MOIN*%
G70*
G04*
G04 #@! TF.SameCoordinates,8C76C3ED-8D82-4A5C-AC10-AB376F5EDEF7*
G04*
G04*
G04 #@! TF.FilePolarity,Negative*
G04*
G01*
G75*
%ADD79C,0.04000*%
%ADD80C,0.16000*%
%ADD81C,0.06953*%
%ADD82C,0.07740*%
%ADD83C,0.10299*%
%ADD84C,0.08331*%
%ADD85C,0.05190*%
D79*
X105049Y232451D02*
G03*
X100050Y227452I0J-4999D01*
G01*
X105051Y232451D02*
G03*
X110050Y237450I0J4999D01*
G01*
Y337450D02*
G03*
X105051Y342449I-4999J0D01*
G01*
X100050Y347448D02*
G03*
X105049Y342449I4999J0D01*
G01*
X105050Y474950D02*
G03*
X100050Y469950I0J-5000D01*
G01*
X475050D02*
G03*
X470050Y474950I-5000J0D01*
G01*
X470051Y342449D02*
G03*
X475050Y347448I0J4999D01*
G01*
X470049Y342449D02*
G03*
X465050Y337450I0J-4999D01*
G01*
Y237450D02*
G03*
X470049Y232451I4999J0D01*
G01*
X475050Y227452D02*
G03*
X470051Y232451I-4999J0D01*
G01*
X470050Y99950D02*
G03*
X475050Y104950I0J5000D01*
G01*
X100050D02*
G03*
X105050Y99950I5000J0D01*
G01*
X100050Y104950D02*
Y227452D01*
X105049Y232451D02*
X105051D01*
X110050Y237450D02*
Y337450D01*
X105049Y342449D02*
X105051D01*
X100050Y347448D02*
Y469950D01*
X105050Y474950D02*
X470050D01*
X475050Y347448D02*
Y469950D01*
X470049Y342449D02*
X470051D01*
X465050Y237450D02*
Y337450D01*
X470049Y232451D02*
X470051D01*
X475050Y104950D02*
Y227452D01*
X105050Y99950D02*
X470050D01*
D80*
X445000Y118800D02*
D03*
X130000D02*
D03*
X432500Y456300D02*
D03*
X142500D02*
D03*
D81*
X134800Y267474D02*
D03*
X323776Y149264D02*
D03*
X315902D02*
D03*
X308028D02*
D03*
X300154D02*
D03*
X292280D02*
D03*
X284406D02*
D03*
X276532D02*
D03*
X268658D02*
D03*
X260784D02*
D03*
X252910D02*
D03*
X245036D02*
D03*
X237162D02*
D03*
X229288D02*
D03*
X221414D02*
D03*
X213540D02*
D03*
X205666D02*
D03*
Y157138D02*
D03*
X213540D02*
D03*
X221414D02*
D03*
X229288D02*
D03*
X237162D02*
D03*
X245036D02*
D03*
X252910D02*
D03*
X260784D02*
D03*
X268658D02*
D03*
X276532D02*
D03*
X284406D02*
D03*
X292280D02*
D03*
X300154D02*
D03*
X308028D02*
D03*
X315902D02*
D03*
X323776D02*
D03*
X323776Y354088D02*
D03*
X315902D02*
D03*
X323776Y330466D02*
D03*
Y322592D02*
D03*
Y314718D02*
D03*
Y306844D02*
D03*
Y298970D02*
D03*
Y291096D02*
D03*
Y283222D02*
D03*
Y275348D02*
D03*
Y259600D02*
D03*
Y251726D02*
D03*
Y243852D02*
D03*
Y235978D02*
D03*
Y228104D02*
D03*
Y220230D02*
D03*
Y212356D02*
D03*
Y204482D02*
D03*
Y196608D02*
D03*
Y188734D02*
D03*
X315902D02*
D03*
Y196608D02*
D03*
Y204482D02*
D03*
Y212356D02*
D03*
Y220230D02*
D03*
Y228104D02*
D03*
Y235978D02*
D03*
Y243852D02*
D03*
Y251726D02*
D03*
Y259600D02*
D03*
Y267474D02*
D03*
Y275348D02*
D03*
Y283222D02*
D03*
Y291096D02*
D03*
Y298970D02*
D03*
Y306844D02*
D03*
Y314718D02*
D03*
Y322592D02*
D03*
Y330466D02*
D03*
Y346214D02*
D03*
Y338340D02*
D03*
X323776D02*
D03*
Y346214D02*
D03*
X134800D02*
D03*
Y338340D02*
D03*
X126926D02*
D03*
Y346214D02*
D03*
Y330466D02*
D03*
Y322592D02*
D03*
Y314718D02*
D03*
Y306844D02*
D03*
Y298970D02*
D03*
Y291096D02*
D03*
Y283222D02*
D03*
Y275348D02*
D03*
Y259600D02*
D03*
Y251726D02*
D03*
Y243852D02*
D03*
Y235978D02*
D03*
Y228104D02*
D03*
Y220230D02*
D03*
Y212356D02*
D03*
Y204482D02*
D03*
Y196608D02*
D03*
Y188734D02*
D03*
X134800D02*
D03*
Y196608D02*
D03*
Y204482D02*
D03*
Y212356D02*
D03*
Y220230D02*
D03*
Y228104D02*
D03*
Y235978D02*
D03*
Y243852D02*
D03*
Y251726D02*
D03*
Y259600D02*
D03*
Y275348D02*
D03*
Y283222D02*
D03*
Y291096D02*
D03*
Y298970D02*
D03*
Y306844D02*
D03*
Y314718D02*
D03*
Y322592D02*
D03*
Y330466D02*
D03*
X126926Y354088D02*
D03*
X134800D02*
D03*
X315902Y180860D02*
D03*
X134800D02*
D03*
D82*
X412500Y456300D02*
D03*
X402500D02*
D03*
X392500D02*
D03*
X382500D02*
D03*
X372500D02*
D03*
X342500D02*
D03*
X332500D02*
D03*
X322500D02*
D03*
X292500D02*
D03*
X282500D02*
D03*
X272500D02*
D03*
X262500D02*
D03*
X252500D02*
D03*
X232500D02*
D03*
X222500D02*
D03*
X212500D02*
D03*
X202500D02*
D03*
X192500D02*
D03*
X182500D02*
D03*
X172500D02*
D03*
X162500D02*
D03*
X412500Y446300D02*
D03*
X402500D02*
D03*
X392500D02*
D03*
X382500D02*
D03*
X372500D02*
D03*
X342500D02*
D03*
X332500D02*
D03*
X322500D02*
D03*
X292500D02*
D03*
X282500D02*
D03*
X272500D02*
D03*
X262500D02*
D03*
X252500D02*
D03*
X232500D02*
D03*
X222500D02*
D03*
X212500D02*
D03*
X202500D02*
D03*
X192500D02*
D03*
X182500D02*
D03*
X162500D02*
D03*
X412500Y436300D02*
D03*
X402500D02*
D03*
X392500D02*
D03*
X382500D02*
D03*
X372500D02*
D03*
X362500D02*
D03*
X352500D02*
D03*
X342500D02*
D03*
X332500D02*
D03*
X322500D02*
D03*
X312500D02*
D03*
X302500D02*
D03*
X292500D02*
D03*
X282500D02*
D03*
X272500D02*
D03*
X262500D02*
D03*
X252500D02*
D03*
X242500D02*
D03*
X232500D02*
D03*
X222500D02*
D03*
X212500D02*
D03*
X202500D02*
D03*
X192500D02*
D03*
X182500D02*
D03*
X172500D02*
D03*
X162500D02*
D03*
X412500Y426300D02*
D03*
X402500D02*
D03*
X392500D02*
D03*
X382500D02*
D03*
X372500D02*
D03*
X362500D02*
D03*
X352500D02*
D03*
X342500D02*
D03*
X332500D02*
D03*
X322500D02*
D03*
X312500D02*
D03*
X302500D02*
D03*
X292500D02*
D03*
X282500D02*
D03*
X272500D02*
D03*
X262500D02*
D03*
X252500D02*
D03*
X242500D02*
D03*
X232500D02*
D03*
X222500D02*
D03*
X212500D02*
D03*
X202500D02*
D03*
X192500D02*
D03*
X182500D02*
D03*
X172500D02*
D03*
X162500D02*
D03*
D83*
X452742Y386900D02*
D03*
D84*
X114600Y419700D02*
D03*
Y409700D02*
D03*
Y389700D02*
D03*
Y369700D02*
D03*
Y399700D02*
D03*
X114900Y433300D02*
D03*
X144900D02*
D03*
X134900D02*
D03*
D85*
X381053Y217645D02*
D03*
X380462Y215752D02*
D03*
X381015Y213768D02*
D03*
X380611Y211827D02*
D03*
X381015Y209880D02*
D03*
Y207897D02*
D03*
X380751Y205933D02*
D03*
X380839Y203952D02*
D03*
X380833Y219804D02*
D03*
X381005Y221780D02*
D03*
X406041Y203865D02*
D03*
X406337Y206021D02*
D03*
X406425Y208001D02*
D03*
Y210014D02*
D03*
Y211996D02*
D03*
X406483Y219736D02*
D03*
X406447Y221718D02*
D03*
X407154Y227762D02*
D03*
X394819Y229787D02*
D03*
X392826Y229750D02*
D03*
X390774Y229728D02*
D03*
X388678Y229714D02*
D03*
X396978Y143803D02*
D03*
X397004Y139781D02*
D03*
X391276Y139883D02*
D03*
X391378Y143625D02*
D03*
X398547Y204040D02*
D03*
X380855Y227742D02*
D03*
X381297Y229718D02*
D03*
X380846Y223756D02*
D03*
X406445Y214002D02*
D03*
X406933Y217737D02*
D03*
X406425Y225919D02*
D03*
X406447Y223740D02*
D03*
X404357Y229899D02*
D03*
X406356Y229710D02*
D03*
X448126Y191462D02*
D03*
X412104Y201110D02*
D03*
X371291Y195613D02*
D03*
X414689Y225952D02*
D03*
X176000Y145000D02*
D03*
X177000Y140000D02*
D03*
X396702Y133113D02*
D03*
X391702D02*
D03*
X369000D02*
D03*
X424000Y144000D02*
D03*
X346000Y203000D02*
D03*
X289000Y284000D02*
D03*
X263685Y265154D02*
D03*
X274989Y311720D02*
D03*
X236000Y341378D02*
D03*
X238634Y341372D02*
D03*
X174000Y342000D02*
D03*
X369059Y225546D02*
D03*
X355197Y226697D02*
D03*
X220000Y349000D02*
D03*
X206000Y364000D02*
D03*
X274038Y347337D02*
D03*
X278705Y237800D02*
D03*
X247588Y237998D02*
D03*
X275448Y307847D02*
D03*
X275093Y284248D02*
D03*
X263674Y262570D02*
D03*
X278897Y309651D02*
D03*
X274897Y302151D02*
D03*
X206500Y394000D02*
D03*
X205045Y257300D02*
D03*
X209096Y259904D02*
D03*
X211153Y257426D02*
D03*
X263377Y303953D02*
D03*
X172607Y243877D02*
D03*
X157500Y262000D02*
D03*
X170000Y297500D02*
D03*
X174000Y309500D02*
D03*
X176500Y204000D02*
D03*
X452202Y235462D02*
D03*
X408138Y367263D02*
D03*
X410503Y366170D02*
D03*
X335000Y369000D02*
D03*
X330000Y368500D02*
D03*
X345000D02*
D03*
X453540Y353549D02*
D03*
X453555Y355767D02*
D03*
X445431Y353468D02*
D03*
X445413Y355763D02*
D03*
X436039Y353450D02*
D03*
X436021Y355816D02*
D03*
X400647Y229740D02*
D03*
X405498Y236632D02*
D03*
X398573Y229739D02*
D03*
X447877Y184953D02*
D03*
X431877Y176453D02*
D03*
X414443Y173838D02*
D03*
X207877Y226953D02*
D03*
X204913Y166725D02*
D03*
X413713Y215017D02*
D03*
Y212942D02*
D03*
X413659Y210868D02*
D03*
X413500Y220213D02*
D03*
X358000Y251000D02*
D03*
X384847Y229840D02*
D03*
X380847Y225740D02*
D03*
X388747Y203940D02*
D03*
X386619Y203934D02*
D03*
X363500Y197500D02*
D03*
X455826Y297015D02*
D03*
X405500Y292500D02*
D03*
X378500Y276000D02*
D03*
X302152Y231781D02*
D03*
X398314Y334221D02*
D03*
X398500Y380000D02*
D03*
X445950Y251450D02*
D03*
X461000Y217500D02*
D03*
X362870Y166786D02*
D03*
X264000Y227311D02*
D03*
X414089Y365552D02*
D03*
X293508Y343992D02*
D03*
X417005Y365604D02*
D03*
X296989Y178523D02*
D03*
X298360Y239021D02*
D03*
X242500Y389500D02*
D03*
X220397Y389152D02*
D03*
M02*
