G04*
G04 #@! TF.GenerationSoftware,Altium Limited,Altium Designer,21.0.8 (223)*
G04*
G04 Layer_Color=32896*
%FSLAX25Y25*%
%MOIN*%
G70*
G04*
G04 #@! TF.SameCoordinates,8C76C3ED-8D82-4A5C-AC10-AB376F5EDEF7*
G04*
G04*
G04 #@! TF.FilePolarity,Positive*
G04*
G01*
G75*
%ADD10C,0.00787*%
%ADD11C,0.00500*%
%ADD15C,0.00800*%
G36*
X163817Y381117D02*
X163768D01*
Y381068D01*
Y381020D01*
Y380971D01*
Y380923D01*
X163817D01*
Y380874D01*
X164108D01*
Y380923D01*
X164205D01*
Y380971D01*
Y381020D01*
Y381068D01*
Y381117D01*
X164157D01*
Y381166D01*
X163817D01*
Y381117D01*
D02*
G37*
D10*
X262643Y244124D02*
G03*
X262643Y244124I-394J0D01*
G01*
X239769Y350395D02*
G03*
X239769Y350395I-394J0D01*
G01*
X163988Y247350D02*
Y249713D01*
Y251287D02*
Y253650D01*
X166547D02*
X168713D01*
X163988D02*
X165366D01*
X165957Y247350D02*
X168713D01*
X170287D02*
X175012D01*
Y253650D01*
X170287D02*
X175012D01*
X165366D02*
X166547D01*
X163988Y249713D02*
Y251287D01*
Y247350D02*
X165957D01*
X243199Y229488D02*
X245562D01*
X239262D02*
X241625D01*
X239262Y232047D02*
Y234213D01*
Y229488D02*
Y230866D01*
X245562Y231457D02*
Y234213D01*
Y235787D02*
Y240512D01*
X239262D02*
X245562D01*
X239262Y235787D02*
Y240512D01*
Y230866D02*
Y232047D01*
X241625Y229488D02*
X243199D01*
X245562D02*
Y231457D01*
X264850Y356543D02*
Y358512D01*
X267213D02*
X268787D01*
X271150Y355953D02*
Y357134D01*
Y347488D02*
Y352213D01*
X264850Y347488D02*
X271150D01*
X264850D02*
Y352213D01*
Y353787D02*
Y356543D01*
X271150Y357134D02*
Y358512D01*
Y353787D02*
Y355953D01*
X268787Y358512D02*
X271150D01*
X264850D02*
X267213D01*
X260850Y240512D02*
X263213D01*
X260850Y238543D02*
Y240512D01*
X263213D02*
X264787D01*
X267150Y237953D02*
Y239134D01*
Y229488D02*
Y234213D01*
X260850Y229488D02*
X267150D01*
X260850D02*
Y234213D01*
Y235787D02*
Y238543D01*
X267150Y239134D02*
Y240512D01*
Y235787D02*
Y237953D01*
X264787Y240512D02*
X267150D01*
X256150Y229488D02*
Y231457D01*
X252213Y229488D02*
X253787D01*
X249850Y230866D02*
Y232047D01*
Y235787D02*
Y240512D01*
X256150D01*
Y235787D02*
Y240512D01*
Y231457D02*
Y234213D01*
X249850Y229488D02*
Y230866D01*
Y232047D02*
Y234213D01*
Y229488D02*
X252213D01*
X253787D02*
X256150D01*
X160988Y286350D02*
Y288713D01*
Y290287D02*
Y292650D01*
X163547D02*
X165713D01*
X160988D02*
X162366D01*
X162957Y286350D02*
X165713D01*
X167287D02*
X172012D01*
Y292650D01*
X167287D02*
X172012D01*
X162366D02*
X163547D01*
X160988Y288713D02*
Y290287D01*
Y286350D02*
X162957D01*
X165342Y313350D02*
Y315713D01*
Y317287D02*
Y319650D01*
X167902D02*
X170067D01*
X165342D02*
X166720D01*
X167311Y313350D02*
X170067D01*
X171642D02*
X176366D01*
Y319650D01*
X171642D02*
X176366D01*
X166720D02*
X167902D01*
X165342Y315713D02*
Y317287D01*
Y313350D02*
X167311D01*
X274787Y229488D02*
X277150D01*
X270850D02*
X273213D01*
X270850Y232047D02*
Y234213D01*
Y229488D02*
Y230866D01*
X277150Y231457D02*
Y234213D01*
Y235787D02*
Y240512D01*
X270850D02*
X277150D01*
X270850Y235787D02*
Y240512D01*
Y230866D02*
Y232047D01*
X273213Y229488D02*
X274787D01*
X277150D02*
Y231457D01*
X412731Y257226D02*
Y263919D01*
X404069Y257226D02*
X412731D01*
X404069D02*
Y263919D01*
Y266281D02*
Y272974D01*
X412731D01*
Y266281D02*
Y272974D01*
X291012Y258687D02*
Y261050D01*
X289043D02*
X291012D01*
Y257113D02*
Y258687D01*
X288453Y254750D02*
X289634D01*
X279988D02*
X284713D01*
X279988D02*
Y261050D01*
X284713D01*
X286287D02*
X289043D01*
X289634Y254750D02*
X291012D01*
X286287D02*
X288453D01*
X291012D02*
Y257113D01*
X279788Y264750D02*
Y267113D01*
Y264750D02*
X281757D01*
X279788Y267113D02*
Y268687D01*
X281166Y271050D02*
X282347D01*
X286087D02*
X290812D01*
Y264750D02*
Y271050D01*
X286087Y264750D02*
X290812D01*
X281757D02*
X284513D01*
X279788Y271050D02*
X281166D01*
X282347D02*
X284513D01*
X279788Y268687D02*
Y271050D01*
X279888Y274950D02*
Y277313D01*
Y274950D02*
X281857D01*
X279888Y277313D02*
Y278887D01*
X281266Y281250D02*
X282447D01*
X286187D02*
X290912D01*
Y274950D02*
Y281250D01*
X286187Y274950D02*
X290912D01*
X281857D02*
X284613D01*
X279888Y281250D02*
X281266D01*
X282447D02*
X284613D01*
X279888Y278887D02*
Y281250D01*
X210850Y357512D02*
X213213D01*
X214787D02*
X217150D01*
Y352787D02*
Y354953D01*
Y356134D02*
Y357512D01*
X210850Y352787D02*
Y355543D01*
Y346488D02*
Y351213D01*
Y346488D02*
X217150D01*
Y351213D01*
Y354953D02*
Y356134D01*
X213213Y357512D02*
X214787D01*
X210850Y355543D02*
Y357512D01*
X165488Y332850D02*
Y335213D01*
Y336787D02*
Y339150D01*
X168047D02*
X170213D01*
X165488D02*
X166866D01*
X167457Y332850D02*
X170213D01*
X171787D02*
X176512D01*
Y339150D01*
X171787D02*
X176512D01*
X166866D02*
X168047D01*
X165488Y335213D02*
Y336787D01*
Y332850D02*
X167457D01*
X224488Y386150D02*
Y388513D01*
Y386150D02*
X226457D01*
X224488Y388513D02*
Y390087D01*
X225866Y392450D02*
X227047D01*
X230787D02*
X235512D01*
Y386150D02*
Y392450D01*
X230787Y386150D02*
X235512D01*
X226457D02*
X229213D01*
X224488Y392450D02*
X225866D01*
X227047D02*
X229213D01*
X224488Y390087D02*
Y392450D01*
X247787Y361488D02*
X250150D01*
Y363457D01*
X246213Y361488D02*
X247787D01*
X243850Y362866D02*
Y364047D01*
Y367787D02*
Y372512D01*
X250150D01*
Y367787D02*
Y372512D01*
Y363457D02*
Y366213D01*
X243850Y361488D02*
Y362866D01*
Y364047D02*
Y366213D01*
Y361488D02*
X246213D01*
X172169Y207126D02*
Y213819D01*
Y207126D02*
X180831D01*
Y213819D01*
Y216181D02*
Y222874D01*
X172169D02*
X180831D01*
X172169Y216181D02*
Y222874D01*
X348988Y218850D02*
X350957D01*
X348988Y221213D02*
Y222787D01*
X350366Y225150D02*
X351547D01*
X355287D02*
X360012D01*
Y218850D02*
Y225150D01*
X355287Y218850D02*
X360012D01*
X350957D02*
X353713D01*
X348988Y225150D02*
X350366D01*
X351547D02*
X353713D01*
X348988Y222787D02*
Y225150D01*
Y218850D02*
Y221213D01*
Y208850D02*
X350957D01*
X348988Y211213D02*
Y212787D01*
X350366Y215150D02*
X351547D01*
X355287D02*
X360012D01*
Y208850D02*
Y215150D01*
X355287Y208850D02*
X360012D01*
X350957D02*
X353713D01*
X348988Y215150D02*
X350366D01*
X351547D02*
X353713D01*
X348988Y212787D02*
Y215150D01*
Y208850D02*
Y211213D01*
X254850Y358512D02*
X257213D01*
X258787D02*
X261150D01*
Y353787D02*
Y355953D01*
Y357134D02*
Y358512D01*
X254850Y353787D02*
Y356543D01*
Y347488D02*
Y352213D01*
Y347488D02*
X261150D01*
Y352213D01*
Y355953D02*
Y357134D01*
X257213Y358512D02*
X258787D01*
X254850Y356543D02*
Y358512D01*
X359669Y241181D02*
Y247874D01*
X368331D01*
Y241181D02*
Y247874D01*
Y232126D02*
Y238819D01*
X359669Y232126D02*
X368331D01*
X359669D02*
Y238819D01*
X416250Y245212D02*
X418613D01*
X420187D02*
X422550D01*
Y240487D02*
Y242653D01*
Y243834D02*
Y245212D01*
X416250Y240487D02*
Y243243D01*
Y234188D02*
Y238913D01*
Y234188D02*
X422550D01*
Y238913D01*
Y242653D02*
Y243834D01*
X418613Y245212D02*
X420187D01*
X416250Y243243D02*
Y245212D01*
X424750D02*
X427113D01*
X428687D02*
X431050D01*
Y240487D02*
Y242653D01*
Y243834D02*
Y245212D01*
X424750Y240487D02*
Y243243D01*
Y234188D02*
Y238913D01*
Y234188D02*
X431050D01*
Y238913D01*
Y242653D02*
Y243834D01*
X427113Y245212D02*
X428687D01*
X424750Y243243D02*
Y245212D01*
X433050D02*
X435413D01*
X436987D02*
X439350D01*
Y240487D02*
Y242653D01*
Y243834D02*
Y245212D01*
X433050Y240487D02*
Y243243D01*
Y234188D02*
Y238913D01*
Y234188D02*
X439350D01*
Y238913D01*
Y242653D02*
Y243834D01*
X435413Y245212D02*
X436987D01*
X433050Y243243D02*
Y245212D01*
X450231Y233526D02*
Y240219D01*
X441569Y233526D02*
X450231D01*
X441569D02*
Y240219D01*
Y242581D02*
Y249274D01*
X450231D01*
Y242581D02*
Y249274D01*
X172012Y272850D02*
Y275213D01*
X167287Y272850D02*
X169453D01*
X170634D02*
X172012D01*
X167287Y279150D02*
X170043D01*
X160988D02*
X165713D01*
X160988Y272850D02*
Y279150D01*
Y272850D02*
X165713D01*
X169453D02*
X170634D01*
X172012Y275213D02*
Y276787D01*
X170043Y279150D02*
X172012D01*
Y276787D02*
Y279150D01*
X208787Y240512D02*
X211150D01*
Y235787D02*
Y237953D01*
Y239134D02*
Y240512D01*
X204850Y235787D02*
Y238543D01*
Y229488D02*
Y234213D01*
Y229488D02*
X211150D01*
Y234213D01*
Y237953D02*
Y239134D01*
X207213Y240512D02*
X208787D01*
X204850Y238543D02*
Y240512D01*
X207213D01*
X172012Y264850D02*
Y267213D01*
X167287Y264850D02*
X169453D01*
X170634D02*
X172012D01*
X167287Y271150D02*
X170043D01*
X160988D02*
X165713D01*
X160988Y264850D02*
Y271150D01*
Y264850D02*
X165713D01*
X169453D02*
X170634D01*
X172012Y267213D02*
Y268787D01*
X170043Y271150D02*
X172012D01*
Y268787D02*
Y271150D01*
X210850Y372512D02*
X213213D01*
X214787D02*
X217150D01*
Y367787D02*
Y369953D01*
Y371134D02*
Y372512D01*
X210850Y367787D02*
Y370543D01*
Y361488D02*
Y366213D01*
Y361488D02*
X217150D01*
Y366213D01*
Y369953D02*
Y371134D01*
X213213Y372512D02*
X214787D01*
X210850Y370543D02*
Y372512D01*
X199366Y201787D02*
Y204150D01*
Y197850D02*
Y200213D01*
X194642Y197850D02*
X196807D01*
X197988D02*
X199366D01*
X194642Y204150D02*
X197398D01*
X188342D02*
X193067D01*
X188342Y197850D02*
Y204150D01*
Y197850D02*
X193067D01*
X196807D02*
X197988D01*
X199366Y200213D02*
Y201787D01*
X197398Y204150D02*
X199366D01*
Y210787D02*
Y213150D01*
Y206850D02*
Y209213D01*
X194642Y206850D02*
X196807D01*
X197988D02*
X199366D01*
X194642Y213150D02*
X197398D01*
X188342D02*
X193067D01*
X188342Y206850D02*
Y213150D01*
Y206850D02*
X193067D01*
X196807D02*
X197988D01*
X199366Y209213D02*
Y210787D01*
X197398Y213150D02*
X199366D01*
X188342Y224850D02*
Y227213D01*
Y228787D02*
Y231150D01*
X190902D02*
X193067D01*
X188342D02*
X189720D01*
X190311Y224850D02*
X193067D01*
X194642D02*
X199366D01*
Y231150D01*
X194642D02*
X199366D01*
X189720D02*
X190902D01*
X188342Y227213D02*
Y228787D01*
Y224850D02*
X190311D01*
X188342Y233850D02*
Y236213D01*
Y237787D02*
Y240150D01*
X190902D02*
X193067D01*
X188342D02*
X189720D01*
X190311Y233850D02*
X193067D01*
X194642D02*
X199366D01*
Y240150D01*
X194642D02*
X199366D01*
X189720D02*
X190902D01*
X188342Y236213D02*
Y237787D01*
Y233850D02*
X190311D01*
X199366Y215850D02*
Y218213D01*
X194642Y215850D02*
X196807D01*
X197988D02*
X199366D01*
X194642Y222150D02*
X197398D01*
X188342D02*
X193067D01*
X188342Y215850D02*
Y222150D01*
Y215850D02*
X193067D01*
X196807D02*
X197988D01*
X199366Y218213D02*
Y219787D01*
X197398Y222150D02*
X199366D01*
Y219787D02*
Y222150D01*
X165488Y322850D02*
Y325213D01*
Y326787D02*
Y329150D01*
X168047D02*
X170213D01*
X165488D02*
X166866D01*
X167457Y322850D02*
X170213D01*
X171787D02*
X176512D01*
Y329150D01*
X171787D02*
X176512D01*
X166866D02*
X168047D01*
X165488Y325213D02*
Y326787D01*
Y322850D02*
X167457D01*
X232787Y240512D02*
X235150D01*
Y235787D02*
Y237953D01*
Y239134D02*
Y240512D01*
X228850Y235787D02*
Y238543D01*
Y229488D02*
Y234213D01*
Y229488D02*
X235150D01*
Y234213D01*
Y237953D02*
Y239134D01*
X231213Y240512D02*
X232787D01*
X228850Y238543D02*
Y240512D01*
X231213D01*
X216945Y218669D02*
X235055D01*
X216945Y227331D02*
X235055D01*
X232787Y205488D02*
X235150D01*
X228850D02*
X231213D01*
X228850Y208047D02*
Y210213D01*
Y205488D02*
Y206866D01*
X235150Y207457D02*
Y210213D01*
Y211787D02*
Y216512D01*
X228850D02*
X235150D01*
X228850Y211787D02*
Y216512D01*
Y206866D02*
Y208047D01*
X231213Y205488D02*
X232787D01*
X235150D02*
Y207457D01*
X220787Y205488D02*
X223150D01*
X216850D02*
X219213D01*
X216850Y208047D02*
Y210213D01*
Y205488D02*
Y206866D01*
X223150Y207457D02*
Y210213D01*
Y211787D02*
Y216512D01*
X216850D02*
X223150D01*
X216850Y211787D02*
Y216512D01*
Y206866D02*
Y208047D01*
X219213Y205488D02*
X220787D01*
X223150D02*
Y207457D01*
X220787Y240512D02*
X223150D01*
Y235787D02*
Y237953D01*
Y239134D02*
Y240512D01*
X216850Y235787D02*
Y238543D01*
Y229488D02*
Y234213D01*
Y229488D02*
X223150D01*
Y234213D01*
Y237953D02*
Y239134D01*
X219213Y240512D02*
X220787D01*
X216850Y238543D02*
Y240512D01*
X219213D01*
X451181Y231831D02*
X457874D01*
Y223169D02*
Y231831D01*
X451181Y223169D02*
X457874D01*
X442126D02*
X448819D01*
X442126D02*
Y231831D01*
X448819D01*
X434050Y221560D02*
X436413D01*
X434050Y224119D02*
Y226284D01*
Y221560D02*
Y222938D01*
X440350Y223528D02*
Y226284D01*
Y227859D02*
Y232583D01*
X434050D02*
X440350D01*
X434050Y227859D02*
Y232583D01*
Y222938D02*
Y224119D01*
X436413Y221560D02*
X437987D01*
X440350D02*
Y223528D01*
X437987Y221560D02*
X440350D01*
X428787Y221488D02*
X431150D01*
X424850D02*
X427213D01*
X424850Y224047D02*
Y226213D01*
Y221488D02*
Y222866D01*
X431150Y223457D02*
Y226213D01*
Y227787D02*
Y232512D01*
X424850D02*
X431150D01*
X424850Y227787D02*
Y232512D01*
Y222866D02*
Y224047D01*
X427213Y221488D02*
X428787D01*
X431150D02*
Y223457D01*
X420787Y221488D02*
X423150D01*
X416850D02*
X419213D01*
X416850Y224047D02*
Y226213D01*
Y221488D02*
Y222866D01*
X423150Y223457D02*
Y226213D01*
Y227787D02*
Y232512D01*
X416850D02*
X423150D01*
X416850Y227787D02*
Y232512D01*
Y222866D02*
Y224047D01*
X419213Y221488D02*
X420787D01*
X423150D02*
Y223457D01*
X389012Y191787D02*
Y194150D01*
X387043D02*
X389012D01*
Y190213D02*
Y191787D01*
X386453Y187850D02*
X387634D01*
X377988D02*
X382713D01*
X377988D02*
Y194150D01*
X382713D01*
X384287D02*
X387043D01*
X387634Y187850D02*
X389012D01*
X384287D02*
X386453D01*
X389012D02*
Y190213D01*
X377988Y179850D02*
Y182213D01*
Y179850D02*
X379957D01*
X377988Y182213D02*
Y183787D01*
X379366Y186150D02*
X380547D01*
X384287D02*
X389012D01*
Y179850D02*
Y186150D01*
X384287Y179850D02*
X389012D01*
X379957D02*
X382713D01*
X377988Y186150D02*
X379366D01*
X380547D02*
X382713D01*
X377988Y183787D02*
Y186150D01*
X428787Y170988D02*
X431150D01*
X424850D02*
X427213D01*
X424850Y173547D02*
Y175713D01*
Y170988D02*
Y172366D01*
X431150Y172957D02*
Y175713D01*
Y177287D02*
Y182012D01*
X424850D02*
X431150D01*
X424850Y177287D02*
Y182012D01*
Y172366D02*
Y173547D01*
X427213Y170988D02*
X428787D01*
X431150D02*
Y172957D01*
X436787Y182012D02*
X439150D01*
Y177287D02*
Y179453D01*
Y180634D02*
Y182012D01*
X432850Y177287D02*
Y180043D01*
Y170988D02*
Y175713D01*
Y170988D02*
X439150D01*
Y175713D01*
Y179453D02*
Y180634D01*
X435213Y182012D02*
X436787D01*
X432850Y180043D02*
Y182012D01*
X435213D01*
X420787Y170988D02*
X423150D01*
X416850D02*
X419213D01*
X416850Y173547D02*
Y175713D01*
Y170988D02*
Y172366D01*
X423150Y172957D02*
Y175713D01*
Y177287D02*
Y182012D01*
X416850D02*
X423150D01*
X416850Y177287D02*
Y182012D01*
Y172366D02*
Y173547D01*
X419213Y170988D02*
X420787D01*
X423150D02*
Y172957D01*
Y182988D02*
Y184957D01*
X419213Y182988D02*
X420787D01*
X416850Y184366D02*
Y185547D01*
Y189287D02*
Y194012D01*
X423150D01*
Y189287D02*
Y194012D01*
Y184957D02*
Y187713D01*
X416850Y182988D02*
Y184366D01*
Y185547D02*
Y187713D01*
Y182988D02*
X419213D01*
X420787D02*
X423150D01*
X439150D02*
Y184957D01*
X435213Y182988D02*
X436787D01*
X432850Y184366D02*
Y185547D01*
Y189287D02*
Y194012D01*
X439150D01*
Y189287D02*
Y194012D01*
Y184957D02*
Y187713D01*
X432850Y182988D02*
Y184366D01*
Y185547D02*
Y187713D01*
Y182988D02*
X435213D01*
X436787D02*
X439150D01*
X443787D02*
X446150D01*
Y184957D01*
X442213Y182988D02*
X443787D01*
X439850Y184366D02*
Y185547D01*
Y189287D02*
Y194012D01*
X446150D01*
Y189287D02*
Y194012D01*
Y184957D02*
Y187713D01*
X439850Y182988D02*
Y184366D01*
Y185547D02*
Y187713D01*
Y182988D02*
X442213D01*
X446150Y170988D02*
Y172957D01*
X442213Y170988D02*
X443787D01*
X439850Y172366D02*
Y173547D01*
Y177287D02*
Y182012D01*
X446150D01*
Y177287D02*
Y182012D01*
Y172957D02*
Y175713D01*
X439850Y170988D02*
Y172366D01*
Y173547D02*
Y175713D01*
Y170988D02*
X442213D01*
X443787D02*
X446150D01*
X424850Y194012D02*
X427213D01*
X424850Y192043D02*
Y194012D01*
X427213D02*
X428787D01*
X431150Y191453D02*
Y192634D01*
Y182988D02*
Y187713D01*
X424850Y182988D02*
X431150D01*
X424850D02*
Y187713D01*
Y189287D02*
Y192043D01*
X431150Y192634D02*
Y194012D01*
Y189287D02*
Y191453D01*
X428787Y194012D02*
X431150D01*
X370543Y232150D02*
X372512D01*
Y228213D02*
Y229787D01*
X369953Y225850D02*
X371134D01*
X361488D02*
X366213D01*
X361488D02*
Y232150D01*
X366213D01*
X367787D02*
X370543D01*
X371134Y225850D02*
X372512D01*
X367787D02*
X369953D01*
X372512D02*
Y228213D01*
Y229787D02*
Y232150D01*
X411943Y255250D02*
X413912D01*
Y251313D02*
Y252887D01*
X411353Y248950D02*
X412534D01*
X402888D02*
X407613D01*
X402888D02*
Y255250D01*
X407613D01*
X409187D02*
X411943D01*
X412534Y248950D02*
X413912D01*
X409187D02*
X411353D01*
X413912D02*
Y251313D01*
Y252887D02*
Y255250D01*
X411943Y246250D02*
X413912D01*
Y242313D02*
Y243887D01*
X411353Y239950D02*
X412534D01*
X402888D02*
X407613D01*
X402888D02*
Y246250D01*
X407613D01*
X409187D02*
X411943D01*
X412534Y239950D02*
X413912D01*
X409187D02*
X411353D01*
X413912D02*
Y242313D01*
Y243887D02*
Y246250D01*
X398731Y266281D02*
Y272974D01*
X390069D02*
X398731D01*
X390069Y266281D02*
Y272974D01*
Y257226D02*
Y263919D01*
Y257226D02*
X398731D01*
Y263919D01*
X397943Y255250D02*
X399912D01*
Y251313D02*
Y252887D01*
X397353Y248950D02*
X398534D01*
X388888D02*
X393613D01*
X388888D02*
Y255250D01*
X393613D01*
X395187D02*
X397943D01*
X398534Y248950D02*
X399912D01*
X395187D02*
X397353D01*
X399912D02*
Y251313D01*
Y252887D02*
Y255250D01*
X397943Y246250D02*
X399912D01*
Y242313D02*
Y243887D01*
X397353Y239950D02*
X398534D01*
X388888D02*
X393613D01*
X388888D02*
Y246250D01*
X393613D01*
X395187D02*
X397943D01*
X398534Y239950D02*
X399912D01*
X395187D02*
X397353D01*
X399912D02*
Y242313D01*
Y243887D02*
Y246250D01*
X374888Y239950D02*
X376857D01*
X374888Y242313D02*
Y243887D01*
X376266Y246250D02*
X377447D01*
X381187D02*
X385912D01*
Y239950D02*
Y246250D01*
X381187Y239950D02*
X385912D01*
X376857D02*
X379613D01*
X374888Y246250D02*
X376266D01*
X377447D02*
X379613D01*
X374888Y243887D02*
Y246250D01*
Y239950D02*
Y242313D01*
Y248950D02*
X376857D01*
X374888Y251313D02*
Y252887D01*
X376266Y255250D02*
X377447D01*
X381187D02*
X385912D01*
Y248950D02*
Y255250D01*
X381187Y248950D02*
X385912D01*
X376857D02*
X379613D01*
X374888Y255250D02*
X376266D01*
X377447D02*
X379613D01*
X374888Y252887D02*
Y255250D01*
Y248950D02*
Y251313D01*
X384731Y266281D02*
Y272974D01*
X376069D02*
X384731D01*
X376069Y266281D02*
Y272974D01*
Y257226D02*
Y263919D01*
Y257226D02*
X384731D01*
Y263919D01*
X431043Y220650D02*
X433012D01*
Y216713D02*
Y218287D01*
X430453Y214350D02*
X431634D01*
X421988D02*
X426713D01*
X421988D02*
Y220650D01*
X426713D01*
X428287D02*
X431043D01*
X431634Y214350D02*
X433012D01*
X428287D02*
X430453D01*
X433012D02*
Y216713D01*
Y218287D02*
Y220650D01*
X442126Y221831D02*
X448819D01*
X442126Y213169D02*
Y221831D01*
Y213169D02*
X448819D01*
X451181D02*
X457874D01*
Y221831D01*
X451181D02*
X457874D01*
X423150Y157988D02*
Y159957D01*
X419213Y157988D02*
X420787D01*
X416850Y159366D02*
Y160547D01*
Y164287D02*
Y169012D01*
X423150D01*
Y164287D02*
Y169012D01*
Y159957D02*
Y162713D01*
X416850Y157988D02*
Y159366D01*
Y160547D02*
Y162713D01*
Y157988D02*
X419213D01*
X420787D02*
X423150D01*
X431150D02*
Y159957D01*
X427213Y157988D02*
X428787D01*
X424850Y159366D02*
Y160547D01*
Y164287D02*
Y169012D01*
X431150D01*
Y164287D02*
Y169012D01*
Y159957D02*
Y162713D01*
X424850Y157988D02*
Y159366D01*
Y160547D02*
Y162713D01*
Y157988D02*
X427213D01*
X428787D02*
X431150D01*
X436787D02*
X439150D01*
Y159957D01*
X435213Y157988D02*
X436787D01*
X432850Y159366D02*
Y160547D01*
Y164287D02*
Y169012D01*
X439150D01*
Y164287D02*
Y169012D01*
Y159957D02*
Y162713D01*
X432850Y157988D02*
Y159366D01*
Y160547D02*
Y162713D01*
Y157988D02*
X435213D01*
X405543Y194150D02*
X407512D01*
Y190213D02*
Y191787D01*
X404953Y187850D02*
X406134D01*
X396488D02*
X401213D01*
X396488D02*
Y194150D01*
X401213D01*
X402787D02*
X405543D01*
X406134Y187850D02*
X407512D01*
X402787D02*
X404953D01*
X407512D02*
Y190213D01*
Y191787D02*
Y194150D01*
X405181Y169669D02*
X411874D01*
Y178331D01*
X405181D02*
X411874D01*
X396126D02*
X402819D01*
X396126Y169669D02*
Y178331D01*
Y169669D02*
X402819D01*
X405543Y186150D02*
X407512D01*
Y182213D02*
Y183787D01*
X404953Y179850D02*
X406134D01*
X396488D02*
X401213D01*
X396488D02*
Y186150D01*
X401213D01*
X402787D02*
X405543D01*
X406134Y179850D02*
X407512D01*
X402787D02*
X404953D01*
X407512D02*
Y182213D01*
Y183787D02*
Y186150D01*
X415626Y156831D02*
X422319D01*
X415626Y148169D02*
Y156831D01*
Y148169D02*
X422319D01*
X424681D02*
X431374D01*
Y156831D01*
X424681D02*
X431374D01*
X367681Y170169D02*
X374374D01*
Y178831D01*
X367681D02*
X374374D01*
X358626D02*
X365319D01*
X358626Y170169D02*
Y178831D01*
Y170169D02*
X365319D01*
X362988Y179850D02*
X364957D01*
X362988Y182213D02*
Y183787D01*
X364366Y186150D02*
X365547D01*
X369287D02*
X374012D01*
Y179850D02*
Y186150D01*
X369287Y179850D02*
X374012D01*
X364957D02*
X367713D01*
X362988Y186150D02*
X364366D01*
X365547D02*
X367713D01*
X362988Y183787D02*
Y186150D01*
Y179850D02*
Y182213D01*
Y187850D02*
X364957D01*
X362988Y190213D02*
Y191787D01*
X364366Y194150D02*
X365547D01*
X369287D02*
X374012D01*
Y187850D02*
Y194150D01*
X369287Y187850D02*
X374012D01*
X364957D02*
X367713D01*
X362988Y194150D02*
X364366D01*
X365547D02*
X367713D01*
X362988Y191787D02*
Y194150D01*
Y187850D02*
Y190213D01*
X391350Y377066D02*
X393713D01*
X391350Y375098D02*
Y377066D01*
X393713D02*
X395287D01*
X397650Y374507D02*
Y375688D01*
Y366042D02*
Y370767D01*
X391350Y366042D02*
X397650D01*
X391350D02*
Y370767D01*
Y372342D02*
Y375098D01*
X397650Y375688D02*
Y377066D01*
Y372342D02*
Y374507D01*
X395287Y377066D02*
X397650D01*
X404087Y366143D02*
X406450D01*
Y368111D01*
X402513Y366143D02*
X404087D01*
X400150Y367520D02*
Y368702D01*
Y372442D02*
Y377166D01*
X406450D01*
Y372442D02*
Y377166D01*
Y368111D02*
Y370867D01*
X400150Y366143D02*
Y367520D01*
Y368702D02*
Y370867D01*
Y366143D02*
X402513D01*
D11*
X188036Y329360D02*
Y332864D01*
X267564Y329360D02*
Y332864D01*
X188036Y253336D02*
Y256840D01*
X267564Y253336D02*
Y256840D01*
X188036Y332864D02*
X191540D01*
X264060D02*
X267564D01*
X188036Y253336D02*
X191540D01*
X264060D02*
X267564D01*
X220359Y358623D02*
Y373977D01*
X240241Y358623D02*
Y373977D01*
D15*
X276601Y247099D02*
X277100Y247599D01*
X278100D01*
X278600Y247099D01*
Y245100D01*
X278100Y244600D01*
X277100D01*
X276601Y245100D01*
X275601Y247099D02*
X275101Y247599D01*
X274101D01*
X273602Y247099D01*
Y246599D01*
X274101Y246099D01*
X273602Y245600D01*
Y245100D01*
X274101Y244600D01*
X275101D01*
X275601Y245100D01*
Y245600D01*
X275101Y246099D01*
X275601Y246599D01*
Y247099D01*
X275101Y246099D02*
X274101D01*
X270603Y244600D02*
X272602D01*
X270603Y246599D01*
Y247099D01*
X271102Y247599D01*
X272102D01*
X272602Y247099D01*
X244701Y244465D02*
X245200Y244965D01*
X246200D01*
X246700Y244465D01*
Y242466D01*
X246200Y241966D01*
X245200D01*
X244701Y242466D01*
X243701Y244965D02*
X241701D01*
Y244465D01*
X243701Y242466D01*
Y241966D01*
X240702Y244465D02*
X240202Y244965D01*
X239202D01*
X238702Y244465D01*
Y243965D01*
X239202Y243465D01*
X238702Y242966D01*
Y242466D01*
X239202Y241966D01*
X240202D01*
X240702Y242466D01*
Y242966D01*
X240202Y243465D01*
X240702Y243965D01*
Y244465D01*
X240202Y243465D02*
X239202D01*
X159999Y251000D02*
X160499Y251500D01*
X161499D01*
X161999Y251000D01*
Y249000D01*
X161499Y248500D01*
X160499D01*
X159999Y249000D01*
X159000Y251500D02*
X157000D01*
Y251000D01*
X159000Y249000D01*
Y248500D01*
X156001Y251500D02*
X154001D01*
Y251000D01*
X156001Y249000D01*
Y248500D01*
X156499Y290500D02*
X156999Y291000D01*
X157999D01*
X158499Y290500D01*
Y288500D01*
X157999Y288000D01*
X156999D01*
X156499Y288500D01*
X153500Y291000D02*
X155500D01*
Y289500D01*
X154500Y290000D01*
X154000D01*
X153500Y289500D01*
Y288500D01*
X154000Y288000D01*
X155000D01*
X155500Y288500D01*
X150501Y288000D02*
X152501D01*
X150501Y290000D01*
Y290500D01*
X151001Y291000D01*
X152001D01*
X152501Y290500D01*
X157355Y315500D02*
X156855Y315001D01*
X155855D01*
X155356Y315500D01*
Y317500D01*
X155855Y318000D01*
X156855D01*
X157355Y317500D01*
X160354Y315001D02*
X158354D01*
Y316500D01*
X159354Y316000D01*
X159854D01*
X160354Y316500D01*
Y317500D01*
X159854Y318000D01*
X158854D01*
X158354Y317500D01*
X161354Y318000D02*
X162353D01*
X161853D01*
Y315001D01*
X161354Y315500D01*
X396499Y379000D02*
Y381999D01*
X395000D01*
X394500Y381500D01*
Y380500D01*
X395000Y380000D01*
X396499D01*
X395499D02*
X394500Y379000D01*
X391501D02*
X393500D01*
X391501Y381000D01*
Y381500D01*
X392001Y381999D01*
X393000D01*
X393500Y381500D01*
X405499Y379501D02*
Y382500D01*
X404000D01*
X403500Y382000D01*
Y381000D01*
X404000Y380500D01*
X405499D01*
X404500D02*
X403500Y379501D01*
X402500D02*
X401501D01*
X402001D01*
Y382500D01*
X402500Y382000D01*
X240499Y224000D02*
X238500Y221001D01*
Y224000D02*
X240499Y221001D01*
X237500D02*
X236501D01*
X237000D01*
Y224000D01*
X237500Y223500D01*
X246999Y356500D02*
Y354000D01*
X246499Y353501D01*
X245500D01*
X245000Y354000D01*
Y356500D01*
X242001D02*
X243001Y356000D01*
X244000Y355000D01*
Y354000D01*
X243500Y353501D01*
X242501D01*
X242001Y354000D01*
Y354500D01*
X242501Y355000D01*
X244000D01*
X273200Y345099D02*
Y342600D01*
X272700Y342100D01*
X271701D01*
X271201Y342600D01*
Y345099D01*
X268202D02*
X270201D01*
Y343600D01*
X269201Y344099D01*
X268702D01*
X268202Y343600D01*
Y342600D01*
X268702Y342100D01*
X269701D01*
X270201Y342600D01*
X250999Y375001D02*
Y377999D01*
X249499D01*
X248999Y377500D01*
Y376500D01*
X249499Y376000D01*
X250999D01*
X249999D02*
X248999Y375001D01*
X246000D02*
X248000D01*
X246000Y377000D01*
Y377500D01*
X246500Y377999D01*
X247500D01*
X248000Y377500D01*
X245001Y375500D02*
X244501Y375001D01*
X243501D01*
X243001Y375500D01*
Y377500D01*
X243501Y377999D01*
X244501D01*
X245001Y377500D01*
Y377000D01*
X244501Y376500D01*
X243001D01*
X233499Y394500D02*
Y397499D01*
X231999D01*
X231499Y397000D01*
Y396000D01*
X231999Y395500D01*
X233499D01*
X232499D02*
X231499Y394500D01*
X228500D02*
X230500D01*
X228500Y396500D01*
Y397000D01*
X229000Y397499D01*
X230000D01*
X230500Y397000D01*
X227501D02*
X227001Y397499D01*
X226001D01*
X225501Y397000D01*
Y396500D01*
X226001Y396000D01*
X225501Y395500D01*
Y395000D01*
X226001Y394500D01*
X227001D01*
X227501Y395000D01*
Y395500D01*
X227001Y396000D01*
X227501Y396500D01*
Y397000D01*
X227001Y396000D02*
X226001D01*
X208999Y217001D02*
Y220000D01*
X207499D01*
X206999Y219500D01*
Y218500D01*
X207499Y218000D01*
X208999D01*
X207999D02*
X206999Y217001D01*
X204000D02*
X206000D01*
X204000Y219000D01*
Y219500D01*
X204500Y220000D01*
X205500D01*
X206000Y219500D01*
X203001Y220000D02*
X201001D01*
Y219500D01*
X203001Y217500D01*
Y217001D01*
X267999Y242001D02*
Y245000D01*
X266499D01*
X265999Y244500D01*
Y243500D01*
X266499Y243000D01*
X267999D01*
X266999D02*
X265999Y242001D01*
X263000D02*
X265000D01*
X263000Y244000D01*
Y244500D01*
X263500Y245000D01*
X264500D01*
X265000Y244500D01*
X260001Y245000D02*
X261001Y244500D01*
X262001Y243500D01*
Y242500D01*
X261501Y242001D01*
X260501D01*
X260001Y242500D01*
Y243000D01*
X260501Y243500D01*
X262001D01*
X223999Y242001D02*
Y245000D01*
X222499D01*
X221999Y244500D01*
Y243500D01*
X222499Y243000D01*
X223999D01*
X222999D02*
X221999Y242001D01*
X219000D02*
X221000D01*
X219000Y244000D01*
Y244500D01*
X219500Y245000D01*
X220500D01*
X221000Y244500D01*
X216001Y245000D02*
X218001D01*
Y243500D01*
X217001Y244000D01*
X216501D01*
X216001Y243500D01*
Y242500D01*
X216501Y242001D01*
X217501D01*
X218001Y242500D01*
X235928Y242006D02*
Y245005D01*
X234429D01*
X233929Y244505D01*
Y243505D01*
X234429Y243005D01*
X235928D01*
X234928D02*
X233929Y242006D01*
X230930D02*
X232929D01*
X230930Y244005D01*
Y244505D01*
X231430Y245005D01*
X232429D01*
X232929Y244505D01*
X228431Y242006D02*
Y245005D01*
X229930Y243505D01*
X227931D01*
X300999Y266500D02*
Y269499D01*
X299499D01*
X298999Y269000D01*
Y268000D01*
X299499Y267500D01*
X300999D01*
X299999D02*
X298999Y266500D01*
X296000D02*
X298000D01*
X296000Y268500D01*
Y269000D01*
X296500Y269499D01*
X297500D01*
X298000Y269000D01*
X295001D02*
X294501Y269499D01*
X293501D01*
X293001Y269000D01*
Y268500D01*
X293501Y268000D01*
X294001D01*
X293501D01*
X293001Y267500D01*
Y267000D01*
X293501Y266500D01*
X294501D01*
X295001Y267000D01*
X300999Y276501D02*
Y279500D01*
X299499D01*
X298999Y279000D01*
Y278000D01*
X299499Y277500D01*
X300999D01*
X299999D02*
X298999Y276501D01*
X296000D02*
X298000D01*
X296000Y278500D01*
Y279000D01*
X296500Y279500D01*
X297500D01*
X298000Y279000D01*
X293001Y276501D02*
X295001D01*
X293001Y278500D01*
Y279000D01*
X293501Y279500D01*
X294501D01*
X295001Y279000D01*
X300499Y256501D02*
Y259500D01*
X298999D01*
X298499Y259000D01*
Y258000D01*
X298999Y257500D01*
X300499D01*
X299499D02*
X298499Y256501D01*
X295500D02*
X297500D01*
X295500Y258500D01*
Y259000D01*
X296000Y259500D01*
X297000D01*
X297500Y259000D01*
X294501Y256501D02*
X293501D01*
X294001D01*
Y259500D01*
X294501Y259000D01*
X158849Y274601D02*
Y277600D01*
X157349D01*
X156849Y277100D01*
Y276100D01*
X157349Y275600D01*
X158849D01*
X157849D02*
X156849Y274601D01*
X155850D02*
X154850D01*
X155350D01*
Y277600D01*
X155850Y277100D01*
X153351Y277600D02*
X151351D01*
Y277100D01*
X153351Y275100D01*
Y274601D01*
X211749Y242001D02*
Y245000D01*
X210249D01*
X209749Y244500D01*
Y243500D01*
X210249Y243000D01*
X211749D01*
X210749D02*
X209749Y242001D01*
X208750D02*
X207750D01*
X208250D01*
Y245000D01*
X208750Y244500D01*
X204251Y245000D02*
X206251D01*
Y243500D01*
X205251Y244000D01*
X204751D01*
X204251Y243500D01*
Y242500D01*
X204751Y242001D01*
X205751D01*
X206251Y242500D01*
X158949Y266500D02*
Y269499D01*
X157449D01*
X156949Y269000D01*
Y268000D01*
X157449Y267500D01*
X158949D01*
X157949D02*
X156949Y266500D01*
X155950D02*
X154950D01*
X155450D01*
Y269499D01*
X155950Y269000D01*
X151951Y266500D02*
Y269499D01*
X153451Y268000D01*
X151451D01*
X179749Y204999D02*
X181748D01*
Y203500D01*
X180749D01*
X181748D01*
Y202000D01*
X178749Y204999D02*
Y202000D01*
X177250D01*
X176750Y202500D01*
Y203000D01*
X177250Y203500D01*
X178749D01*
X177250D01*
X176750Y204000D01*
Y204500D01*
X177250Y204999D01*
X178749D01*
X175750Y202000D02*
X174751D01*
X175250D01*
Y204999D01*
X175750Y204500D01*
X171252Y204999D02*
X172251Y204500D01*
X173251Y203500D01*
Y202500D01*
X172751Y202000D01*
X171751D01*
X171252Y202500D01*
Y203000D01*
X171751Y203500D01*
X173251D01*
X160999Y327000D02*
X161499Y327500D01*
X162499D01*
X162999Y327000D01*
Y325000D01*
X162499Y324500D01*
X161499D01*
X160999Y325000D01*
X160000Y327500D02*
X158000D01*
Y327000D01*
X160000Y325000D01*
Y324500D01*
X157001Y327000D02*
X156501Y327500D01*
X155501D01*
X155001Y327000D01*
Y326500D01*
X155501Y326000D01*
X156001D01*
X155501D01*
X155001Y325500D01*
Y325000D01*
X155501Y324500D01*
X156501D01*
X157001Y325000D01*
X250999Y350000D02*
X251499Y350500D01*
X252499D01*
X252999Y350000D01*
Y348000D01*
X252499Y347500D01*
X251499D01*
X250999Y348000D01*
X250000Y350500D02*
X248000D01*
Y350000D01*
X250000Y348000D01*
Y347500D01*
X245001D02*
X247001D01*
X245001Y349500D01*
Y350000D01*
X245501Y350500D01*
X246501D01*
X247001Y350000D01*
X206500Y210500D02*
X206999Y210999D01*
X207999D01*
X208499Y210500D01*
Y208500D01*
X207999Y208000D01*
X206999D01*
X206500Y208500D01*
X205500Y210999D02*
X203501D01*
Y210500D01*
X205500Y208500D01*
Y208000D01*
X202501D02*
X201501D01*
X202001D01*
Y210999D01*
X202501Y210500D01*
X207499Y202000D02*
X207999Y202500D01*
X208999D01*
X209499Y202000D01*
Y200000D01*
X208999Y199501D01*
X207999D01*
X207499Y200000D01*
X206500Y202500D02*
X204500D01*
Y202000D01*
X206500Y200000D01*
Y199501D01*
X203501Y202000D02*
X203001Y202500D01*
X202001D01*
X201501Y202000D01*
Y200000D01*
X202001Y199501D01*
X203001D01*
X203501Y200000D01*
Y202000D01*
X254999Y244500D02*
X255499Y245000D01*
X256499D01*
X256999Y244500D01*
Y242500D01*
X256499Y242001D01*
X255499D01*
X254999Y242500D01*
X252000Y245000D02*
X253000Y244500D01*
X254000Y243500D01*
Y242500D01*
X253500Y242001D01*
X252500D01*
X252000Y242500D01*
Y243000D01*
X252500Y243500D01*
X254000D01*
X251001Y242500D02*
X250501Y242001D01*
X249501D01*
X249001Y242500D01*
Y244500D01*
X249501Y245000D01*
X250501D01*
X251001Y244500D01*
Y244000D01*
X250501Y243500D01*
X249001D01*
X183999Y238500D02*
X184499Y239000D01*
X185499D01*
X185999Y238500D01*
Y236500D01*
X185499Y236000D01*
X184499D01*
X183999Y236500D01*
X181000Y239000D02*
X182000Y238500D01*
X183000Y237500D01*
Y236500D01*
X182500Y236000D01*
X181500D01*
X181000Y236500D01*
Y237000D01*
X181500Y237500D01*
X183000D01*
X180001Y238500D02*
X179501Y239000D01*
X178501D01*
X178001Y238500D01*
Y238000D01*
X178501Y237500D01*
X178001Y237000D01*
Y236500D01*
X178501Y236000D01*
X179501D01*
X180001Y236500D01*
Y237000D01*
X179501Y237500D01*
X180001Y238000D01*
Y238500D01*
X179501Y237500D02*
X178501D01*
X183499Y229000D02*
X183999Y229500D01*
X184999D01*
X185499Y229000D01*
Y227000D01*
X184999Y226501D01*
X183999D01*
X183499Y227000D01*
X180500Y229500D02*
X181500Y229000D01*
X182500Y228000D01*
Y227000D01*
X182000Y226501D01*
X181000D01*
X180500Y227000D01*
Y227500D01*
X181000Y228000D01*
X182500D01*
X179501Y229500D02*
X177501D01*
Y229000D01*
X179501Y227000D01*
Y226501D01*
X206999Y352000D02*
X207499Y352500D01*
X208499D01*
X208999Y352000D01*
Y350000D01*
X208499Y349500D01*
X207499D01*
X206999Y350000D01*
X204000Y352500D02*
X205000Y352000D01*
X206000Y351000D01*
Y350000D01*
X205500Y349500D01*
X204500D01*
X204000Y350000D01*
Y350500D01*
X204500Y351000D01*
X206000D01*
X201001Y352500D02*
X202001Y352000D01*
X203001Y351000D01*
Y350000D01*
X202501Y349500D01*
X201501D01*
X201001Y350000D01*
Y350500D01*
X201501Y351000D01*
X203001D01*
X279999Y351000D02*
X280499Y351500D01*
X281499D01*
X281999Y351000D01*
Y349000D01*
X281499Y348500D01*
X280499D01*
X279999Y349000D01*
X277000Y351500D02*
X278000Y351000D01*
X279000Y350000D01*
Y349000D01*
X278500Y348500D01*
X277500D01*
X277000Y349000D01*
Y349500D01*
X277500Y350000D01*
X279000D01*
X274501Y348500D02*
Y351500D01*
X276001Y350000D01*
X274001D01*
X160399Y337000D02*
X160899Y337499D01*
X161899D01*
X162399Y337000D01*
Y335000D01*
X161899Y334501D01*
X160899D01*
X160399Y335000D01*
X157400Y337499D02*
X158400Y337000D01*
X159400Y336000D01*
Y335000D01*
X158900Y334501D01*
X157900D01*
X157400Y335000D01*
Y335500D01*
X157900Y336000D01*
X159400D01*
X156401Y337000D02*
X155901Y337499D01*
X154901D01*
X154401Y337000D01*
Y336500D01*
X154901Y336000D01*
X155401D01*
X154901D01*
X154401Y335500D01*
Y335000D01*
X154901Y334501D01*
X155901D01*
X156401Y335000D01*
X222499Y202000D02*
X222999Y202500D01*
X223999D01*
X224499Y202000D01*
Y200000D01*
X223999Y199501D01*
X222999D01*
X222499Y200000D01*
X219500Y202500D02*
X220500Y202000D01*
X221500Y201000D01*
Y200000D01*
X221000Y199501D01*
X220000D01*
X219500Y200000D01*
Y200500D01*
X220000Y201000D01*
X221500D01*
X216501Y199501D02*
X218501D01*
X216501Y201500D01*
Y202000D01*
X217001Y202500D01*
X218001D01*
X218501Y202000D01*
X233999D02*
X234499Y202500D01*
X235499D01*
X235999Y202000D01*
Y200000D01*
X235499Y199501D01*
X234499D01*
X233999Y200000D01*
X231000Y202500D02*
X232000Y202000D01*
X233000Y201000D01*
Y200000D01*
X232500Y199501D01*
X231500D01*
X231000Y200000D01*
Y200500D01*
X231500Y201000D01*
X233000D01*
X230001Y199501D02*
X229001D01*
X229501D01*
Y202500D01*
X230001Y202000D01*
X215499Y377000D02*
X215999Y377500D01*
X216999D01*
X217499Y377000D01*
Y375000D01*
X216999Y374500D01*
X215999D01*
X215499Y375000D01*
X213000Y374500D02*
Y377500D01*
X214500Y376000D01*
X212500D01*
X211501Y375000D02*
X211001Y374500D01*
X210001D01*
X209501Y375000D01*
Y377000D01*
X210001Y377500D01*
X211001D01*
X211501Y377000D01*
Y376500D01*
X211001Y376000D01*
X209501D01*
M02*
