G04*
G04 #@! TF.GenerationSoftware,Altium Limited,Altium Designer,21.0.8 (223)*
G04*
G04 Layer_Color=8388736*
%FSLAX25Y25*%
%MOIN*%
G70*
G04*
G04 #@! TF.SameCoordinates,8C76C3ED-8D82-4A5C-AC10-AB376F5EDEF7*
G04*
G04*
G04 #@! TF.FilePolarity,Negative*
G04*
G01*
G75*
%ADD34R,0.03940X0.04334*%
%ADD35R,0.12995X0.08665*%
%ADD36R,0.04334X0.03940*%
%ADD37R,0.03940X0.08665*%
%ADD38R,0.06696X0.03192*%
%ADD39R,0.01968X0.03543*%
%ADD40R,0.03347X0.03543*%
%ADD41R,0.03543X0.01968*%
%ADD42R,0.03941X0.03941*%
%ADD43R,0.01370X0.01370*%
%ADD44R,0.01370X0.01970*%
%ADD45R,0.01970X0.01370*%
%ADD46R,0.01370X0.01370*%
%ADD47R,0.01370X0.01970*%
%ADD48R,0.23035X0.23035*%
%ADD49R,0.05672X0.06381*%
G04:AMPARAMS|DCode=50|XSize=63.81mil|YSize=18.14mil|CornerRadius=3.02mil|HoleSize=0mil|Usage=FLASHONLY|Rotation=180.000|XOffset=0mil|YOffset=0mil|HoleType=Round|Shape=RoundedRectangle|*
%AMROUNDEDRECTD50*
21,1,0.06381,0.01211,0,0,180.0*
21,1,0.05778,0.01814,0,0,180.0*
1,1,0.00604,-0.02889,0.00605*
1,1,0.00604,0.02889,0.00605*
1,1,0.00604,0.02889,-0.00605*
1,1,0.00604,-0.02889,-0.00605*
%
%ADD50ROUNDEDRECTD50*%
%ADD51R,0.06381X0.05672*%
%ADD52C,0.25200*%
%ADD53O,0.06106X0.05121*%
%ADD54O,0.05121X0.06106*%
%ADD55O,0.06499X0.08074*%
%ADD56R,0.06499X0.08074*%
%ADD57C,0.09649*%
%ADD58C,0.06696*%
%ADD59C,0.01775*%
G36*
X105000Y475000D02*
X106000Y474950D01*
X469000D01*
X470000Y475000D01*
X470000Y475000D01*
X470493Y475000D01*
X471459Y474808D01*
X472368Y474431D01*
X473187Y473884D01*
X473884Y473187D01*
X474431Y472368D01*
X474808Y471459D01*
X475000Y470493D01*
X475000Y470000D01*
X475000Y347500D01*
X475000Y347500D01*
X475000Y347007D01*
X474808Y346041D01*
X474431Y345131D01*
X473884Y344312D01*
X473187Y343616D01*
X472368Y343069D01*
X471458Y342692D01*
X470493Y342500D01*
X470000Y342500D01*
X470000Y342500D01*
X469510Y342476D01*
X468548Y342285D01*
X467643Y341910D01*
X466828Y341365D01*
X466135Y340672D01*
X465590Y339857D01*
X465215Y338951D01*
X465024Y337990D01*
X465000Y337500D01*
X465050Y237452D01*
X465050Y237452D01*
X465074Y236967D01*
X465263Y236015D01*
X465634Y235118D01*
X466173Y234311D01*
X466859Y233624D01*
X467666Y233085D01*
X468563Y232714D01*
X469515Y232524D01*
X470000Y232500D01*
X470000Y232500D01*
X470492Y232500D01*
X471459Y232308D01*
X472369Y231931D01*
X473188Y231384D01*
X473884Y230688D01*
X474432Y229869D01*
X474808Y228959D01*
X475000Y227993D01*
X475000Y227500D01*
X475000Y105000D01*
X475000Y105000D01*
Y104507D01*
X474808Y103541D01*
X474431Y102631D01*
X473884Y101812D01*
X473187Y101116D01*
X472368Y100569D01*
X471458Y100192D01*
X470493Y100000D01*
X470000D01*
X468000Y99950D01*
Y105000D01*
X469000D01*
X469195Y105019D01*
X469556Y105168D01*
X469832Y105444D01*
X469981Y105805D01*
X470000Y106000D01*
X470000Y226500D01*
X469981Y226695D01*
X469832Y227056D01*
X469556Y227331D01*
X469195Y227481D01*
X469000Y227500D01*
X468114Y227500D01*
X466375Y227846D01*
X464737Y228524D01*
X463263Y229509D01*
X462009Y230763D01*
X461024Y232237D01*
X460346Y233875D01*
X460000Y235614D01*
X460000Y236500D01*
X460000Y337500D01*
Y337500D01*
X459951Y338436D01*
X460219Y340290D01*
X460844Y342057D01*
X461802Y343668D01*
X463056Y345060D01*
X464557Y346182D01*
X466248Y346989D01*
X468064Y347450D01*
X469000Y347500D01*
Y347500D01*
X469195Y347519D01*
X469556Y347668D01*
X469832Y347944D01*
X469981Y348305D01*
X470000Y348500D01*
X470000Y469000D01*
X470000Y469000D01*
X469981Y469195D01*
X469832Y469556D01*
X469556Y469832D01*
X469195Y469981D01*
X469000Y470000D01*
Y470000D01*
X446000D01*
X445805Y469981D01*
X445444Y469832D01*
X445168Y469556D01*
X445019Y469195D01*
X445000Y469000D01*
Y456000D01*
X420000D01*
Y469000D01*
X419981Y469195D01*
X419832Y469556D01*
X419556Y469832D01*
X419195Y469981D01*
X419000Y470000D01*
X156000D01*
X155805Y469981D01*
X155444Y469832D01*
X155168Y469556D01*
X155019Y469195D01*
X155000Y469000D01*
Y456000D01*
X130000D01*
Y469000D01*
X129981Y469195D01*
X129832Y469556D01*
X129556Y469832D01*
X129195Y469981D01*
X129000Y470000D01*
X106000D01*
X106000Y470000D01*
X105805Y469980D01*
X105444Y469831D01*
X105168Y469555D01*
X105019Y469195D01*
X105000Y469000D01*
Y348500D01*
Y348500D01*
X105019Y348305D01*
X105168Y347944D01*
X105444Y347668D01*
X105805Y347519D01*
X106000Y347500D01*
X106000Y347500D01*
X106936Y347450D01*
X108752Y346989D01*
X110443Y346182D01*
X111944Y345060D01*
X113198Y343667D01*
X114156Y342057D01*
X114781Y340290D01*
X115049Y338436D01*
X115000Y337500D01*
X115000Y236500D01*
X115000Y236500D01*
X115000Y235614D01*
X114654Y233875D01*
X113976Y232237D01*
X112991Y230763D01*
X111737Y229509D01*
X110263Y228524D01*
X108625Y227846D01*
X106886Y227500D01*
X106000D01*
X105805Y227481D01*
X105444Y227331D01*
X105168Y227056D01*
X105019Y226695D01*
X105000Y226500D01*
X105000Y106000D01*
X105019Y105805D01*
X105168Y105444D01*
X105444Y105168D01*
X105805Y105019D01*
X106000Y105000D01*
X106000Y99950D01*
X105000Y100000D01*
X104508D01*
X103542Y100192D01*
X102632Y100569D01*
X101813Y101116D01*
X101116Y101813D01*
X100569Y102632D01*
X100192Y103542D01*
X100000Y104508D01*
X100000Y105000D01*
Y227500D01*
X100000Y227992D01*
X100192Y228959D01*
X100569Y229869D01*
X101116Y230688D01*
X101812Y231384D01*
X102631Y231931D01*
X103541Y232308D01*
X104508Y232500D01*
X105000Y232500D01*
X105000Y232500D01*
X105490Y232524D01*
X106451Y232715D01*
X107357Y233090D01*
X108172Y233635D01*
X108865Y234328D01*
X109410Y235143D01*
X109785Y236049D01*
X109976Y237010D01*
X110000Y237500D01*
X110000Y337500D01*
X110000Y337500D01*
X109976Y337990D01*
X109785Y338951D01*
X109410Y339857D01*
X108865Y340672D01*
X108172Y341365D01*
X107357Y341910D01*
X106451Y342285D01*
X105490Y342476D01*
X105000Y342500D01*
X105000Y342500D01*
X104507Y342500D01*
X103541Y342692D01*
X102631Y343069D01*
X101813Y343616D01*
X101116Y344313D01*
X100569Y345131D01*
X100192Y346041D01*
X100000Y347007D01*
X100000Y347500D01*
Y470000D01*
X100000Y470493D01*
X100192Y471459D01*
X100569Y472369D01*
X101116Y473188D01*
X101813Y473884D01*
X102631Y474431D01*
X103542Y474808D01*
X104508Y475000D01*
X105000Y475000D01*
D02*
G37*
G36*
X457500Y106000D02*
X457519Y105805D01*
X457668Y105444D01*
X457944Y105168D01*
X458305Y105019D01*
X458500Y105000D01*
X431500D01*
X431695Y105019D01*
X432056Y105168D01*
X432332Y105444D01*
X432481Y105805D01*
X432500Y106000D01*
Y119000D01*
X457500D01*
Y106000D01*
D02*
G37*
G36*
X142500D02*
X142519Y105805D01*
X142668Y105444D01*
X142944Y105168D01*
X143305Y105019D01*
X143500Y105000D01*
X116500D01*
X116695Y105019D01*
X117056Y105168D01*
X117332Y105444D01*
X117481Y105805D01*
X117500Y106000D01*
Y119000D01*
X142500D01*
Y106000D01*
D02*
G37*
G36*
X468000Y99950D02*
X106000Y99950D01*
X106000Y105000D01*
X468000Y105000D01*
X468000Y99950D01*
D02*
G37*
D34*
X194000Y257000D02*
D03*
X199709D02*
D03*
X246145Y303386D02*
D03*
X251853D02*
D03*
X227854Y327000D02*
D03*
X222146D02*
D03*
X267146Y294000D02*
D03*
X272854D02*
D03*
X435854Y319000D02*
D03*
X430146D02*
D03*
X392854D02*
D03*
X387146D02*
D03*
X368146Y193000D02*
D03*
X373854D02*
D03*
X369354Y243500D02*
D03*
X363646D02*
D03*
X392912Y345100D02*
D03*
X387597D02*
D03*
X387300Y336400D02*
D03*
X393009D02*
D03*
X387400Y327600D02*
D03*
X393109D02*
D03*
X402146Y183000D02*
D03*
X407854D02*
D03*
X402146Y191000D02*
D03*
X407854D02*
D03*
X424854Y209000D02*
D03*
X419146D02*
D03*
X439657Y243000D02*
D03*
X434342D02*
D03*
X419343D02*
D03*
X424657D02*
D03*
X419354Y385746D02*
D03*
X413646D02*
D03*
X419154Y394100D02*
D03*
X413446D02*
D03*
X431146Y281000D02*
D03*
X436854D02*
D03*
D35*
X394200Y127683D02*
D03*
D36*
X413000Y135146D02*
D03*
Y140854D02*
D03*
X375600Y135246D02*
D03*
Y140954D02*
D03*
X449800Y348900D02*
D03*
Y354609D02*
D03*
X292500Y231842D02*
D03*
Y237158D02*
D03*
X284000Y264158D02*
D03*
Y258842D02*
D03*
X292000Y264158D02*
D03*
Y258842D02*
D03*
X440900Y348900D02*
D03*
Y354609D02*
D03*
X431500Y348800D02*
D03*
Y354509D02*
D03*
X427000Y195146D02*
D03*
Y200854D02*
D03*
X381000Y184146D02*
D03*
Y189854D02*
D03*
X419000Y195146D02*
D03*
Y200854D02*
D03*
Y217146D02*
D03*
Y222854D02*
D03*
X426000Y217146D02*
D03*
Y222854D02*
D03*
X440000Y235854D02*
D03*
Y230146D02*
D03*
X426000Y230343D02*
D03*
Y235658D02*
D03*
X433000Y235854D02*
D03*
Y230146D02*
D03*
X283500Y237354D02*
D03*
Y231646D02*
D03*
X419000Y235854D02*
D03*
Y230146D02*
D03*
X403900Y385491D02*
D03*
Y391200D02*
D03*
X394000Y287146D02*
D03*
Y292854D02*
D03*
X414000Y289354D02*
D03*
Y283646D02*
D03*
X430000Y293854D02*
D03*
Y288146D02*
D03*
X455500Y283646D02*
D03*
Y289354D02*
D03*
X386000Y292854D02*
D03*
Y287146D02*
D03*
X438000Y288146D02*
D03*
Y293854D02*
D03*
X388000Y184146D02*
D03*
Y189854D02*
D03*
D37*
X385145Y150517D02*
D03*
X394200D02*
D03*
X403255D02*
D03*
D38*
X439260Y311000D02*
D03*
Y301000D02*
D03*
X426740D02*
D03*
Y306000D02*
D03*
Y311000D02*
D03*
X396260D02*
D03*
Y301000D02*
D03*
X383740D02*
D03*
Y306000D02*
D03*
Y311000D02*
D03*
D39*
X405219Y362163D02*
D03*
X408172D02*
D03*
X411125D02*
D03*
X414077D02*
D03*
X417026Y362161D02*
D03*
X419979D02*
D03*
X405220Y340491D02*
D03*
X408173D02*
D03*
X411126D02*
D03*
X414079D02*
D03*
X417027Y340489D02*
D03*
X419980D02*
D03*
D40*
X401671Y340493D02*
D03*
X401671Y362161D02*
D03*
X423520Y362161D02*
D03*
X423521Y340489D02*
D03*
D41*
X401768Y358459D02*
D03*
Y344187D02*
D03*
Y355604D02*
D03*
Y352750D02*
D03*
Y349896D02*
D03*
Y347041D02*
D03*
X423418Y349900D02*
D03*
Y352754D02*
D03*
Y355609D02*
D03*
Y344191D02*
D03*
X423420Y358458D02*
D03*
X423418Y347046D02*
D03*
D42*
X418500Y345426D02*
D03*
Y349363D02*
D03*
Y353300D02*
D03*
Y357237D02*
D03*
X406689Y345426D02*
D03*
Y349363D02*
D03*
Y353300D02*
D03*
Y357237D02*
D03*
X410626Y345426D02*
D03*
Y349363D02*
D03*
Y353300D02*
D03*
Y357237D02*
D03*
X414563Y349363D02*
D03*
Y353300D02*
D03*
Y357237D02*
D03*
Y345426D02*
D03*
D43*
X404570Y231590D02*
D03*
X406540D02*
D03*
X402590D02*
D03*
X400620D02*
D03*
X398660D02*
D03*
X396690D02*
D03*
X394720D02*
D03*
X392760D02*
D03*
X390790D02*
D03*
X388810D02*
D03*
X386840D02*
D03*
X384870D02*
D03*
X382920D02*
D03*
X380940D02*
D03*
X404510Y202080D02*
D03*
X406470D02*
D03*
X402540D02*
D03*
X400570D02*
D03*
X398590D02*
D03*
X396640D02*
D03*
X394670D02*
D03*
X392690D02*
D03*
X390720D02*
D03*
X388760D02*
D03*
X386790D02*
D03*
X384810D02*
D03*
X382860D02*
D03*
X380890D02*
D03*
D44*
X407510Y233830D02*
D03*
X405540D02*
D03*
X403590D02*
D03*
X401620D02*
D03*
X399640D02*
D03*
X397670D02*
D03*
X395710D02*
D03*
X393740D02*
D03*
X391770D02*
D03*
X389810D02*
D03*
X387840D02*
D03*
X385870D02*
D03*
X383890D02*
D03*
X381920D02*
D03*
X407440Y199830D02*
D03*
X405470D02*
D03*
X403520D02*
D03*
X401560D02*
D03*
X399590D02*
D03*
X397620D02*
D03*
X395640D02*
D03*
X393670D02*
D03*
X391710Y199840D02*
D03*
X389740Y199830D02*
D03*
X387770D02*
D03*
X385810D02*
D03*
X383840D02*
D03*
X381870D02*
D03*
X379890D02*
D03*
D45*
X410740Y230600D02*
D03*
Y228610D02*
D03*
Y226650D02*
D03*
Y224680D02*
D03*
Y222710D02*
D03*
Y220750D02*
D03*
X410720Y218780D02*
D03*
X410740Y216810D02*
D03*
Y214850D02*
D03*
Y212860D02*
D03*
Y210910D02*
D03*
Y208930D02*
D03*
Y206960D02*
D03*
Y205010D02*
D03*
Y203130D02*
D03*
X376720Y230610D02*
D03*
Y228640D02*
D03*
Y226670D02*
D03*
Y224700D02*
D03*
Y222730D02*
D03*
Y220760D02*
D03*
Y218800D02*
D03*
Y216830D02*
D03*
Y214860D02*
D03*
Y212890D02*
D03*
Y210920D02*
D03*
Y208950D02*
D03*
Y206980D02*
D03*
Y205030D02*
D03*
Y203060D02*
D03*
D46*
X408490Y229600D02*
D03*
Y227630D02*
D03*
Y225680D02*
D03*
Y223700D02*
D03*
Y221730D02*
D03*
Y219760D02*
D03*
Y217800D02*
D03*
Y215810D02*
D03*
Y213860D02*
D03*
Y211900D02*
D03*
Y209910D02*
D03*
Y207950D02*
D03*
Y204010D02*
D03*
Y205980D02*
D03*
X378970Y229620D02*
D03*
Y227650D02*
D03*
Y225690D02*
D03*
Y223720D02*
D03*
Y221750D02*
D03*
Y219780D02*
D03*
Y217810D02*
D03*
Y215840D02*
D03*
Y213870D02*
D03*
Y211910D02*
D03*
Y209940D02*
D03*
Y207970D02*
D03*
Y204030D02*
D03*
Y206000D02*
D03*
D47*
X379950Y233830D02*
D03*
D48*
X393720Y216830D02*
D03*
D49*
X424760Y184000D02*
D03*
X417240D02*
D03*
X373760Y185500D02*
D03*
X366240D02*
D03*
X435240Y197000D02*
D03*
X442760D02*
D03*
X435240Y209000D02*
D03*
X442760D02*
D03*
X435240Y221000D02*
D03*
X442760D02*
D03*
X412698Y375046D02*
D03*
X420217D02*
D03*
D50*
X275701Y244161D02*
D03*
Y246721D02*
D03*
Y249279D02*
D03*
Y251839D02*
D03*
X298299D02*
D03*
Y249279D02*
D03*
Y246721D02*
D03*
Y244161D02*
D03*
D51*
X447000Y289260D02*
D03*
Y281740D02*
D03*
X422000D02*
D03*
Y289260D02*
D03*
D52*
X445000Y118800D02*
D03*
X130000D02*
D03*
X432500Y456300D02*
D03*
X142500D02*
D03*
D53*
X134800Y267474D02*
D03*
X323776Y354088D02*
D03*
X315902D02*
D03*
X323776Y330466D02*
D03*
Y322592D02*
D03*
Y314718D02*
D03*
Y306844D02*
D03*
Y298970D02*
D03*
Y291096D02*
D03*
Y283222D02*
D03*
Y275348D02*
D03*
Y259600D02*
D03*
Y251726D02*
D03*
Y243852D02*
D03*
Y235978D02*
D03*
Y228104D02*
D03*
Y220230D02*
D03*
Y212356D02*
D03*
Y204482D02*
D03*
Y196608D02*
D03*
Y188734D02*
D03*
X315902D02*
D03*
Y196608D02*
D03*
Y204482D02*
D03*
Y212356D02*
D03*
Y220230D02*
D03*
Y228104D02*
D03*
Y235978D02*
D03*
Y243852D02*
D03*
Y251726D02*
D03*
Y259600D02*
D03*
Y267474D02*
D03*
Y275348D02*
D03*
Y283222D02*
D03*
Y291096D02*
D03*
Y298970D02*
D03*
Y306844D02*
D03*
Y314718D02*
D03*
Y322592D02*
D03*
Y330466D02*
D03*
Y346214D02*
D03*
Y338340D02*
D03*
X323776D02*
D03*
Y346214D02*
D03*
X134800D02*
D03*
Y338340D02*
D03*
X126926D02*
D03*
Y346214D02*
D03*
Y330466D02*
D03*
Y322592D02*
D03*
Y314718D02*
D03*
Y306844D02*
D03*
Y298970D02*
D03*
Y291096D02*
D03*
Y283222D02*
D03*
Y275348D02*
D03*
Y259600D02*
D03*
Y251726D02*
D03*
Y243852D02*
D03*
Y235978D02*
D03*
Y228104D02*
D03*
Y220230D02*
D03*
Y212356D02*
D03*
Y204482D02*
D03*
Y196608D02*
D03*
Y188734D02*
D03*
X134800D02*
D03*
Y196608D02*
D03*
Y204482D02*
D03*
Y212356D02*
D03*
Y220230D02*
D03*
Y228104D02*
D03*
Y235978D02*
D03*
Y243852D02*
D03*
Y251726D02*
D03*
Y259600D02*
D03*
Y275348D02*
D03*
Y283222D02*
D03*
Y291096D02*
D03*
Y298970D02*
D03*
Y306844D02*
D03*
Y314718D02*
D03*
Y322592D02*
D03*
Y330466D02*
D03*
X126926Y354088D02*
D03*
X134800D02*
D03*
X323776Y267474D02*
D03*
Y180860D02*
D03*
X315902D02*
D03*
X126926Y267474D02*
D03*
Y180860D02*
D03*
X134800D02*
D03*
D54*
X323776Y149264D02*
D03*
X315902D02*
D03*
X308028D02*
D03*
X300154D02*
D03*
X292280D02*
D03*
X284406D02*
D03*
X276532D02*
D03*
X268658D02*
D03*
X260784D02*
D03*
X252910D02*
D03*
X245036D02*
D03*
X237162D02*
D03*
X229288D02*
D03*
X221414D02*
D03*
X213540D02*
D03*
X205666D02*
D03*
Y157138D02*
D03*
X213540D02*
D03*
X221414D02*
D03*
X229288D02*
D03*
X237162D02*
D03*
X245036D02*
D03*
X252910D02*
D03*
X260784D02*
D03*
X268658D02*
D03*
X276532D02*
D03*
X284406D02*
D03*
X292280D02*
D03*
X300154D02*
D03*
X308028D02*
D03*
X315902D02*
D03*
X323776D02*
D03*
D55*
X412500Y456300D02*
D03*
X402500D02*
D03*
X392500D02*
D03*
X382500D02*
D03*
X372500D02*
D03*
X362500D02*
D03*
X352500D02*
D03*
X342500D02*
D03*
X332500D02*
D03*
X322500D02*
D03*
X312500D02*
D03*
X302500D02*
D03*
X292500D02*
D03*
X282500D02*
D03*
X272500D02*
D03*
X262500D02*
D03*
X252500D02*
D03*
X242500D02*
D03*
X232500D02*
D03*
X222500D02*
D03*
X212500D02*
D03*
X202500D02*
D03*
X192500D02*
D03*
X182500D02*
D03*
X172500D02*
D03*
X162500D02*
D03*
X412500Y446300D02*
D03*
X402500D02*
D03*
X392500D02*
D03*
X382500D02*
D03*
X372500D02*
D03*
X362500D02*
D03*
X352500D02*
D03*
X342500D02*
D03*
X332500D02*
D03*
X322500D02*
D03*
X312500D02*
D03*
X302500D02*
D03*
X292500D02*
D03*
X282500D02*
D03*
X272500D02*
D03*
X262500D02*
D03*
X252500D02*
D03*
X242500D02*
D03*
X232500D02*
D03*
X222500D02*
D03*
X212500D02*
D03*
X202500D02*
D03*
X192500D02*
D03*
X182500D02*
D03*
X172500D02*
D03*
X162500D02*
D03*
X412500Y436300D02*
D03*
X402500D02*
D03*
X392500D02*
D03*
X382500D02*
D03*
X372500D02*
D03*
X362500D02*
D03*
X352500D02*
D03*
X342500D02*
D03*
X332500D02*
D03*
X322500D02*
D03*
X312500D02*
D03*
X302500D02*
D03*
X292500D02*
D03*
X282500D02*
D03*
X272500D02*
D03*
X262500D02*
D03*
X252500D02*
D03*
X242500D02*
D03*
X232500D02*
D03*
X222500D02*
D03*
X212500D02*
D03*
X202500D02*
D03*
X192500D02*
D03*
X182500D02*
D03*
X172500D02*
D03*
X162500D02*
D03*
X412500Y426300D02*
D03*
X402500D02*
D03*
X392500D02*
D03*
X382500D02*
D03*
X372500D02*
D03*
X362500D02*
D03*
X352500D02*
D03*
X342500D02*
D03*
X332500D02*
D03*
X322500D02*
D03*
X312500D02*
D03*
X302500D02*
D03*
X292500D02*
D03*
X282500D02*
D03*
X272500D02*
D03*
X262500D02*
D03*
X252500D02*
D03*
X242500D02*
D03*
X232500D02*
D03*
X222500D02*
D03*
X212500D02*
D03*
X202500D02*
D03*
X192500D02*
D03*
X182500D02*
D03*
X172500D02*
D03*
D56*
X162500D02*
D03*
D57*
X462743Y396900D02*
D03*
X442742D02*
D03*
Y376900D02*
D03*
X462743D02*
D03*
X452742Y386900D02*
D03*
D58*
X114600Y419700D02*
D03*
Y409700D02*
D03*
Y389700D02*
D03*
Y379700D02*
D03*
Y369700D02*
D03*
Y399700D02*
D03*
X114900Y433300D02*
D03*
X144900D02*
D03*
X134900D02*
D03*
X124900D02*
D03*
D59*
X359500Y191000D02*
D03*
X191000Y193000D02*
D03*
M02*
