G04*
G04 #@! TF.GenerationSoftware,Altium Limited,Altium Designer,21.0.8 (223)*
G04*
G04 Layer_Color=65280*
%FSLAX25Y25*%
%MOIN*%
G70*
G04*
G04 #@! TF.SameCoordinates,8C76C3ED-8D82-4A5C-AC10-AB376F5EDEF7*
G04*
G04*
G04 #@! TF.FilePolarity,Positive*
G04*
G01*
G75*
%ADD13C,0.01000*%
%ADD60C,0.00600*%
%ADD79C,0.04000*%
%ADD97C,0.02000*%
%ADD98C,0.03000*%
D13*
X84500Y107674D02*
X86500Y101674D01*
X88500Y107674D01*
X86500Y473326D02*
X88500Y467326D01*
X84500D02*
X86500Y473326D01*
Y101674D02*
Y264806D01*
Y306994D02*
Y473326D01*
X85500Y101674D02*
X101778D01*
X85500Y473326D02*
X101778D01*
X102172Y488500D02*
X108172Y490500D01*
X102172Y488500D02*
X108172Y486500D01*
X463000D02*
X469000Y488500D01*
X463000Y490500D02*
X469000Y488500D01*
X102172D02*
X255894D01*
X312077D02*
X469000D01*
X102172Y473828D02*
Y489500D01*
X469000Y473000D02*
Y489500D01*
D60*
X89099Y266406D02*
X90099Y267406D01*
Y269405D01*
X89099Y270405D01*
X85101D01*
X84101Y269405D01*
Y267406D01*
X85101Y266406D01*
X86100D01*
X87100Y267406D01*
Y270405D01*
X90099Y275403D02*
X84101D01*
X87100Y272404D01*
Y276403D01*
X90099Y278402D02*
X89099D01*
Y279402D01*
X90099D01*
Y278402D01*
Y286400D02*
X84101D01*
X87100Y283401D01*
Y287400D01*
X85101Y289399D02*
X84101Y290399D01*
Y292398D01*
X85101Y293398D01*
X89099D01*
X90099Y292398D01*
Y290399D01*
X89099Y289399D01*
X85101D01*
X90099Y295397D02*
X86100D01*
Y296397D01*
X87100Y297396D01*
X90099D01*
X87100D01*
X86100Y298396D01*
X87100Y299396D01*
X90099D01*
Y301395D02*
X86100D01*
Y302395D01*
X87100Y303394D01*
X90099D01*
X87100D01*
X86100Y304394D01*
X87100Y305394D01*
X90099D01*
X257494Y485901D02*
X258494Y484901D01*
X260493D01*
X261493Y485901D01*
Y489899D01*
X260493Y490899D01*
X258494D01*
X257494Y489899D01*
Y488900D01*
X258494Y487900D01*
X261493D01*
X263492Y489899D02*
X264492Y490899D01*
X266491D01*
X267491Y489899D01*
Y488900D01*
X266491Y487900D01*
X265492D01*
X266491D01*
X267491Y486900D01*
Y485901D01*
X266491Y484901D01*
X264492D01*
X263492Y485901D01*
X269491Y484901D02*
Y485901D01*
X270490D01*
Y484901D01*
X269491D01*
X274489D02*
X276488D01*
X275488D01*
Y490899D01*
X274489Y489899D01*
X279487Y490899D02*
X283486D01*
Y489899D01*
X279487Y485901D01*
Y484901D01*
X293483D02*
X291483Y486900D01*
Y488900D01*
X293483Y490899D01*
X296482Y484901D02*
Y488900D01*
X297481D01*
X298481Y487900D01*
Y484901D01*
Y487900D01*
X299481Y488900D01*
X300480Y487900D01*
Y484901D01*
X302480D02*
Y488900D01*
X303479D01*
X304479Y487900D01*
Y484901D01*
Y487900D01*
X305479Y488900D01*
X306479Y487900D01*
Y484901D01*
X308478D02*
X310477Y486900D01*
Y488900D01*
X308478Y490899D01*
D79*
X1151182Y411004D02*
Y611604D01*
X1136182Y432505D02*
Y581604D01*
X563683Y551605D02*
X1136182D01*
X563683Y521604D02*
X1136182D01*
X563683Y491605D02*
X1136182D01*
X563683Y295504D02*
X1136182D01*
X563683Y265505D02*
X1136182D01*
X563182Y461604D02*
X1136182D01*
X561583Y431604D02*
X1136182D01*
X561182Y581604D02*
X1136182D01*
X546182Y611604D02*
X1151182D01*
X546182Y411004D02*
X1151182D01*
X563683Y235505D02*
X1136182D01*
X1151182Y105005D02*
Y355504D01*
X1136182Y116604D02*
Y325504D01*
X988183Y115505D02*
Y325504D01*
X563182Y205504D02*
X1136182D01*
X563182Y175505D02*
X1136182D01*
X563182Y145504D02*
X1136182D01*
X546182Y411004D02*
Y611604D01*
X778683Y433005D02*
Y581105D01*
X561182Y432004D02*
Y581604D01*
Y432004D02*
X561583Y431604D01*
X546182Y355504D02*
X1151182D01*
X561182Y325504D02*
X1136182D01*
X546182Y105005D02*
Y355504D01*
X561182Y116604D02*
Y325504D01*
X778683Y115505D02*
Y325005D01*
X561182Y116604D02*
X1136182D01*
X546182Y105005D02*
X1151182D01*
D97*
X1006182Y347001D02*
Y335004D01*
X1012181D01*
X1014180Y337004D01*
Y345001D01*
X1012181Y347001D01*
X1006182D01*
X1018179Y335004D02*
X1022177D01*
X1020178D01*
Y343002D01*
X1018179D01*
X1034173Y335004D02*
X1030175D01*
X1028175Y337004D01*
Y341002D01*
X1030175Y343002D01*
X1034173D01*
X1036173Y341002D01*
Y339003D01*
X1028175D01*
X1040172Y335004D02*
X1044170D01*
X1042171D01*
Y347001D01*
X1040172D01*
X1056166Y335004D02*
X1052168D01*
X1050168Y337004D01*
Y341002D01*
X1052168Y343002D01*
X1056166D01*
X1058166Y341002D01*
Y339003D01*
X1050168D01*
X1070162Y343002D02*
X1064164D01*
X1062164Y341002D01*
Y337004D01*
X1064164Y335004D01*
X1070162D01*
X1076160Y345001D02*
Y343002D01*
X1074160D01*
X1078159D01*
X1076160D01*
Y337004D01*
X1078159Y335004D01*
X1084157Y343002D02*
Y335004D01*
Y339003D01*
X1086157Y341002D01*
X1088156Y343002D01*
X1090155D01*
X1096153Y335004D02*
X1100152D01*
X1098153D01*
Y343002D01*
X1096153D01*
X1114148D02*
X1108150D01*
X1106150Y341002D01*
Y337004D01*
X1108150Y335004D01*
X1114148D01*
X1043182Y305504D02*
Y317501D01*
X1051180Y305504D01*
Y317501D01*
X1055179Y305504D02*
X1063176Y313502D01*
X1067175Y305504D02*
Y313502D01*
X1071173Y317501D01*
X1075172Y313502D01*
Y305504D01*
Y311503D01*
X1067175D01*
X1043182Y245504D02*
Y257501D01*
X1051180Y245504D01*
Y257501D01*
X1055179Y245504D02*
X1063176Y253502D01*
X1067175Y245504D02*
Y253502D01*
X1071173Y257501D01*
X1075172Y253502D01*
Y245504D01*
Y251502D01*
X1067175D01*
X1009181Y275504D02*
Y287501D01*
X1003183Y281503D01*
X1011180D01*
X1015179Y275504D02*
Y277504D01*
X1017178D01*
Y275504D01*
X1015179D01*
X1033173Y287501D02*
X1029174Y285501D01*
X1025175Y281503D01*
Y277504D01*
X1027175Y275504D01*
X1031173D01*
X1033173Y277504D01*
Y279503D01*
X1031173Y281503D01*
X1025175D01*
X1053166Y275504D02*
X1049168Y279503D01*
Y283502D01*
X1053166Y287501D01*
X1067162D02*
X1059164D01*
Y281503D01*
X1063163D01*
X1059164D01*
Y275504D01*
X1071161D02*
Y287501D01*
X1077159D01*
X1079158Y285501D01*
Y281503D01*
X1077159Y279503D01*
X1071161D01*
X1075159D02*
X1079158Y275504D01*
X1083157Y281503D02*
X1091154D01*
X1101151Y275504D02*
Y287501D01*
X1095153Y281503D01*
X1103150D01*
X1107149Y275504D02*
X1111148Y279503D01*
Y283502D01*
X1107149Y287501D01*
X955682Y483001D02*
Y481001D01*
X959681Y477002D01*
X963680Y481001D01*
Y483001D01*
X959681Y477002D02*
Y471004D01*
X975676Y483001D02*
X967679D01*
Y471004D01*
X975676D01*
X967679Y477002D02*
X971677D01*
X987672Y481001D02*
X985673Y483001D01*
X981674D01*
X979675Y481001D01*
Y479002D01*
X981674Y477002D01*
X985673D01*
X987672Y475003D01*
Y473004D01*
X985673Y471004D01*
X981674D01*
X979675Y473004D01*
X955682Y453001D02*
Y451001D01*
X959681Y447003D01*
X963680Y451001D01*
Y453001D01*
X959681Y447003D02*
Y441005D01*
X975676Y453001D02*
X967679D01*
Y441005D01*
X975676D01*
X967679Y447003D02*
X971677D01*
X987672Y451001D02*
X985673Y453001D01*
X981674D01*
X979675Y451001D01*
Y449002D01*
X981674Y447003D01*
X985673D01*
X987672Y445003D01*
Y443004D01*
X985673Y441005D01*
X981674D01*
X979675Y443004D01*
X889283Y541401D02*
Y529404D01*
X897280D01*
X909276Y541401D02*
X901279D01*
Y529404D01*
X909276D01*
X901279Y535402D02*
X905277D01*
X913275Y529404D02*
Y537402D01*
X917273Y541401D01*
X921272Y537402D01*
Y529404D01*
Y535402D01*
X913275D01*
X925271Y541401D02*
Y529404D01*
X931269D01*
X933268Y531404D01*
Y539401D01*
X931269Y541401D01*
X925271D01*
X957261D02*
X949263D01*
Y535402D01*
X953262D01*
X949263D01*
Y529404D01*
X961259D02*
Y541401D01*
X967257D01*
X969257Y539401D01*
Y535402D01*
X967257Y533403D01*
X961259D01*
X965258D02*
X969257Y529404D01*
X981253Y541401D02*
X973255D01*
Y529404D01*
X981253D01*
X973255Y535402D02*
X977254D01*
X993249Y541401D02*
X985251D01*
Y529404D01*
X993249D01*
X985251Y535402D02*
X989250D01*
X1009244Y541401D02*
Y529404D01*
Y535402D01*
X1017241D01*
Y541401D01*
Y529404D01*
X1021240D02*
Y537402D01*
X1025239Y541401D01*
X1029237Y537402D01*
Y529404D01*
Y535402D01*
X1021240D01*
X1041233Y539401D02*
X1039234Y541401D01*
X1035235D01*
X1033236Y539401D01*
Y537402D01*
X1035235Y535402D01*
X1039234D01*
X1041233Y533403D01*
Y531404D01*
X1039234Y529404D01*
X1035235D01*
X1033236Y531404D01*
X1045232Y541401D02*
Y529404D01*
X1053229D01*
X950680Y569701D02*
X948680Y571701D01*
X944682D01*
X942682Y569701D01*
Y561704D01*
X944682Y559704D01*
X948680D01*
X950680Y561704D01*
Y565702D01*
X946681D01*
X954679Y559704D02*
Y571701D01*
X960677D01*
X962676Y569701D01*
Y565702D01*
X960677Y563703D01*
X954679D01*
X958677D02*
X962676Y559704D01*
X974672Y571701D02*
X966675D01*
Y559704D01*
X974672D01*
X966675Y565702D02*
X970673D01*
X986668Y571701D02*
X978671D01*
Y559704D01*
X986668D01*
X978671Y565702D02*
X982670D01*
X990667Y559704D02*
Y571701D01*
X998664Y559704D01*
Y571701D01*
X943182Y513001D02*
Y501005D01*
X947181Y505003D01*
X951180Y501005D01*
Y513001D01*
X955179D02*
Y501005D01*
Y507002D01*
X963176D01*
Y513001D01*
Y501005D01*
X967175Y513001D02*
X971173D01*
X969174D01*
Y501005D01*
X967175D01*
X971173D01*
X977172Y513001D02*
X985169D01*
X981170D01*
Y501005D01*
X997165Y513001D02*
X989168D01*
Y501005D01*
X997165D01*
X989168Y507002D02*
X993166D01*
X943182Y603001D02*
Y595003D01*
X947181Y591005D01*
X951180Y595003D01*
Y603001D01*
X957178Y599002D02*
X961177D01*
X963176Y597003D01*
Y591005D01*
X957178D01*
X955179Y593004D01*
X957178Y595003D01*
X963176D01*
X967175Y591005D02*
X971173D01*
X969174D01*
Y603001D01*
X967175D01*
X977172Y599002D02*
Y593004D01*
X979171Y591005D01*
X985169D01*
Y599002D01*
X995166Y591005D02*
X991167D01*
X989168Y593004D01*
Y597003D01*
X991167Y599002D01*
X995166D01*
X997165Y597003D01*
Y595003D01*
X989168D01*
X823182Y303504D02*
X827181D01*
X825182D01*
Y315501D01*
X823182Y313501D01*
X833179Y303504D02*
Y305504D01*
X835179D01*
Y303504D01*
X833179D01*
X849174D02*
Y315501D01*
X843176Y309503D01*
X851173D01*
X855172Y303504D02*
Y311502D01*
X857172D01*
X859171Y309503D01*
Y303504D01*
Y309503D01*
X861170Y311502D01*
X863169Y309503D01*
Y303504D01*
X867168D02*
X871167D01*
X869168D01*
Y311502D01*
X867168D01*
X877165Y303504D02*
X881164D01*
X879164D01*
Y315501D01*
X877165D01*
X903157Y303504D02*
X899158Y307503D01*
Y311502D01*
X903157Y315501D01*
X909155Y303504D02*
X913153D01*
X911154D01*
Y315501D01*
X909155Y313501D01*
X921151Y303504D02*
X925150D01*
X927149Y305504D01*
Y309503D01*
X925150Y311502D01*
X921151D01*
X919151Y309503D01*
Y305504D01*
X921151Y303504D01*
X931148Y311502D02*
X939145D01*
X931148Y303504D01*
X939145D01*
X943144D02*
X947142Y307503D01*
Y311502D01*
X943144Y315501D01*
X794180Y345001D02*
X792180Y347001D01*
X788182D01*
X786182Y345001D01*
Y337004D01*
X788182Y335004D01*
X792180D01*
X794180Y337004D01*
X800178Y335004D02*
X804177D01*
X806176Y337004D01*
Y341002D01*
X804177Y343002D01*
X800178D01*
X798179Y341002D01*
Y337004D01*
X800178Y335004D01*
X810175Y331006D02*
Y343002D01*
X816173D01*
X818172Y341002D01*
Y337004D01*
X816173Y335004D01*
X810175D01*
X822171Y331006D02*
Y343002D01*
X828169D01*
X830168Y341002D01*
Y337004D01*
X828169Y335004D01*
X822171D01*
X840165D02*
X836166D01*
X834167Y337004D01*
Y341002D01*
X836166Y343002D01*
X840165D01*
X842164Y341002D01*
Y339003D01*
X834167D01*
X846163Y343002D02*
Y335004D01*
Y339003D01*
X848162Y341002D01*
X850162Y343002D01*
X852161D01*
X872155Y345001D02*
Y343002D01*
X870155D01*
X874154D01*
X872155D01*
Y337004D01*
X874154Y335004D01*
X880152Y347001D02*
Y335004D01*
Y341002D01*
X882151Y343002D01*
X886150D01*
X888150Y341002D01*
Y335004D01*
X892148D02*
X896147D01*
X894148D01*
Y343002D01*
X892148D01*
X910142D02*
X904144D01*
X902145Y341002D01*
Y337004D01*
X904144Y335004D01*
X910142D01*
X914141D02*
Y347001D01*
Y339003D02*
X920139Y343002D01*
X914141Y339003D02*
X920139Y335004D01*
X926137D02*
Y343002D01*
X932135D01*
X934135Y341002D01*
Y335004D01*
X944131D02*
X940133D01*
X938133Y337004D01*
Y341002D01*
X940133Y343002D01*
X944131D01*
X946131Y341002D01*
Y339003D01*
X938133D01*
X950130Y335004D02*
X956127D01*
X958127Y337004D01*
X956127Y339003D01*
X952129D01*
X950130Y341002D01*
X952129Y343002D01*
X958127D01*
X962126Y335004D02*
X968124D01*
X970123Y337004D01*
X968124Y339003D01*
X964125D01*
X962126Y341002D01*
X964125Y343002D01*
X970123D01*
X861182Y275005D02*
Y287001D01*
X869180Y275005D01*
Y287001D01*
X873179Y275005D02*
X881176Y283002D01*
X885175Y275005D02*
Y283002D01*
X889173Y287001D01*
X893172Y283002D01*
Y275005D01*
Y281002D01*
X885175D01*
X821183Y245005D02*
X825181D01*
X823182D01*
Y257001D01*
X821183Y255001D01*
X831179Y245005D02*
Y247004D01*
X833179D01*
Y245005D01*
X831179D01*
X847174D02*
Y257001D01*
X841176Y251003D01*
X849173D01*
X853172Y245005D02*
Y253002D01*
X855171D01*
X857171Y251003D01*
Y245005D01*
Y251003D01*
X859170Y253002D01*
X861170Y251003D01*
Y245005D01*
X865168D02*
X869167D01*
X867168D01*
Y253002D01*
X865168D01*
X875165Y245005D02*
X879164D01*
X877164D01*
Y257001D01*
X875165D01*
X901157Y245005D02*
X897158Y249003D01*
Y253002D01*
X901157Y257001D01*
X907155Y245005D02*
X911153D01*
X909154D01*
Y257001D01*
X907155Y255001D01*
X919151Y245005D02*
X923149D01*
X925149Y247004D01*
Y251003D01*
X923149Y253002D01*
X919151D01*
X917152Y251003D01*
Y247004D01*
X919151Y245005D01*
X929148Y253002D02*
X937145D01*
X929148Y245005D01*
X937145D01*
X941144D02*
X945142Y249003D01*
Y253002D01*
X941144Y257001D01*
X861182Y215004D02*
Y227001D01*
X869180Y215004D01*
Y227001D01*
X873179Y215004D02*
X881176Y223002D01*
X885175Y215004D02*
Y223002D01*
X889173Y227001D01*
X893172Y223002D01*
Y215004D01*
Y221003D01*
X885175D01*
X1012181Y214004D02*
Y226001D01*
X1006182Y220003D01*
X1014180D01*
X1018179Y214004D02*
Y216004D01*
X1020178D01*
Y214004D01*
X1018179D01*
X1036173Y226001D02*
X1032174Y224001D01*
X1028175Y220003D01*
Y216004D01*
X1030175Y214004D01*
X1034173D01*
X1036173Y216004D01*
Y218003D01*
X1034173Y220003D01*
X1028175D01*
X1056166Y214004D02*
X1052168Y218003D01*
Y222002D01*
X1056166Y226001D01*
X1070162D02*
X1062164D01*
Y220003D01*
X1066163D01*
X1062164D01*
Y214004D01*
X1074160D02*
Y226001D01*
X1080159D01*
X1082158Y224001D01*
Y220003D01*
X1080159Y218003D01*
X1074160D01*
X1078159D02*
X1082158Y214004D01*
X1086157Y220003D02*
X1094154D01*
X1104151Y214004D02*
Y226001D01*
X1098153Y220003D01*
X1106150D01*
X1110149Y214004D02*
X1114148Y218003D01*
Y222002D01*
X1110149Y226001D01*
X1043182Y185504D02*
Y197501D01*
X1051180Y185504D01*
Y197501D01*
X1055179Y185504D02*
X1063176Y193502D01*
X1067175Y185504D02*
Y193502D01*
X1071173Y197501D01*
X1075172Y193502D01*
Y185504D01*
Y191502D01*
X1067175D01*
X821183Y185004D02*
X825181D01*
X823182D01*
Y197001D01*
X821183Y195001D01*
X831179Y185004D02*
Y187004D01*
X833179D01*
Y185004D01*
X831179D01*
X847174D02*
Y197001D01*
X841176Y191003D01*
X849173D01*
X853172Y185004D02*
Y193002D01*
X855171D01*
X857171Y191003D01*
Y185004D01*
Y191003D01*
X859170Y193002D01*
X861170Y191003D01*
Y185004D01*
X865168D02*
X869167D01*
X867168D01*
Y193002D01*
X865168D01*
X875165Y185004D02*
X879164D01*
X877164D01*
Y197001D01*
X875165D01*
X901157Y185004D02*
X897158Y189003D01*
Y193002D01*
X901157Y197001D01*
X907155Y185004D02*
X911153D01*
X909154D01*
Y197001D01*
X907155Y195001D01*
X919151Y185004D02*
X923149D01*
X925149Y187004D01*
Y191003D01*
X923149Y193002D01*
X919151D01*
X917152Y191003D01*
Y187004D01*
X919151Y185004D01*
X929148Y193002D02*
X937145D01*
X929148Y185004D01*
X937145D01*
X941144D02*
X945142Y189003D01*
Y193002D01*
X941144Y197001D01*
X1009181Y155505D02*
Y167501D01*
X1003183Y161503D01*
X1011180D01*
X1015179Y155505D02*
Y157504D01*
X1017178D01*
Y155505D01*
X1015179D01*
X1033173Y167501D02*
X1029174Y165501D01*
X1025175Y161503D01*
Y157504D01*
X1027175Y155505D01*
X1031173D01*
X1033173Y157504D01*
Y159503D01*
X1031173Y161503D01*
X1025175D01*
X1053166Y155505D02*
X1049168Y159503D01*
Y163502D01*
X1053166Y167501D01*
X1067162D02*
X1059164D01*
Y161503D01*
X1063163D01*
X1059164D01*
Y155505D01*
X1071161D02*
Y167501D01*
X1077159D01*
X1079158Y165501D01*
Y161503D01*
X1077159Y159503D01*
X1071161D01*
X1075159D02*
X1079158Y155505D01*
X1083157Y161503D02*
X1091154D01*
X1101151Y155505D02*
Y167501D01*
X1095153Y161503D01*
X1103150D01*
X1107149Y155505D02*
X1111148Y159503D01*
Y163502D01*
X1107149Y167501D01*
X861182Y155005D02*
Y167001D01*
X869180Y155005D01*
Y167001D01*
X873179Y155005D02*
X881176Y163002D01*
X885175Y155005D02*
Y163002D01*
X889173Y167001D01*
X893172Y163002D01*
Y155005D01*
Y161003D01*
X885175D01*
X1043682Y124004D02*
Y136001D01*
X1051680Y124004D01*
Y136001D01*
X1055679Y124004D02*
X1063676Y132002D01*
X1067675Y124004D02*
Y132002D01*
X1071673Y136001D01*
X1075672Y132002D01*
Y124004D01*
Y130002D01*
X1067675D01*
X820683Y123504D02*
X824681D01*
X822682D01*
Y135501D01*
X820683Y133501D01*
X830679Y123504D02*
Y125504D01*
X832679D01*
Y123504D01*
X830679D01*
X846674D02*
Y135501D01*
X840676Y129502D01*
X848673D01*
X852672Y123504D02*
Y131502D01*
X854671D01*
X856671Y129502D01*
Y123504D01*
Y129502D01*
X858670Y131502D01*
X860670Y129502D01*
Y123504D01*
X864668D02*
X868667D01*
X866668D01*
Y131502D01*
X864668D01*
X874665Y123504D02*
X878664D01*
X876664D01*
Y135501D01*
X874665D01*
X900657Y123504D02*
X896658Y127503D01*
Y131502D01*
X900657Y135501D01*
X906655Y123504D02*
X910653D01*
X908654D01*
Y135501D01*
X906655Y133501D01*
X918651Y123504D02*
X922649D01*
X924649Y125504D01*
Y129502D01*
X922649Y131502D01*
X918651D01*
X916652Y129502D01*
Y125504D01*
X918651Y123504D01*
X928648Y131502D02*
X936645D01*
X928648Y123504D01*
X936645D01*
X940644D02*
X944642Y127503D01*
Y131502D01*
X940644Y135501D01*
X636180Y601001D02*
X634180Y603001D01*
X630182D01*
X628183Y601001D01*
Y599002D01*
X630182Y597003D01*
X634180D01*
X636180Y595003D01*
Y593004D01*
X634180Y591005D01*
X630182D01*
X628183Y593004D01*
X646177Y591005D02*
X642178D01*
X640179Y593004D01*
Y597003D01*
X642178Y599002D01*
X646177D01*
X648176Y597003D01*
Y595003D01*
X640179D01*
X654174Y601001D02*
Y599002D01*
X652175D01*
X656173D01*
X654174D01*
Y593004D01*
X656173Y591005D01*
X664171Y601001D02*
Y599002D01*
X662172D01*
X666170D01*
X664171D01*
Y593004D01*
X666170Y591005D01*
X672168D02*
X676167D01*
X674168D01*
Y599002D01*
X672168D01*
X682165Y591005D02*
Y599002D01*
X688163D01*
X690162Y597003D01*
Y591005D01*
X698160Y587006D02*
X700159D01*
X702159Y589005D01*
Y599002D01*
X696161D01*
X694161Y597003D01*
Y593004D01*
X696161Y591005D01*
X702159D01*
X618680Y571001D02*
X616680Y573001D01*
X612682D01*
X610682Y571001D01*
Y569002D01*
X612682Y567002D01*
X616680D01*
X618680Y565003D01*
Y563004D01*
X616680Y561004D01*
X612682D01*
X610682Y563004D01*
X624678Y561004D02*
X628677D01*
X630676Y563004D01*
Y567002D01*
X628677Y569002D01*
X624678D01*
X622679Y567002D01*
Y563004D01*
X624678Y561004D01*
X634675D02*
X638673D01*
X636674D01*
Y573001D01*
X634675D01*
X652669D02*
Y561004D01*
X646671D01*
X644671Y563004D01*
Y567002D01*
X646671Y569002D01*
X652669D01*
X662666Y561004D02*
X658667D01*
X656668Y563004D01*
Y567002D01*
X658667Y569002D01*
X662666D01*
X664665Y567002D01*
Y565003D01*
X656668D01*
X668664Y569002D02*
Y561004D01*
Y565003D01*
X670663Y567002D01*
X672662Y569002D01*
X674662D01*
X692656Y561004D02*
Y569002D01*
X694655D01*
X696655Y567002D01*
Y561004D01*
Y567002D01*
X698654Y569002D01*
X700653Y567002D01*
Y561004D01*
X706651Y569002D02*
X710650D01*
X712649Y567002D01*
Y561004D01*
X706651D01*
X704652Y563004D01*
X706651Y565003D01*
X712649D01*
X716648Y561004D02*
X722646D01*
X724646Y563004D01*
X722646Y565003D01*
X718648D01*
X716648Y567002D01*
X718648Y569002D01*
X724646D01*
X728644Y561004D02*
Y573001D01*
Y565003D02*
X734642Y569002D01*
X728644Y565003D02*
X734642Y561004D01*
X618680Y543001D02*
X610682D01*
Y537003D01*
X614681D01*
X610682D01*
Y531004D01*
X622679D02*
X626677D01*
X624678D01*
Y539002D01*
X622679D01*
X632675Y531004D02*
Y539002D01*
X638673D01*
X640673Y537003D01*
Y531004D01*
X644671D02*
X648670D01*
X646671D01*
Y539002D01*
X644671D01*
X654668Y531004D02*
X660666D01*
X662666Y533004D01*
X660666Y535003D01*
X656668D01*
X654668Y537003D01*
X656668Y539002D01*
X662666D01*
X666664Y543001D02*
Y531004D01*
Y537003D01*
X668664Y539002D01*
X672662D01*
X674662Y537003D01*
Y531004D01*
X692656Y541001D02*
Y539002D01*
X690657D01*
X694655D01*
X692656D01*
Y533004D01*
X694655Y531004D01*
X700653Y539002D02*
Y533004D01*
X702653Y531004D01*
X708651D01*
Y529005D01*
X706651Y527006D01*
X704652D01*
X708651Y531004D02*
Y539002D01*
X712649Y527006D02*
Y539002D01*
X718648D01*
X720647Y537003D01*
Y533004D01*
X718648Y531004D01*
X712649D01*
X730644D02*
X726645D01*
X724646Y533004D01*
Y537003D01*
X726645Y539002D01*
X730644D01*
X732643Y537003D01*
Y535003D01*
X724646D01*
X623680Y511001D02*
X621680Y513001D01*
X617682D01*
X615683Y511001D01*
Y509002D01*
X617682Y507002D01*
X621680D01*
X623680Y505003D01*
Y503004D01*
X621680Y501005D01*
X617682D01*
X615683Y503004D01*
X627679Y501005D02*
X631677D01*
X629678D01*
Y509002D01*
X627679D01*
X637675Y501005D02*
X641674D01*
X639675D01*
Y513001D01*
X637675D01*
X647672Y501005D02*
Y513001D01*
Y505003D02*
X653670Y509002D01*
X647672Y505003D02*
X653670Y501005D01*
X659668D02*
X665666D01*
X667666Y503004D01*
X665666Y505003D01*
X661668D01*
X659668Y507002D01*
X661668Y509002D01*
X667666D01*
X679662D02*
X673664D01*
X671664Y507002D01*
Y503004D01*
X673664Y501005D01*
X679662D01*
X683661Y509002D02*
Y501005D01*
Y505003D01*
X685660Y507002D01*
X687659Y509002D01*
X689659D01*
X701655Y501005D02*
X697656D01*
X695657Y503004D01*
Y507002D01*
X697656Y509002D01*
X701655D01*
X703654Y507002D01*
Y505003D01*
X695657D01*
X713651Y501005D02*
X709652D01*
X707653Y503004D01*
Y507002D01*
X709652Y509002D01*
X713651D01*
X715650Y507002D01*
Y505003D01*
X707653D01*
X719649Y501005D02*
Y509002D01*
X725647D01*
X727646Y507002D01*
Y501005D01*
X645682Y471004D02*
Y483001D01*
X651681D01*
X653680Y481001D01*
Y477002D01*
X651681Y475003D01*
X645682D01*
X649681D02*
X653680Y471004D01*
X659678D02*
X663677D01*
X665676Y473004D01*
Y477002D01*
X663677Y479002D01*
X659678D01*
X657679Y477002D01*
Y473004D01*
X659678Y471004D01*
X669675Y483001D02*
Y471004D01*
Y477002D01*
X677672D01*
Y483001D01*
Y471004D01*
X689668Y481001D02*
X687669Y483001D01*
X683670D01*
X681671Y481001D01*
Y479002D01*
X683670Y477002D01*
X687669D01*
X689668Y475003D01*
Y473004D01*
X687669Y471004D01*
X683670D01*
X681671Y473004D01*
X598680Y453001D02*
X590683D01*
Y441005D01*
X598680D01*
X590683Y447003D02*
X594681D01*
X602679Y441005D02*
X606677D01*
X604678D01*
Y453001D01*
X602679D01*
X618673Y441005D02*
X614675D01*
X612675Y443004D01*
Y447003D01*
X614675Y449002D01*
X618673D01*
X620673Y447003D01*
Y445003D01*
X612675D01*
X632669Y449002D02*
X626671D01*
X624672Y447003D01*
Y443004D01*
X626671Y441005D01*
X632669D01*
X638667Y451001D02*
Y449002D01*
X636668D01*
X640666D01*
X638667D01*
Y443004D01*
X640666Y441005D01*
X646664Y449002D02*
Y441005D01*
Y445003D01*
X648664Y447003D01*
X650663Y449002D01*
X652662D01*
X658661Y441005D02*
X662659D01*
X660660D01*
Y449002D01*
X658661D01*
X676655D02*
X670657D01*
X668657Y447003D01*
Y443004D01*
X670657Y441005D01*
X676655D01*
X682653Y449002D02*
X686652D01*
X688651Y447003D01*
Y441005D01*
X682653D01*
X680653Y443004D01*
X682653Y445003D01*
X688651D01*
X692650Y441005D02*
X696648D01*
X694649D01*
Y453001D01*
X692650D01*
X716642Y451001D02*
Y449002D01*
X714642D01*
X718641D01*
X716642D01*
Y443004D01*
X718641Y441005D01*
X730637D02*
X726639D01*
X724639Y443004D01*
Y447003D01*
X726639Y449002D01*
X730637D01*
X732637Y447003D01*
Y445003D01*
X724639D01*
X736635Y441005D02*
X742633D01*
X744633Y443004D01*
X742633Y445003D01*
X738635D01*
X736635Y447003D01*
X738635Y449002D01*
X744633D01*
X750631Y451001D02*
Y449002D01*
X748631D01*
X752630D01*
X750631D01*
Y443004D01*
X752630Y441005D01*
X646182Y347001D02*
Y335004D01*
X654180D01*
X660178Y343002D02*
X664177D01*
X666176Y341002D01*
Y335004D01*
X660178D01*
X658179Y337004D01*
X660178Y339003D01*
X666176D01*
X670175Y343002D02*
Y337004D01*
X672174Y335004D01*
X678172D01*
Y333005D01*
X676173Y331006D01*
X674173D01*
X678172Y335004D02*
Y343002D01*
X688169Y335004D02*
X684170D01*
X682171Y337004D01*
Y341002D01*
X684170Y343002D01*
X688169D01*
X690168Y341002D01*
Y339003D01*
X682171D01*
X694167Y343002D02*
Y335004D01*
Y339003D01*
X696166Y341002D01*
X698166Y343002D01*
X700165D01*
X613182Y315501D02*
X621180D01*
X617181D01*
Y303504D01*
X631177Y315501D02*
X627178D01*
X625179Y313501D01*
Y305504D01*
X627178Y303504D01*
X631177D01*
X633176Y305504D01*
Y313501D01*
X631177Y315501D01*
X637175Y303504D02*
Y315501D01*
X643173D01*
X645172Y313501D01*
Y309503D01*
X643173Y307503D01*
X637175D01*
X665166Y303504D02*
X661167Y307503D01*
Y311502D01*
X665166Y315501D01*
X671164Y303504D02*
X675162D01*
X673163D01*
Y315501D01*
X671164Y313501D01*
X681160Y303504D02*
Y305504D01*
X683160D01*
Y303504D01*
X681160D01*
X697155D02*
Y315501D01*
X691157Y309503D01*
X699155D01*
X703153Y303504D02*
Y311502D01*
X705153D01*
X707152Y309503D01*
Y303504D01*
Y309503D01*
X709152Y311502D01*
X711151Y309503D01*
Y303504D01*
X715149D02*
X719148D01*
X717149D01*
Y311502D01*
X715149D01*
X725146Y303504D02*
X729145D01*
X727146D01*
Y315501D01*
X725146D01*
X735143Y303504D02*
X739142Y307503D01*
Y311502D01*
X735143Y315501D01*
X618680Y283501D02*
X616680Y285501D01*
X612682D01*
X610682Y283501D01*
Y275504D01*
X612682Y273504D01*
X616680D01*
X618680Y275504D01*
X628677Y285501D02*
X624678D01*
X622679Y283501D01*
Y275504D01*
X624678Y273504D01*
X628677D01*
X630676Y275504D01*
Y283501D01*
X628677Y285501D01*
X634675Y273504D02*
Y285501D01*
X640673D01*
X642672Y283501D01*
Y279503D01*
X640673Y277503D01*
X634675D01*
X638673D02*
X642672Y273504D01*
X654668Y285501D02*
X646671D01*
Y273504D01*
X654668D01*
X646671Y279503D02*
X650669D01*
X674662Y273504D02*
X670663Y277503D01*
Y281502D01*
X674662Y285501D01*
X680660Y273504D02*
X684659D01*
X682659D01*
Y285501D01*
X680660Y283501D01*
X696655Y273504D02*
Y285501D01*
X690657Y279503D01*
X698654D01*
X702653Y273504D02*
Y281502D01*
X704652D01*
X706651Y279503D01*
Y273504D01*
Y279503D01*
X708651Y281502D01*
X710650Y279503D01*
Y273504D01*
X714649D02*
X718648D01*
X716648D01*
Y281502D01*
X714649D01*
X724646Y273504D02*
X728644D01*
X726645D01*
Y285501D01*
X724646D01*
X734642Y273504D02*
X738641Y277503D01*
Y281502D01*
X734642Y285501D01*
X599180Y255001D02*
X597181Y257001D01*
X593182D01*
X591183Y255001D01*
Y247004D01*
X593182Y245005D01*
X597181D01*
X599180Y247004D01*
Y251003D01*
X595181D01*
X603179Y245005D02*
Y257001D01*
X609177D01*
X611176Y255001D01*
Y251003D01*
X609177Y249003D01*
X603179D01*
X607177D02*
X611176Y245005D01*
X621173Y257001D02*
X617174D01*
X615175Y255001D01*
Y247004D01*
X617174Y245005D01*
X621173D01*
X623172Y247004D01*
Y255001D01*
X621173Y257001D01*
X627171D02*
Y247004D01*
X629170Y245005D01*
X633169D01*
X635168Y247004D01*
Y257001D01*
X639167Y245005D02*
Y257001D01*
X647164Y245005D01*
Y257001D01*
X651163D02*
Y245005D01*
X657161D01*
X659161Y247004D01*
Y255001D01*
X657161Y257001D01*
X651163D01*
X679154Y245005D02*
X675155Y249003D01*
Y253002D01*
X679154Y257001D01*
X685152Y245005D02*
X689151D01*
X687151D01*
Y257001D01*
X685152Y255001D01*
X695149Y245005D02*
Y247004D01*
X697148D01*
Y245005D01*
X695149D01*
X711144D02*
Y257001D01*
X705146Y251003D01*
X713143D01*
X717142Y245005D02*
Y253002D01*
X719141D01*
X721140Y251003D01*
Y245005D01*
Y251003D01*
X723140Y253002D01*
X725139Y251003D01*
Y245005D01*
X729138D02*
X733137D01*
X731137D01*
Y253002D01*
X729138D01*
X739135Y245005D02*
X743133D01*
X741134D01*
Y257001D01*
X739135D01*
X749131Y245005D02*
X753130Y249003D01*
Y253002D01*
X749131Y257001D01*
X581182Y215004D02*
Y227001D01*
X587181D01*
X589180Y225001D01*
Y221003D01*
X587181Y219003D01*
X581182D01*
X593179Y215004D02*
Y227001D01*
X599177D01*
X601176Y225001D01*
Y221003D01*
X599177Y219003D01*
X593179D01*
X597177D02*
X601176Y215004D01*
X613172Y227001D02*
X605175D01*
Y215004D01*
X613172D01*
X605175Y221003D02*
X609173D01*
X617171Y215004D02*
Y227001D01*
X623169D01*
X625168Y225001D01*
Y221003D01*
X623169Y219003D01*
X617171D01*
X629167Y215004D02*
Y227001D01*
X635165D01*
X637164Y225001D01*
Y221003D01*
X635165Y219003D01*
X629167D01*
X633166D02*
X637164Y215004D01*
X649160Y227001D02*
X641163D01*
Y215004D01*
X649160D01*
X641163Y221003D02*
X645162D01*
X661157Y225001D02*
X659157Y227001D01*
X655159D01*
X653159Y225001D01*
Y217004D01*
X655159Y215004D01*
X659157D01*
X661157Y217004D01*
Y221003D01*
X657158D01*
X681150Y215004D02*
X677151Y219003D01*
Y223002D01*
X681150Y227001D01*
X687148Y225001D02*
X689148Y227001D01*
X693146D01*
X695146Y225001D01*
Y223002D01*
X693146Y221003D01*
X691147D01*
X693146D01*
X695146Y219003D01*
Y217004D01*
X693146Y215004D01*
X689148D01*
X687148Y217004D01*
X699144Y225001D02*
X701144Y227001D01*
X705142D01*
X707142Y225001D01*
Y217004D01*
X705142Y215004D01*
X701144D01*
X699144Y217004D01*
Y225001D01*
X711140Y215004D02*
Y217004D01*
X713140D01*
Y215004D01*
X711140D01*
X721137Y225001D02*
X723137Y227001D01*
X727135D01*
X729135Y225001D01*
Y223002D01*
X727135Y221003D01*
X729135Y219003D01*
Y217004D01*
X727135Y215004D01*
X723137D01*
X721137Y217004D01*
Y219003D01*
X723137Y221003D01*
X721137Y223002D01*
Y225001D01*
X723137Y221003D02*
X727135D01*
X733133Y215004D02*
Y223002D01*
X735133D01*
X737132Y221003D01*
Y215004D01*
Y221003D01*
X739131Y223002D01*
X741131Y221003D01*
Y215004D01*
X745129D02*
X749128D01*
X747129D01*
Y223002D01*
X745129D01*
X755126Y215004D02*
X759125D01*
X757126D01*
Y227001D01*
X755126D01*
X765123Y215004D02*
X769122Y219003D01*
Y223002D01*
X765123Y227001D01*
X596182Y185004D02*
Y197001D01*
X602180D01*
X604180Y195001D01*
Y191003D01*
X602180Y189003D01*
X596182D01*
X614177Y197001D02*
X610178D01*
X608179Y195001D01*
Y187004D01*
X610178Y185004D01*
X614177D01*
X616176Y187004D01*
Y195001D01*
X614177Y197001D01*
X620175D02*
Y185004D01*
X624173Y189003D01*
X628172Y185004D01*
Y197001D01*
X640168D02*
X632171D01*
Y185004D01*
X640168D01*
X632171Y191003D02*
X636169D01*
X644167Y185004D02*
Y197001D01*
X650165D01*
X652164Y195001D01*
Y191003D01*
X650165Y189003D01*
X644167D01*
X648166D02*
X652164Y185004D01*
X672158D02*
X668159Y189003D01*
Y193002D01*
X672158Y197001D01*
X678156Y185004D02*
X682155D01*
X680155D01*
Y197001D01*
X678156Y195001D01*
X688153Y185004D02*
Y187004D01*
X690152D01*
Y185004D01*
X688153D01*
X704148D02*
Y197001D01*
X698149Y191003D01*
X706147D01*
X710146Y185004D02*
Y193002D01*
X712145D01*
X714144Y191003D01*
Y185004D01*
Y191003D01*
X716144Y193002D01*
X718143Y191003D01*
Y185004D01*
X722142D02*
X726140D01*
X724141D01*
Y193002D01*
X722142D01*
X732138Y185004D02*
X736137D01*
X734138D01*
Y197001D01*
X732138D01*
X742135Y185004D02*
X746134Y189003D01*
Y193002D01*
X742135Y197001D01*
X616180Y163501D02*
X614181Y165501D01*
X610182D01*
X608182Y163501D01*
Y155504D01*
X610182Y153505D01*
X614181D01*
X616180Y155504D01*
X626177Y165501D02*
X622178D01*
X620179Y163501D01*
Y155504D01*
X622178Y153505D01*
X626177D01*
X628176Y155504D01*
Y163501D01*
X626177Y165501D01*
X632175Y153505D02*
Y165501D01*
X638173D01*
X640172Y163501D01*
Y159502D01*
X638173Y157503D01*
X632175D01*
X636173D02*
X640172Y153505D01*
X652168Y165501D02*
X644171D01*
Y153505D01*
X652168D01*
X644171Y159502D02*
X648170D01*
X672162Y153505D02*
X668163Y157503D01*
Y161502D01*
X672162Y165501D01*
X678160Y153505D02*
X682159D01*
X680159D01*
Y165501D01*
X678160Y163501D01*
X694155Y153505D02*
Y165501D01*
X688157Y159502D01*
X696154D01*
X700153Y153505D02*
Y161502D01*
X702152D01*
X704151Y159502D01*
Y153505D01*
Y159502D01*
X706151Y161502D01*
X708150Y159502D01*
Y153505D01*
X712149D02*
X716148D01*
X714148D01*
Y161502D01*
X712149D01*
X722146Y153505D02*
X726144D01*
X724145D01*
Y165501D01*
X722146D01*
X732142Y153505D02*
X736141Y157503D01*
Y161502D01*
X732142Y165501D01*
X591183Y137001D02*
Y125004D01*
X597181D01*
X599180Y127004D01*
Y129003D01*
X597181Y131002D01*
X591183D01*
X597181D01*
X599180Y133002D01*
Y135001D01*
X597181Y137001D01*
X591183D01*
X609177D02*
X605178D01*
X603179Y135001D01*
Y127004D01*
X605178Y125004D01*
X609177D01*
X611176Y127004D01*
Y135001D01*
X609177Y137001D01*
X615175D02*
X623172D01*
X619173D01*
Y125004D01*
X627171Y137001D02*
X635168D01*
X631170D01*
Y125004D01*
X645165Y137001D02*
X641166D01*
X639167Y135001D01*
Y127004D01*
X641166Y125004D01*
X645165D01*
X647164Y127004D01*
Y135001D01*
X645165Y137001D01*
X651163Y125004D02*
Y137001D01*
X655162Y133002D01*
X659161Y137001D01*
Y125004D01*
X679154D02*
X675155Y129003D01*
Y133002D01*
X679154Y137001D01*
X685152Y125004D02*
X689151D01*
X687151D01*
Y137001D01*
X685152Y135001D01*
X695149Y125004D02*
Y127004D01*
X697148D01*
Y125004D01*
X695149D01*
X711144D02*
Y137001D01*
X705146Y131002D01*
X713143D01*
X717142Y125004D02*
Y133002D01*
X719141D01*
X721140Y131002D01*
Y125004D01*
Y131002D01*
X723140Y133002D01*
X725139Y131002D01*
Y125004D01*
X729138D02*
X733137D01*
X731137D01*
Y133002D01*
X729138D01*
X739135Y125004D02*
X743133D01*
X741134D01*
Y137001D01*
X739135D01*
X749131Y125004D02*
X753130Y129003D01*
Y133002D01*
X749131Y137001D01*
D98*
X688182Y623504D02*
Y641499D01*
X697180D01*
X700179Y638500D01*
Y632502D01*
X697180Y629502D01*
X688182D01*
X718173Y638500D02*
X715174Y641499D01*
X709176D01*
X706177Y638500D01*
Y626504D01*
X709176Y623504D01*
X715174D01*
X718173Y626504D01*
X724171Y641499D02*
Y623504D01*
X733168D01*
X736167Y626504D01*
Y629502D01*
X733168Y632502D01*
X724171D01*
X733168D01*
X736167Y635501D01*
Y638500D01*
X733168Y641499D01*
X724171D01*
X760159Y623504D02*
Y641499D01*
X769156D01*
X772155Y638500D01*
Y632502D01*
X769156Y629502D01*
X760159D01*
X778153Y623504D02*
Y635501D01*
X784151Y641499D01*
X790149Y635501D01*
Y623504D01*
Y632502D01*
X778153D01*
X796148Y623504D02*
Y641499D01*
X808144Y623504D01*
Y641499D01*
X826138D02*
X814142D01*
Y623504D01*
X826138D01*
X814142Y632502D02*
X820140D01*
X832136Y641499D02*
Y623504D01*
X844132D01*
X880120Y638500D02*
X877121Y641499D01*
X871123D01*
X868124Y638500D01*
Y635501D01*
X871123Y632502D01*
X877121D01*
X880120Y629502D01*
Y626504D01*
X877121Y623504D01*
X871123D01*
X868124Y626504D01*
X898115Y641499D02*
X886119D01*
Y623504D01*
X898115D01*
X886119Y632502D02*
X892117D01*
X904113Y641499D02*
X916109D01*
X910111D01*
Y623504D01*
X922107Y641499D02*
X934103D01*
X928105D01*
Y623504D01*
X940101Y641499D02*
X946099D01*
X943100D01*
Y623504D01*
X940101D01*
X946099D01*
X955096D02*
Y641499D01*
X967092Y623504D01*
Y641499D01*
X985086Y638500D02*
X982087Y641499D01*
X976089D01*
X973090Y638500D01*
Y626504D01*
X976089Y623504D01*
X982087D01*
X985086Y626504D01*
Y632502D01*
X979088D01*
X1003081Y638500D02*
X1000082Y641499D01*
X994083D01*
X991084Y638500D01*
Y635501D01*
X994083Y632502D01*
X1000082D01*
X1003081Y629502D01*
Y626504D01*
X1000082Y623504D01*
X994083D01*
X991084Y626504D01*
X751083Y382099D02*
Y364105D01*
X763079D01*
X769077D02*
Y376101D01*
X775075Y382099D01*
X781073Y376101D01*
Y364105D01*
Y373101D01*
X769077D01*
X787071Y382099D02*
Y379100D01*
X793069Y373101D01*
X799067Y379100D01*
Y382099D01*
X793069Y373101D02*
Y364105D01*
X817061Y382099D02*
X805065D01*
Y364105D01*
X817061D01*
X805065Y373101D02*
X811063D01*
X823059Y364105D02*
Y382099D01*
X832056D01*
X835055Y379100D01*
Y373101D01*
X832056Y370103D01*
X823059D01*
X829057D02*
X835055Y364105D01*
X871044Y379100D02*
X868045Y382099D01*
X862047D01*
X859048Y379100D01*
Y376101D01*
X862047Y373101D01*
X868045D01*
X871044Y370103D01*
Y367104D01*
X868045Y364105D01*
X862047D01*
X859048Y367104D01*
X877042Y382099D02*
X889038D01*
X883040D01*
Y364105D01*
X895036D02*
Y376101D01*
X901034Y382099D01*
X907032Y376101D01*
Y364105D01*
Y373101D01*
X895036D01*
X925026Y379100D02*
X922027Y382099D01*
X916029D01*
X913030Y379100D01*
Y367104D01*
X916029Y364105D01*
X922027D01*
X925026Y367104D01*
X931024Y382099D02*
Y364105D01*
Y370103D01*
X943020Y382099D01*
X934023Y373101D01*
X943020Y364105D01*
M02*
